<svg width="1440" height="312" viewBox="0 0 1440 312" fill="none" xmlns="http://www.w3.org/2000/svg">
<rect width="1440" height="312" fill="#EDF0F3"/>
<path d="M98.8641 78.9929L100.317 81.5246L103.094 82.4225L101.135 84.5864L101.139 87.5053L98.476 86.3109L95.7014 87.2169L96.0142 84.3149L94.2952 81.9559L97.1519 81.3567L98.8641 78.9929Z" fill="white"/>
<g clip-path="url(#clip0)">
<path d="M1.58409 259.501L80.025 181.06C81.6256 179.459 82.525 177.288 82.525 175.026C82.525 172.762 81.6256 170.591 80.025 168.991L77.0132 165.975C75.4126 164.374 73.2427 163.475 70.979 163.475C68.7153 163.475 66.5454 164.374 64.9448 165.975L-13.501 244.416C-15.1006 246.016 -16 248.186 -16 250.45C-16 252.713 -15.1006 254.884 -13.501 256.484L-10.4843 259.501C-8.88375 261.101 -6.71284 262 -4.45013 262C-2.18644 262 -0.0155315 261.101 1.58409 259.501ZM67.9575 168.987C68.7573 168.187 69.8433 167.737 70.9751 167.737C72.107 167.737 73.1919 168.187 73.9927 168.987L77.0132 172.008C77.814 172.808 78.2632 173.894 78.2632 175.026C78.2632 176.158 77.814 177.243 77.0132 178.043L62.5063 192.535C62.4214 192.389 62.3198 192.255 62.2036 192.134L52.9701 183.978L67.9575 168.987ZM-10.4843 253.468C-11.2842 252.667 -11.7344 251.582 -11.7344 250.45C-11.7344 249.318 -11.2842 248.232 -10.4843 247.432L49.9476 187.003L59.3872 195.333C59.4565 195.378 59.5278 195.42 59.601 195.457L-1.43253 256.484C-3.12102 258.096 -5.77924 258.096 -7.46772 256.484L-10.4843 253.468Z" fill="white"/>
<path d="M108.358 134.625L82.7581 160.225C82.2034 160.761 81.9807 161.554 82.176 162.3C82.3713 163.046 82.9544 163.628 83.6995 163.823C84.4456 164.019 85.2386 163.796 85.7747 163.241L111.374 137.642C112.183 136.805 112.171 135.474 111.349 134.651C110.526 133.828 109.195 133.816 108.358 134.625Z" fill="white"/>
<path d="M75.7334 157.467V136.134C75.7334 134.955 74.7783 134 73.6006 134C72.4219 134 71.4668 134.955 71.4668 136.134V157.467C71.4668 158.645 72.4219 159.6 73.6006 159.6C74.7783 159.6 75.7334 158.645 75.7334 157.467Z" fill="white"/>
<path d="M109.867 170.267H88.5332C87.3555 170.267 86.4004 171.222 86.4004 172.401C86.4004 173.578 87.3555 174.533 88.5332 174.533H109.867C111.045 174.533 112 173.578 112 172.401C112 171.222 111.045 170.267 109.867 170.267Z" fill="white"/>
<path d="M42.1375 141.114C41.7605 141.538 41.5681 142.093 41.6013 142.658C41.6345 143.224 41.8914 143.753 42.3142 144.129L61.5145 161.195C62.0868 161.702 62.8847 161.866 63.6093 161.624C64.3349 161.383 64.8749 160.773 65.0282 160.025C65.1816 159.275 64.9237 158.503 64.3524 157.996L45.1521 140.929C44.7283 140.554 44.1717 140.362 43.6062 140.396C43.0408 140.432 42.5125 140.689 42.1375 141.114Z" fill="white"/>
<path d="M109.867 204.401C110.75 204.4 111.542 203.856 111.859 203.032C112.175 202.207 111.95 201.273 111.294 200.682L89.9611 181.482C89.3976 180.954 88.5929 180.772 87.8566 181.005C87.1203 181.239 86.5685 181.853 86.4132 182.609C86.257 183.365 86.5226 184.147 87.1066 184.652L108.44 203.852C108.83 204.206 109.34 204.402 109.867 204.401Z" fill="white"/>
<path d="M33.0654 166C33.0654 167.178 34.0215 168.134 35.1992 168.134H54.3995C55.5773 168.134 56.5324 167.178 56.5324 166C56.5324 164.823 55.5773 163.866 54.3995 163.866H35.1992C34.0215 163.866 33.0654 164.823 33.0654 166Z" fill="white"/>
<path d="M84.2666 206.534V189.467C84.2666 188.288 83.3115 187.333 82.1338 187.333C80.9551 187.333 80 188.288 80 189.467V206.534C80 207.712 80.9551 208.667 82.1338 208.667C83.3115 208.667 84.2666 207.712 84.2666 206.534Z" fill="white"/>
<path d="M26.666 140.4C25.4873 140.4 24.5322 141.355 24.5322 142.533V144.667C24.5322 145.845 25.4873 146.8 26.666 146.8C27.8438 146.8 28.7989 145.845 28.7989 144.667V142.533C28.7989 141.355 27.8438 140.4 26.666 140.4Z" fill="white"/>
<path d="M33.0655 146.8H30.9326C29.7539 146.8 28.7988 147.755 28.7988 148.934C28.7988 150.111 29.7539 151.066 30.9326 151.066H33.0655C34.2442 151.066 35.1993 150.111 35.1993 148.934C35.1993 147.755 34.2442 146.8 33.0655 146.8Z" fill="white"/>
<path d="M24.5322 155.333C24.5322 156.512 25.4873 157.467 26.666 157.467C27.8438 157.467 28.7989 156.512 28.7989 155.333V153.2C28.7989 152.021 27.8438 151.066 26.666 151.066C25.4873 151.066 24.5322 152.021 24.5322 153.2V155.333Z" fill="white"/>
<path d="M22.3994 146.8H20.2656C19.0879 146.8 18.1328 147.755 18.1328 148.934C18.1328 150.111 19.0879 151.066 20.2656 151.066H22.3994C23.5772 151.066 24.5323 150.111 24.5323 148.934C24.5323 147.755 23.5772 146.8 22.3994 146.8Z" fill="white"/>
<path d="M101.334 210.8V212.934C101.334 214.112 102.289 215.067 103.467 215.067C104.646 215.067 105.601 214.112 105.601 212.934V210.8C105.601 209.623 104.646 208.667 103.467 208.667C102.289 208.667 101.334 209.623 101.334 210.8Z" fill="white"/>
<path d="M109.867 215.067H107.733C106.556 215.067 105.601 216.022 105.601 217.201C105.601 218.378 106.556 219.334 107.733 219.334H109.867C111.045 219.334 112 218.378 112 217.201C112 216.022 111.045 215.067 109.867 215.067Z" fill="white"/>
<path d="M105.601 221.467C105.601 220.289 104.646 219.333 103.467 219.333C102.289 219.333 101.334 220.289 101.334 221.467V223.6C101.334 224.779 102.289 225.734 103.467 225.734C104.646 225.734 105.601 224.779 105.601 223.6V221.467Z" fill="white"/>
<path d="M99.2002 215.067H97.0664C95.8887 215.067 94.9336 216.022 94.9336 217.201C94.9336 218.378 95.8887 219.334 97.0664 219.334H99.2002C100.379 219.334 101.334 218.378 101.334 217.201C101.334 216.022 100.379 215.067 99.2002 215.067Z" fill="white"/>
<path d="M69.333 210.8C69.333 209.623 68.3779 208.667 67.1992 208.667C66.0215 208.667 65.0654 209.623 65.0654 210.8V212.934C65.0654 214.112 66.0215 215.067 67.1992 215.067C68.3779 215.067 69.333 214.112 69.333 212.934V210.8Z" fill="white"/>
<path d="M71.4668 219.334H73.6006C74.7784 219.334 75.7334 218.378 75.7334 217.201C75.7334 216.022 74.7784 215.067 73.6006 215.067H71.4668C70.2891 215.067 69.334 216.022 69.334 217.201C69.334 218.378 70.2891 219.334 71.4668 219.334Z" fill="white"/>
<path d="M67.1992 225.734C68.3779 225.734 69.333 224.779 69.333 223.6V221.467C69.333 220.289 68.3779 219.333 67.1992 219.333C66.0215 219.333 65.0654 220.289 65.0654 221.467V223.6C65.0654 224.779 66.0215 225.734 67.1992 225.734Z" fill="white"/>
<path d="M62.9326 215.067H60.7988C59.6211 215.067 58.666 216.022 58.666 217.201C58.666 218.378 59.6211 219.334 60.7988 219.334H62.9326C64.1104 219.334 65.0655 218.378 65.0655 217.201C65.0655 216.022 64.1104 215.067 62.9326 215.067Z" fill="white"/>
<path d="M45.8662 157.467C45.8662 158.645 44.9112 159.6 43.7324 159.6C42.5547 159.6 41.5996 158.645 41.5996 157.467C41.5996 156.288 42.5547 155.333 43.7324 155.333C44.9112 155.333 45.8662 156.288 45.8662 157.467Z" fill="white"/>
<path d="M65.0655 138.267C65.0655 139.445 64.1104 140.4 62.9326 140.4C61.7539 140.4 60.7988 139.445 60.7988 138.267C60.7988 137.089 61.7539 136.134 62.9326 136.134C64.1104 136.134 65.0655 137.089 65.0655 138.267Z" fill="white"/>
<path d="M97.0664 204.401C97.0664 205.579 96.1113 206.534 94.9336 206.534C93.7549 206.534 92.7998 205.579 92.7998 204.401C92.7998 203.222 93.7549 202.267 94.9336 202.267C96.1113 202.267 97.0664 203.222 97.0664 204.401Z" fill="white"/>
<path d="M82.1338 227.867C82.1338 229.045 81.1787 230.001 80 230.001C78.8223 230.001 77.8672 229.045 77.8672 227.867C77.8672 226.689 78.8223 225.734 80 225.734C81.1787 225.734 82.1338 226.689 82.1338 227.867Z" fill="white"/>
<path d="M109.867 234.267C109.867 235.446 108.912 236.401 107.733 236.401C106.556 236.401 105.601 235.446 105.601 234.267C105.601 233.089 106.556 232.134 107.733 232.134C108.912 232.134 109.867 233.089 109.867 234.267Z" fill="white"/>
<path d="M13.8662 140.4C13.8662 141.578 12.9112 142.533 11.7324 142.533C10.5547 142.533 9.59961 141.578 9.59961 140.4C9.59961 139.222 10.5547 138.267 11.7324 138.267C12.9112 138.267 13.8662 139.222 13.8662 140.4Z" fill="white"/>
</g>
<path d="M294.533 66C293.354 66 292.399 66.9551 292.399 68.1328V70.2666C292.399 71.4444 293.354 72.3995 294.533 72.3995C295.711 72.3995 296.666 71.4444 296.666 70.2666V68.1328C296.666 66.9551 295.711 66 294.533 66Z" fill="white"/>
<path d="M300.933 72.3994H298.8C297.621 72.3994 296.666 73.3545 296.666 74.5332C296.666 75.711 297.621 76.666 298.8 76.666H300.933C302.111 76.666 303.066 75.711 303.066 74.5332C303.066 73.3545 302.111 72.3994 300.933 72.3994Z" fill="white"/>
<path d="M292.399 80.9326C292.399 82.1114 293.354 83.0664 294.533 83.0664C295.711 83.0664 296.666 82.1114 296.666 80.9326V78.7998C296.666 77.6211 295.711 76.666 294.533 76.666C293.354 76.666 292.399 77.6211 292.399 78.7998V80.9326Z" fill="white"/>
<path d="M290.267 72.3994H288.133C286.955 72.3994 286 73.3545 286 74.5332C286 75.711 286.955 76.666 288.133 76.666H290.267C291.444 76.666 292.399 75.711 292.399 74.5332C292.399 73.3545 291.444 72.3994 290.267 72.3994Z" fill="white"/>
<path d="M439.533 239C438.354 239 437.399 239.955 437.399 241.133V243.267C437.399 244.444 438.354 245.399 439.533 245.399C440.711 245.399 441.666 244.444 441.666 243.267V241.133C441.666 239.955 440.711 239 439.533 239Z" fill="white"/>
<path d="M445.933 245.399H443.8C442.621 245.399 441.666 246.354 441.666 247.533C441.666 248.711 442.621 249.666 443.8 249.666H445.933C447.111 249.666 448.066 248.711 448.066 247.533C448.066 246.354 447.111 245.399 445.933 245.399Z" fill="white"/>
<path d="M437.399 253.933C437.399 255.111 438.354 256.066 439.533 256.066C440.711 256.066 441.666 255.111 441.666 253.933V251.8C441.666 250.621 440.711 249.666 439.533 249.666C438.354 249.666 437.399 250.621 437.399 251.8V253.933Z" fill="white"/>
<path d="M435.267 245.399H433.133C431.955 245.399 431 246.354 431 247.533C431 248.711 431.955 249.666 433.133 249.666H435.267C436.444 249.666 437.399 248.711 437.399 247.533C437.399 246.354 436.444 245.399 435.267 245.399Z" fill="white"/>
<path d="M253.533 161C252.354 161 251.399 161.955 251.399 163.133V165.267C251.399 166.444 252.354 167.399 253.533 167.399C254.711 167.399 255.666 166.444 255.666 165.267V163.133C255.666 161.955 254.711 161 253.533 161Z" fill="white"/>
<path d="M259.933 167.399H257.8C256.621 167.399 255.666 168.354 255.666 169.533C255.666 170.711 256.621 171.666 257.8 171.666H259.933C261.111 171.666 262.066 170.711 262.066 169.533C262.066 168.354 261.111 167.399 259.933 167.399Z" fill="white"/>
<path d="M251.399 175.933C251.399 177.111 252.354 178.066 253.533 178.066C254.711 178.066 255.666 177.111 255.666 175.933V173.8C255.666 172.621 254.711 171.666 253.533 171.666C252.354 171.666 251.399 172.621 251.399 173.8V175.933Z" fill="white"/>
<path d="M249.267 167.399H247.133C245.955 167.399 245 168.354 245 169.533C245 170.711 245.955 171.666 247.133 171.666H249.267C250.444 171.666 251.399 170.711 251.399 169.533C251.399 168.354 250.444 167.399 249.267 167.399Z" fill="white"/>
<path d="M165.533 102C164.354 102 163.399 102.955 163.399 104.133V106.267C163.399 107.444 164.354 108.399 165.533 108.399C166.711 108.399 167.666 107.444 167.666 106.267V104.133C167.666 102.955 166.711 102 165.533 102Z" fill="white"/>
<path d="M171.933 108.399H169.8C168.621 108.399 167.666 109.354 167.666 110.533C167.666 111.711 168.621 112.666 169.8 112.666H171.933C173.111 112.666 174.066 111.711 174.066 110.533C174.066 109.354 173.111 108.399 171.933 108.399Z" fill="white"/>
<path d="M163.399 116.933C163.399 118.111 164.354 119.066 165.533 119.066C166.711 119.066 167.666 118.111 167.666 116.933V114.8C167.666 113.621 166.711 112.666 165.533 112.666C164.354 112.666 163.399 113.621 163.399 114.8V116.933Z" fill="white"/>
<path d="M161.267 108.399H159.133C157.955 108.399 157 109.354 157 110.533C157 111.711 157.955 112.666 159.133 112.666H161.267C162.444 112.666 163.399 111.711 163.399 110.533C163.399 109.354 162.444 108.399 161.267 108.399Z" fill="white"/>
<path d="M148.533 219C147.493 219 146.649 219.843 146.649 220.883V222.767C146.649 223.806 147.493 224.65 148.533 224.65C149.573 224.65 150.416 223.806 150.416 222.767V220.883C150.416 219.843 149.573 219 148.533 219Z" fill="white"/>
<path d="M154.183 224.649H152.3C151.259 224.649 150.416 225.493 150.416 226.533C150.416 227.573 151.259 228.416 152.3 228.416H154.183C155.223 228.416 156.066 227.573 156.066 226.533C156.066 225.493 155.223 224.649 154.183 224.649Z" fill="white"/>
<path d="M146.649 232.183C146.649 233.223 147.493 234.066 148.533 234.066C149.573 234.066 150.416 233.223 150.416 232.183V230.3C150.416 229.259 149.573 228.416 148.533 228.416C147.493 228.416 146.649 229.259 146.649 230.3V232.183Z" fill="white"/>
<path d="M144.767 224.649H142.883C141.843 224.649 141 225.493 141 226.533C141 227.573 141.843 228.416 142.883 228.416H144.767C145.806 228.416 146.65 227.573 146.65 226.533C146.65 225.493 145.806 224.649 144.767 224.649Z" fill="white"/>
<path d="M820.533 88C819.354 88 818.399 88.9551 818.399 90.1328V92.2666C818.399 93.4444 819.354 94.3995 820.533 94.3995C821.711 94.3995 822.666 93.4444 822.666 92.2666V90.1328C822.666 88.9551 821.711 88 820.533 88Z" fill="white"/>
<path d="M826.933 94.3994H824.8C823.621 94.3994 822.666 95.3545 822.666 96.5332C822.666 97.711 823.621 98.666 824.8 98.666H826.933C828.111 98.666 829.066 97.711 829.066 96.5332C829.066 95.3545 828.111 94.3994 826.933 94.3994Z" fill="white"/>
<path d="M818.399 102.933C818.399 104.111 819.354 105.066 820.533 105.066C821.711 105.066 822.666 104.111 822.666 102.933V100.8C822.666 99.6211 821.711 98.666 820.533 98.666C819.354 98.666 818.399 99.6211 818.399 100.8V102.933Z" fill="white"/>
<path d="M816.267 94.3994H814.133C812.955 94.3994 812 95.3545 812 96.5332C812 97.711 812.955 98.666 814.133 98.666H816.267C817.444 98.666 818.399 97.711 818.399 96.5332C818.399 95.3545 817.444 94.3994 816.267 94.3994Z" fill="white"/>
<path d="M691.533 164C690.354 164 689.399 164.955 689.399 166.133V168.267C689.399 169.444 690.354 170.399 691.533 170.399C692.711 170.399 693.666 169.444 693.666 168.267V166.133C693.666 164.955 692.711 164 691.533 164Z" fill="white"/>
<path d="M697.933 170.399H695.8C694.621 170.399 693.666 171.354 693.666 172.533C693.666 173.711 694.621 174.666 695.8 174.666H697.933C699.111 174.666 700.066 173.711 700.066 172.533C700.066 171.354 699.111 170.399 697.933 170.399Z" fill="white"/>
<path d="M689.399 178.933C689.399 180.111 690.354 181.066 691.533 181.066C692.711 181.066 693.666 180.111 693.666 178.933V176.8C693.666 175.621 692.711 174.666 691.533 174.666C690.354 174.666 689.399 175.621 689.399 176.8V178.933Z" fill="white"/>
<path d="M687.267 170.399H685.133C683.955 170.399 683 171.354 683 172.533C683 173.711 683.955 174.666 685.133 174.666H687.267C688.444 174.666 689.399 173.711 689.399 172.533C689.399 171.354 688.444 170.399 687.267 170.399Z" fill="white"/>
<path d="M1120.53 111C1119.35 111 1118.4 111.955 1118.4 113.133V115.267C1118.4 116.444 1119.35 117.399 1120.53 117.399C1121.71 117.399 1122.67 116.444 1122.67 115.267V113.133C1122.67 111.955 1121.71 111 1120.53 111Z" fill="white"/>
<path d="M1126.93 117.399H1124.8C1123.62 117.399 1122.67 118.354 1122.67 119.533C1122.67 120.711 1123.62 121.666 1124.8 121.666H1126.93C1128.11 121.666 1129.07 120.711 1129.07 119.533C1129.07 118.354 1128.11 117.399 1126.93 117.399Z" fill="white"/>
<path d="M1118.4 125.933C1118.4 127.111 1119.35 128.066 1120.53 128.066C1121.71 128.066 1122.67 127.111 1122.67 125.933V123.8C1122.67 122.621 1121.71 121.666 1120.53 121.666C1119.35 121.666 1118.4 122.621 1118.4 123.8V125.933Z" fill="white"/>
<path d="M1116.27 117.399H1114.13C1112.96 117.399 1112 118.354 1112 119.533C1112 120.711 1112.96 121.666 1114.13 121.666H1116.27C1117.44 121.666 1118.4 120.711 1118.4 119.533C1118.4 118.354 1117.44 117.399 1116.27 117.399Z" fill="white"/>
<path d="M1314.53 15C1313.35 15 1312.4 15.9551 1312.4 17.1328V19.2666C1312.4 20.4444 1313.35 21.3995 1314.53 21.3995C1315.71 21.3995 1316.67 20.4444 1316.67 19.2666V17.1328C1316.67 15.9551 1315.71 15 1314.53 15Z" fill="white"/>
<path d="M1320.93 21.3994H1318.8C1317.62 21.3994 1316.67 22.3545 1316.67 23.5332C1316.67 24.711 1317.62 25.666 1318.8 25.666H1320.93C1322.11 25.666 1323.07 24.711 1323.07 23.5332C1323.07 22.3545 1322.11 21.3994 1320.93 21.3994Z" fill="white"/>
<path d="M1312.4 29.9326C1312.4 31.1114 1313.35 32.0664 1314.53 32.0664C1315.71 32.0664 1316.67 31.1114 1316.67 29.9326V27.7998C1316.67 26.6211 1315.71 25.666 1314.53 25.666C1313.35 25.666 1312.4 26.6211 1312.4 27.7998V29.9326Z" fill="white"/>
<path d="M1310.27 21.3994H1308.13C1306.96 21.3994 1306 22.3545 1306 23.5332C1306 24.711 1306.96 25.666 1308.13 25.666H1310.27C1311.44 25.666 1312.4 24.711 1312.4 23.5332C1312.4 22.3545 1311.44 21.3994 1310.27 21.3994Z" fill="white"/>
<path d="M1423.53 234C1422.35 234 1421.4 234.955 1421.4 236.133V238.267C1421.4 239.444 1422.35 240.399 1423.53 240.399C1424.71 240.399 1425.67 239.444 1425.67 238.267V236.133C1425.67 234.955 1424.71 234 1423.53 234Z" fill="white"/>
<path d="M1429.93 240.399H1427.8C1426.62 240.399 1425.67 241.354 1425.67 242.533C1425.67 243.711 1426.62 244.666 1427.8 244.666H1429.93C1431.11 244.666 1432.07 243.711 1432.07 242.533C1432.07 241.354 1431.11 240.399 1429.93 240.399Z" fill="white"/>
<path d="M1421.4 248.933C1421.4 250.111 1422.35 251.066 1423.53 251.066C1424.71 251.066 1425.67 250.111 1425.67 248.933V246.8C1425.67 245.621 1424.71 244.666 1423.53 244.666C1422.35 244.666 1421.4 245.621 1421.4 246.8V248.933Z" fill="white"/>
<path d="M1419.27 240.399H1417.13C1415.96 240.399 1415 241.354 1415 242.533C1415 243.711 1415.96 244.666 1417.13 244.666H1419.27C1420.44 244.666 1421.4 243.711 1421.4 242.533C1421.4 241.354 1420.44 240.399 1419.27 240.399Z" fill="white"/>
<path d="M1027.53 58C1026.35 58 1025.4 58.9551 1025.4 60.1328V62.2666C1025.4 63.4444 1026.35 64.3995 1027.53 64.3995C1028.71 64.3995 1029.67 63.4444 1029.67 62.2666V60.1328C1029.67 58.9551 1028.71 58 1027.53 58Z" fill="white"/>
<path d="M1033.93 64.3994H1031.8C1030.62 64.3994 1029.67 65.3545 1029.67 66.5332C1029.67 67.711 1030.62 68.666 1031.8 68.666H1033.93C1035.11 68.666 1036.07 67.711 1036.07 66.5332C1036.07 65.3545 1035.11 64.3994 1033.93 64.3994Z" fill="white"/>
<path d="M1025.4 72.9326C1025.4 74.1114 1026.35 75.0664 1027.53 75.0664C1028.71 75.0664 1029.67 74.1114 1029.67 72.9326V70.7998C1029.67 69.6211 1028.71 68.666 1027.53 68.666C1026.35 68.666 1025.4 69.6211 1025.4 70.7998V72.9326Z" fill="white"/>
<path d="M1023.27 64.3994H1021.13C1019.96 64.3994 1019 65.3545 1019 66.5332C1019 67.711 1019.96 68.666 1021.13 68.666H1023.27C1024.44 68.666 1025.4 67.711 1025.4 66.5332C1025.4 65.3545 1024.44 64.3994 1023.27 64.3994Z" fill="white"/>
<path d="M976.533 262C975.354 262 974.399 262.955 974.399 264.133V266.267C974.399 267.444 975.354 268.399 976.533 268.399C977.711 268.399 978.666 267.444 978.666 266.267V264.133C978.666 262.955 977.711 262 976.533 262Z" fill="white"/>
<path d="M982.933 268.399H980.8C979.621 268.399 978.666 269.354 978.666 270.533C978.666 271.711 979.621 272.666 980.8 272.666H982.933C984.111 272.666 985.066 271.711 985.066 270.533C985.066 269.354 984.111 268.399 982.933 268.399Z" fill="white"/>
<path d="M974.399 276.933C974.399 278.111 975.354 279.066 976.533 279.066C977.711 279.066 978.666 278.111 978.666 276.933V274.8C978.666 273.621 977.711 272.666 976.533 272.666C975.354 272.666 974.399 273.621 974.399 274.8V276.933Z" fill="white"/>
<path d="M972.267 268.399H970.133C968.955 268.399 968 269.354 968 270.533C968 271.711 968.955 272.666 970.133 272.666H972.267C973.444 272.666 974.399 271.711 974.399 270.533C974.399 269.354 973.444 268.399 972.267 268.399Z" fill="white"/>
<defs>
<clipPath id="clip0">
<rect x="-16" y="134" width="128" height="128" fill="white"/>
</clipPath>
</defs>
</svg>
