<svg width="590" height="96" viewBox="0 0 590 96" fill="none" xmlns="http://www.w3.org/2000/svg">
<g clip-path="url(#clip0)">
<rect width="590" height="96" fill="white"/>
<g opacity="0.2">
<g clip-path="url(#clip1)">
<path d="M589.422 95.4964L542.235 48.3094C541.272 47.3465 540.731 46.0406 540.731 44.6794C540.731 43.3176 541.272 42.0117 542.235 41.0494L544.047 39.2348C545.01 38.2719 546.315 37.7308 547.677 37.7308C549.038 37.7308 550.344 38.2719 551.307 39.2348L598.497 86.4218C599.459 87.3847 600 88.6901 600 90.0518C600 91.413 599.459 92.7189 598.497 93.6818L596.682 95.4964C595.719 96.4593 594.413 96.9998 593.052 96.9998C591.69 96.9998 590.384 96.4593 589.422 95.4964ZM549.494 41.0465C549.013 40.5654 548.36 40.2945 547.679 40.2945C546.998 40.2945 546.345 40.5654 545.864 41.0465L544.047 42.8641C543.565 43.3453 543.295 43.9985 543.295 44.6794C543.295 45.3603 543.565 46.0129 544.047 46.4947L552.774 55.2121C552.825 55.1246 552.886 55.0441 552.956 54.9712L558.51 50.0647L549.494 41.0465ZM596.682 91.8671C597.163 91.3854 597.434 90.7327 597.434 90.0518C597.434 89.3709 597.163 88.7177 596.682 88.2365L560.328 51.8847L554.65 56.8958C554.608 56.9228 554.565 56.948 554.521 56.9704L591.237 93.6818C592.252 94.6517 593.852 94.6517 594.867 93.6818L596.682 91.8671Z" fill="#3D4252"/>
<path d="M529.819 24.9866L540.59 35.7757C540.924 36.0982 541.058 36.5752 540.941 37.0241C540.823 37.4729 540.472 37.823 540.024 37.9405C539.575 38.058 539.098 37.9241 538.776 37.5904L528.004 26.8013C527.517 26.2979 527.524 25.4972 528.019 25.0025C528.514 24.5073 529.315 24.5002 529.819 24.9866Z" fill="#3D4252"/>
<path d="M544.816 34.1168V21.2836C544.816 20.5745 545.391 20 546.099 20C546.808 20 547.383 20.5745 547.383 21.2836V34.1168C547.383 34.8253 546.808 35.3999 546.099 35.3999C545.391 35.3999 544.816 34.8253 544.816 34.1168Z" fill="#3D4252"/>
<path d="M524.283 41.8167H537.116C537.825 41.8167 538.399 42.3912 538.399 43.1003C538.399 43.8088 537.825 44.3833 537.116 44.3833H524.283C523.574 44.3833 523 43.8088 523 43.1003C523 42.3912 523.574 41.8167 524.283 41.8167Z" fill="#3D4252"/>
<path d="M565.027 24.2797C565.254 24.5346 565.369 24.8683 565.349 25.2084C565.329 25.5486 565.175 25.867 564.92 26.0932L553.37 36.3597C553.026 36.6646 552.546 36.7633 552.11 36.6176C551.674 36.4725 551.349 36.1054 551.257 35.6554C551.164 35.2048 551.319 34.7401 551.663 34.4352L563.213 24.168C563.468 23.9424 563.803 23.8273 564.143 23.8479C564.483 23.869 564.801 24.0241 565.027 24.2797Z" fill="#3D4252"/>
<path d="M524.283 62.3504C523.752 62.3498 523.276 62.0226 523.085 61.5268C522.895 61.031 523.03 60.4688 523.425 60.1134L536.258 48.5632C536.597 48.2459 537.081 48.1361 537.524 48.2765C537.967 48.4175 538.299 48.7864 538.392 49.2411C538.486 49.6964 538.327 50.1664 537.975 50.4701L525.142 62.0203C524.907 62.2335 524.6 62.351 524.283 62.3504Z" fill="#3D4252"/>
<path d="M570.484 39.25C570.484 39.9585 569.909 40.5336 569.201 40.5336H557.651C556.942 40.5336 556.368 39.9585 556.368 39.25C556.368 38.5415 556.942 37.9664 557.651 37.9664H569.201C569.909 37.9664 570.484 38.5415 570.484 39.25Z" fill="#3D4252"/>
<path d="M539.683 63.6336V53.3671C539.683 52.658 540.258 52.0834 540.966 52.0834C541.675 52.0834 542.25 52.658 542.25 53.3671V63.6336C542.25 64.3427 541.675 64.9172 540.966 64.9172C540.258 64.9172 539.683 64.3427 539.683 63.6336Z" fill="#3D4252"/>
<path d="M574.334 23.8503C575.043 23.8503 575.617 24.4249 575.617 25.1334V26.417C575.617 27.1255 575.043 27.7 574.334 27.7C573.625 27.7 573.051 27.1255 573.051 26.417V25.1334C573.051 24.4249 573.625 23.8503 574.334 23.8503Z" fill="#3D4252"/>
<path d="M570.484 27.7H571.767C572.476 27.7 573.051 28.2746 573.051 28.9836C573.051 29.6921 572.476 30.2667 571.767 30.2667H570.484C569.775 30.2667 569.201 29.6921 569.201 28.9836C569.201 28.2746 569.775 27.7 570.484 27.7Z" fill="#3D4252"/>
<path d="M575.617 32.8332C575.617 33.5423 575.043 34.1169 574.334 34.1169C573.625 34.1169 573.051 33.5423 573.051 32.8332V31.5502C573.051 30.8411 573.625 30.2666 574.334 30.2666C575.043 30.2666 575.617 30.8411 575.617 31.5502V32.8332Z" fill="#3D4252"/>
<path d="M576.9 27.7H578.184C578.892 27.7 579.467 28.2746 579.467 28.9836C579.467 29.6921 578.892 30.2667 578.184 30.2667H576.9C576.192 30.2667 575.617 29.6921 575.617 28.9836C575.617 28.2746 576.192 27.7 576.9 27.7Z" fill="#3D4252"/>
<path d="M529.416 66.2V67.4836C529.416 68.1921 528.841 68.7667 528.133 68.7667C527.424 68.7667 526.849 68.1921 526.849 67.4836V66.2C526.849 65.4915 527.424 64.917 528.133 64.917C528.841 64.917 529.416 65.4915 529.416 66.2Z" fill="#3D4252"/>
<path d="M524.283 68.7666H525.567C526.275 68.7666 526.85 69.3411 526.85 70.0502C526.85 70.7587 526.275 71.3332 525.567 71.3332H524.283C523.574 71.3332 523 70.7587 523 70.0502C523 69.3411 523.574 68.7666 524.283 68.7666Z" fill="#3D4252"/>
<path d="M526.849 72.6171C526.849 71.908 527.424 71.3335 528.133 71.3335C528.841 71.3335 529.416 71.908 529.416 72.6171V73.9001C529.416 74.6092 528.841 75.1838 528.133 75.1838C527.424 75.1838 526.849 74.6092 526.849 73.9001V72.6171Z" fill="#3D4252"/>
<path d="M530.7 68.7666H531.984C532.692 68.7666 533.267 69.3411 533.267 70.0502C533.267 70.7587 532.692 71.3332 531.984 71.3332H530.7C529.991 71.3332 529.416 70.7587 529.416 70.0502C529.416 69.3411 529.991 68.7666 530.7 68.7666Z" fill="#3D4252"/>
<path d="M548.667 66.2002C548.667 65.4917 549.242 64.9172 549.951 64.9172C550.659 64.9172 551.234 65.4917 551.234 66.2002V67.4838C551.234 68.1923 550.659 68.7668 549.951 68.7668C549.242 68.7668 548.667 68.1923 548.667 67.4838V66.2002Z" fill="#3D4252"/>
<path d="M547.383 71.3334H546.099C545.391 71.3334 544.816 70.7589 544.816 70.0504C544.816 69.3413 545.391 68.7668 546.099 68.7668H547.383C548.091 68.7668 548.666 69.3413 548.666 70.0504C548.666 70.7589 548.091 71.3334 547.383 71.3334Z" fill="#3D4252"/>
<path d="M549.951 75.1837C549.242 75.1837 548.667 74.6092 548.667 73.9001V72.6171C548.667 71.908 549.242 71.3334 549.951 71.3334C550.659 71.3334 551.234 71.908 551.234 72.6171V73.9001C551.234 74.6092 550.659 75.1837 549.951 75.1837Z" fill="#3D4252"/>
<path d="M552.517 68.7668H553.801C554.509 68.7668 555.084 69.3413 555.084 70.0504C555.084 70.7589 554.509 71.3334 553.801 71.3334H552.517C551.809 71.3334 551.234 70.7589 551.234 70.0504C551.234 69.3413 551.809 68.7668 552.517 68.7668Z" fill="#3D4252"/>
<path d="M562.784 34.1167C562.784 34.8252 563.358 35.3998 564.068 35.3998C564.776 35.3998 565.351 34.8252 565.351 34.1167C565.351 33.4077 564.776 32.8331 564.068 32.8331C563.358 32.8331 562.784 33.4077 562.784 34.1167Z" fill="#3D4252"/>
<path d="M551.234 22.5667C551.234 23.2757 551.809 23.8503 552.517 23.8503C553.226 23.8503 553.801 23.2757 553.801 22.5667C553.801 21.8582 553.226 21.2836 552.517 21.2836C551.809 21.2836 551.234 21.8582 551.234 22.5667Z" fill="#3D4252"/>
<path d="M531.983 62.3505C531.983 63.059 532.558 63.6335 533.266 63.6335C533.975 63.6335 534.55 63.059 534.55 62.3505C534.55 61.6414 533.975 61.0669 533.266 61.0669C532.558 61.0669 531.983 61.6414 531.983 62.3505Z" fill="#3D4252"/>
<path d="M540.967 76.4667C540.967 77.1758 541.541 77.7503 542.25 77.7503C542.959 77.7503 543.533 77.1758 543.533 76.4667C543.533 75.7582 542.959 75.1837 542.25 75.1837C541.541 75.1837 540.967 75.7582 540.967 76.4667Z" fill="#3D4252"/>
<path d="M524.283 80.3169C524.283 81.026 524.858 81.6005 525.567 81.6005C526.275 81.6005 526.85 81.026 526.85 80.3169C526.85 79.6084 526.275 79.0339 525.567 79.0339C524.858 79.0339 524.283 79.6084 524.283 80.3169Z" fill="#3D4252"/>
<path d="M582.034 23.8503C582.034 24.5588 582.608 25.1333 583.318 25.1333C584.026 25.1333 584.601 24.5588 584.601 23.8503C584.601 23.1412 584.026 22.5667 583.318 22.5667C582.608 22.5667 582.034 23.1412 582.034 23.8503Z" fill="#3D4252"/>
</g>
</g>
<g opacity="0.2">
<path d="M476.416 15.283V16.5666C476.416 17.2751 475.841 17.8497 475.133 17.8497C474.424 17.8497 473.849 17.2751 473.849 16.5666V15.283C473.849 14.5745 474.424 14 475.133 14C475.841 14 476.416 14.5745 476.416 15.283Z" fill="#3D4252"/>
<path d="M471.283 17.8496H472.567C473.275 17.8496 473.85 18.4242 473.85 19.1332C473.85 19.8417 473.275 20.4163 472.567 20.4163H471.283C470.574 20.4163 470 19.8417 470 19.1332C470 18.4242 470.574 17.8496 471.283 17.8496Z" fill="#3D4252"/>
<path d="M473.849 21.7001C473.849 20.991 474.424 20.4165 475.133 20.4165C475.841 20.4165 476.416 20.991 476.416 21.7001V22.9831C476.416 23.6922 475.841 24.2668 475.133 24.2668C474.424 24.2668 473.849 23.6922 473.849 22.9831V21.7001Z" fill="#3D4252"/>
<path d="M477.7 17.8496H478.984C479.692 17.8496 480.267 18.4242 480.267 19.1332C480.267 19.8417 479.692 20.4163 478.984 20.4163H477.7C476.991 20.4163 476.416 19.8417 476.416 19.1332C476.416 18.4242 476.991 17.8496 477.7 17.8496Z" fill="#3D4252"/>
</g>
<g opacity="0.2">
<path d="M401.416 70.283V71.5666C401.416 72.2751 400.841 72.8497 400.133 72.8497C399.424 72.8497 398.849 72.2751 398.849 71.5666V70.283C398.849 69.5745 399.424 69 400.133 69C400.841 69 401.416 69.5745 401.416 70.283Z" fill="#3D4252"/>
<path d="M396.283 72.8496H397.567C398.275 72.8496 398.85 73.4242 398.85 74.1332C398.85 74.8417 398.275 75.4163 397.567 75.4163H396.283C395.574 75.4163 395 74.8417 395 74.1332C395 73.4242 395.574 72.8496 396.283 72.8496Z" fill="#3D4252"/>
<path d="M398.849 76.7001C398.849 75.991 399.424 75.4165 400.133 75.4165C400.841 75.4165 401.416 75.991 401.416 76.7001V77.9831C401.416 78.6922 400.841 79.2668 400.133 79.2668C399.424 79.2668 398.849 78.6922 398.849 77.9831V76.7001Z" fill="#3D4252"/>
<path d="M402.7 72.8496H403.984C404.692 72.8496 405.267 73.4242 405.267 74.1332C405.267 74.8417 404.692 75.4163 403.984 75.4163H402.7C401.991 75.4163 401.416 74.8417 401.416 74.1332C401.416 73.4242 401.991 72.8496 402.7 72.8496Z" fill="#3D4252"/>
</g>
<g opacity="0.2">
<path d="M162.416 23.283V24.5666C162.416 25.2751 161.841 25.8497 161.133 25.8497C160.424 25.8497 159.849 25.2751 159.849 24.5666V23.283C159.849 22.5745 160.424 22 161.133 22C161.841 22 162.416 22.5745 162.416 23.283Z" fill="#3D4252"/>
<path d="M157.283 25.8496H158.567C159.275 25.8496 159.85 26.4242 159.85 27.1332C159.85 27.8417 159.275 28.4163 158.567 28.4163H157.283C156.574 28.4163 156 27.8417 156 27.1332C156 26.4242 156.574 25.8496 157.283 25.8496Z" fill="#3D4252"/>
<path d="M159.849 29.7001C159.849 28.991 160.424 28.4165 161.133 28.4165C161.841 28.4165 162.416 28.991 162.416 29.7001V30.9831C162.416 31.6922 161.841 32.2668 161.133 32.2668C160.424 32.2668 159.849 31.6922 159.849 30.9831V29.7001Z" fill="#3D4252"/>
<path d="M163.7 25.8496H164.984C165.692 25.8496 166.267 26.4242 166.267 27.1332C166.267 27.8417 165.692 28.4163 164.984 28.4163H163.7C162.991 28.4163 162.416 27.8417 162.416 27.1332C162.416 26.4242 162.991 25.8496 163.7 25.8496Z" fill="#3D4252"/>
</g>
<g opacity="0.2">
<path d="M33.416 91.283V92.5666C33.416 93.2751 32.8415 93.8497 32.133 93.8497C31.4239 93.8497 30.8494 93.2751 30.8494 92.5666V91.283C30.8494 90.5745 31.4239 90 32.133 90C32.8415 90 33.416 90.5745 33.416 91.283Z" fill="#3D4252"/>
<path d="M28.283 93.8496H29.5666C30.2751 93.8496 30.8496 94.4242 30.8496 95.1332C30.8496 95.8417 30.2751 96.4163 29.5666 96.4163H28.283C27.5745 96.4163 26.9999 95.8417 26.9999 95.1332C26.9999 94.4242 27.5745 93.8496 28.283 93.8496Z" fill="#3D4252"/>
<path d="M34.7 93.8496H35.9836C36.6921 93.8496 37.2666 94.4242 37.2666 95.1332C37.2666 95.8417 36.6921 96.4163 35.9836 96.4163H34.7C33.9909 96.4163 33.4163 95.8417 33.4163 95.1332C33.4163 94.4242 33.9909 93.8496 34.7 93.8496Z" fill="#3D4252"/>
</g>
<g opacity="0.2">
<path d="M10.283 -1.15039H11.5666C12.2751 -1.15039 12.8496 -0.575848 12.8496 0.133224C12.8496 0.841708 12.2751 1.41625 11.5666 1.41625H10.283C9.57448 1.41625 8.99994 0.841708 8.99994 0.133224C8.99994 -0.575848 9.57448 -1.15039 10.283 -1.15039Z" fill="#3D4252"/>
<path d="M12.8494 2.70012C12.8494 1.99105 13.4239 1.4165 14.133 1.4165C14.8415 1.4165 15.416 1.99105 15.416 2.70012V3.98315C15.416 4.69222 14.8415 5.26676 14.133 5.26676C13.4239 5.26676 12.8494 4.69222 12.8494 3.98315V2.70012Z" fill="#3D4252"/>
<path d="M16.7 -1.15039H17.9836C18.6921 -1.15039 19.2666 -0.575848 19.2666 0.133224C19.2666 0.841708 18.6921 1.41625 17.9836 1.41625H16.7C15.9909 1.41625 15.4163 0.841708 15.4163 0.133224C15.4163 -0.575848 15.9909 -1.15039 16.7 -1.15039Z" fill="#3D4252"/>
</g>
</g>
<defs>
<clipPath id="clip0">
<rect width="590" height="96" fill="white"/>
</clipPath>
<clipPath id="clip1">
<rect width="77" height="77" transform="matrix(-1 0 0 1 600 20)" fill="white"/>
</clipPath>
</defs>
</svg>
