<svg width="94" height="94" viewBox="0 0 94 94" fill="none" xmlns="http://www.w3.org/2000/svg">
<path d="M34.4979 19.9377H38.1032C39.3305 19.9377 40.4044 20.9358 40.4044 22.2409V90.1844C40.4044 91.4127 39.4072 92.4876 38.1032 92.4876H3.8149C2.58758 92.4876 1.51367 91.4895 1.51367 90.1844V22.2409C1.51367 21.0126 2.51087 19.9377 3.8149 19.9377H7.42016" stroke="#3d4252" stroke-width="2.41935" stroke-miterlimit="10" stroke-linecap="round" stroke-linejoin="round"/>
<path d="M34.4977 39.8984H7.41992V52.6426H34.4977V39.8984Z" stroke="#3d4252" stroke-width="2.41935" stroke-miterlimit="10" stroke-linecap="round" stroke-linejoin="round"/>
<path d="M7.41992 29.6877H34.4977" stroke="#3d4252" stroke-width="2.41935" stroke-miterlimit="10" stroke-linecap="round" stroke-linejoin="round"/>
<path d="M7.4209 10.8785V6.96314C7.4209 3.96902 9.87552 1.51233 12.8671 1.51233H29.0524C32.044 1.51233 34.4986 3.96902 34.4986 6.96314V10.8785" stroke="#3d4252" stroke-width="2.41935" stroke-miterlimit="10" stroke-linecap="round" stroke-linejoin="round"/>
<path d="M34.498 10.8784V25.2349" stroke="#3d4252" stroke-width="2.41935" stroke-miterlimit="10" stroke-linecap="round" stroke-linejoin="round"/>
<path d="M7.4209 25.2356V10.8792" stroke="#3d4252" stroke-width="2.41935" stroke-miterlimit="10" stroke-linecap="round" stroke-linejoin="round"/>
<path d="M12.4834 12.338H29.5125" stroke="#3d4252" stroke-width="2.41935" stroke-miterlimit="10" stroke-linecap="round" stroke-linejoin="round"/>
<path d="M15.8584 18.0182H26.138" stroke="#3d4252" stroke-width="2.41935" stroke-miterlimit="10" stroke-linecap="round" stroke-linejoin="round"/>
<path d="M48.3819 81.8928H40.4043V34.3708H48.3819C49.9928 34.3708 51.2968 35.6759 51.2968 37.2881V78.9755C51.2968 80.5877 49.9928 81.8928 48.3819 81.8928Z" stroke="#3d4252" stroke-width="2.41935" stroke-miterlimit="10" stroke-linecap="round" stroke-linejoin="round"/>
<path d="M45.8506 46.808V69.4558" stroke="#3d4252" stroke-width="2.41935" stroke-miterlimit="10" stroke-linecap="round" stroke-linejoin="round"/>
<path d="M11.8691 66.0779H14.7842" stroke="#3d4252" stroke-width="2.41935" stroke-miterlimit="10" stroke-linecap="round" stroke-linejoin="round"/>
<path d="M19.54 66.0779H22.4551" stroke="#3d4252" stroke-width="2.41935" stroke-miterlimit="10" stroke-linecap="round" stroke-linejoin="round"/>
<path d="M27.2109 66.0779H30.126" stroke="#3d4252" stroke-width="2.41935" stroke-miterlimit="10" stroke-linecap="round" stroke-linejoin="round"/>
<path d="M11.8691 72.9106H14.7842" stroke="#3d4252" stroke-width="2.41935" stroke-miterlimit="10" stroke-linecap="round" stroke-linejoin="round"/>
<path d="M19.54 72.9106H22.4551" stroke="#3d4252" stroke-width="2.41935" stroke-miterlimit="10" stroke-linecap="round" stroke-linejoin="round"/>
<path d="M27.2109 72.9106H30.126" stroke="#3d4252" stroke-width="2.41935" stroke-miterlimit="10" stroke-linecap="round" stroke-linejoin="round"/>
<path d="M11.8691 79.7433H14.7842" stroke="#3d4252" stroke-width="2.41935" stroke-miterlimit="10" stroke-linecap="round" stroke-linejoin="round"/>
<path d="M19.54 79.7433H22.4551" stroke="#3d4252" stroke-width="2.41935" stroke-miterlimit="10" stroke-linecap="round" stroke-linejoin="round"/>
<path d="M27.2109 79.7433H30.126" stroke="#3d4252" stroke-width="2.41935" stroke-miterlimit="10" stroke-linecap="round" stroke-linejoin="round"/>
<path d="M92.4886 78.8988V37.3649C92.4886 35.7527 91.1845 34.3708 89.4969 34.3708H65.7943C64.1834 34.3708 62.8027 35.6759 62.8027 37.3649V78.8988C62.8027 80.511 64.1067 81.8928 65.7943 81.8928H89.4969C91.1845 81.8928 92.4886 80.5878 92.4886 78.8988Z" stroke="#3d4252" stroke-width="2.41935" stroke-miterlimit="10" stroke-linecap="round" stroke-linejoin="round"/>
<path d="M68.8633 34.3708V81.8928" stroke="#3d4252" stroke-width="2.41935" stroke-miterlimit="10" stroke-linecap="round" stroke-linejoin="round"/>
<path d="M74.3857 39.0541V77.2099" stroke="#3d4252" stroke-width="2.41935" stroke-miterlimit="10" stroke-linecap="round" stroke-linejoin="round"/>
</svg>
