<svg width="101" height="100" viewBox="0 0 101 100" fill="none" xmlns="http://www.w3.org/2000/svg">
<path d="M27.2675 25.438L24.8687 26.7974C15.1935 32.2347 7.35742 46.9473 4.87865 57.8219C2.9596 66.3776 2 71.895 2 84.2888" stroke="#344154" stroke-width="2.37096" stroke-miterlimit="10" stroke-linecap="round" stroke-linejoin="round"/>
<path d="M27.2673 49.506C27.2673 52.1447 30.2257 53.6639 32.3847 52.1446C38.7815 47.427 42.3797 42.5494 45.0184 39.0311C46.6176 36.8722 49.7361 36.4724 51.8151 38.2315C51.895 38.3115 51.895 38.3115 51.9749 38.3915C54.3737 40.5504 54.1339 42.6294 51.9749 45.9078C49.9759 48.8663 47.4172 52.1447 45.818 54.7034C44.2188 57.2621 42.9395 59.9807 41.7401 62.8593C38.1419 71.8149 32.3847 75.6529 28.3067 77.3321C25.5081 78.4515 23.749 81.2501 23.749 84.2087" stroke="#344154" stroke-width="2.37096" stroke-miterlimit="10" stroke-linecap="round" stroke-linejoin="round"/>
<path d="M46.2423 62.0198L94.5049 62.0198C97.0716 62.0198 99.2002 59.9538 99.2002 57.3244L99.2002 23.0172C99.2002 20.4504 97.1342 18.3219 94.5049 18.3219L31.9629 18.3219C29.3961 18.3219 27.2676 20.3878 27.2676 23.0172L27.2676 51.8779" stroke="#344154" stroke-width="2.37096" stroke-miterlimit="10" stroke-linecap="round" stroke-linejoin="round"/>
<path d="M92.4565 56.9236C93.1113 56.9236 93.642 56.3929 93.642 55.7382C93.642 55.0834 93.1113 54.5527 92.4565 54.5527V56.9236ZM66.6992 54.5527C66.0445 54.5527 65.5137 55.0834 65.5137 55.7382C65.5137 56.3929 66.0445 56.9236 66.6992 56.9236V54.5527ZM92.4565 54.5527H66.6992V56.9236H92.4565V54.5527Z" fill="#344154"/>
<path d="M99.2002 26.2777L26.1086 26.2777" stroke="#344154" stroke-width="2.37096" stroke-miterlimit="10" stroke-linecap="round" stroke-linejoin="round"/>
<path d="M100 35.0735L26.9084 35.0735" stroke="#344154" stroke-width="2.37096" stroke-miterlimit="10" stroke-linejoin="round"/>
</svg>
