<svg width="89" height="76" viewBox="0 0 89 76" fill="none" xmlns="http://www.w3.org/2000/svg">
<path d="M64.9173 44.6441L71.0381 47.0803L85.7835 10.0333L79.6627 7.59711L64.9173 44.6441Z" stroke="#3d4252" stroke-width="2.17549" stroke-miterlimit="10" stroke-linecap="round" stroke-linejoin="round"/>
<path d="M62.6609 56.056L64.8107 56.9575C65.9203 57.3736 67.1685 56.8882 67.5846 55.7786L71.0521 47.11L64.88 44.6827L61.4126 53.3514C60.9965 54.3916 61.5513 55.6399 62.6609 56.056Z" stroke="#3d4252" stroke-width="2.17549" stroke-miterlimit="10" stroke-linecap="round" stroke-linejoin="round"/>
<path d="M63.7018 56.4716L61.2744 62.6441" stroke="#3d4252" stroke-width="2.17549" stroke-miterlimit="10" stroke-linecap="round" stroke-linejoin="round"/>
<path d="M86.2398 3.07496L84.0899 2.1734C82.9803 1.75729 81.7319 2.24276 81.3158 3.35238L79.6514 7.51348L85.8237 9.94079L87.4881 5.77969C87.9042 4.73942 87.3494 3.49107 86.2398 3.07496Z" stroke="#3d4252" stroke-width="2.17549" stroke-miterlimit="10" stroke-linecap="round" stroke-linejoin="round"/>
<path d="M72.5782 66.8042H32.7041" stroke="#3d4252" stroke-width="2.17549" stroke-miterlimit="10" stroke-linecap="round" stroke-linejoin="round"/>
<path d="M68.175 26.3758C68.7757 26.3758 69.2627 25.8888 69.2627 25.2881C69.2627 24.6873 68.7757 24.2003 68.175 24.2003V26.3758ZM80.7463 34.0696C80.7463 33.4689 80.2593 32.9819 79.6586 32.9819C79.0578 32.9819 78.5708 33.4689 78.5708 34.0696H80.7463ZM6.02861 26.3758H68.175V24.2003H6.02861V26.3758ZM78.5708 34.0696V69.8714H80.7463V34.0696H78.5708ZM75.6056 72.8367H6.02861V75.0121H75.6056V72.8367ZM3.06333 69.8714V29.3411H0.887839V69.8714H3.06333ZM6.02861 72.8367C4.39093 72.8367 3.06333 71.509 3.06333 69.8714H0.887839C0.887839 72.7105 3.18944 75.0121 6.02861 75.0121V72.8367ZM78.5708 69.8714C78.5708 71.509 77.2432 72.8367 75.6056 72.8367V75.0121C78.4447 75.0121 80.7463 72.7105 80.7463 69.8714H78.5708ZM6.02861 24.2003C3.18944 24.2003 0.887839 26.5019 0.887839 29.3411H3.06333C3.06333 27.7034 4.39093 26.3758 6.02861 26.3758V24.2003Z" fill="#3d4252"/>
<path d="M76.5312 43.7633C75.9305 43.7633 75.4435 44.2503 75.4435 44.8511C75.4435 45.4518 75.9305 45.9388 76.5312 45.9388V43.7633ZM79.66 43.7633H76.5312V45.9388H79.66V43.7633Z" fill="#3d4252"/>
<path d="M1.98145 34.5735V33.4857H0.893699V34.5735H1.98145ZM64.496 35.6612C65.0968 35.6612 65.5838 35.1742 65.5838 34.5735C65.5838 33.9727 65.0968 33.4857 64.496 33.4857V35.6612ZM60.3353 45.9388C60.936 45.9388 61.423 45.4518 61.423 44.851C61.423 44.2503 60.936 43.7633 60.3353 43.7633V45.9388ZM1.98145 44.851H0.893699V45.9388H1.98145V44.851ZM1.98145 35.6612H64.496V33.4857H1.98145V35.6612ZM60.3353 43.7633H1.98145V45.9388H60.3353V43.7633ZM3.06919 44.851V34.5735H0.893699V44.851H3.06919Z" fill="#3d4252"/>
</svg>
