<svg xmlns="http://www.w3.org/2000/svg" xmlns:xlink="http://www.w3.org/1999/xlink" width="133" height="27" viewBox="0 0 133 27">
    <defs>
        <path id="a" d="M.212.166h8.154v9.796H.212z"/>
        <path id="c" d="M0 .048h8.001v9.62H0z"/>
    </defs>
    <g fill="none" fill-rule="evenodd">
        <path fill="#010202" d="M26.785 9.002V9v.002zM115.624 15.524c.172 0 .324-.077.516-.33l4.277-5.772v5.539c0 .291.229.563.534.563h.898a.576.576 0 0 0 .573-.563V6.37c0-.253-.248-.487-.573-.487h-.534c-.268 0-.554.059-.707.273l-4.373 5.908V6.37a.494.494 0 0 0-.497-.486h-.973c-.306 0-.535.234-.535.486v8.59c0 .292.229.564.535.564h.859z"/>
        <g transform="translate(123.757 5.562)">
            <mask id="b" fill="#fff">
                <use xlink:href="#a"/>
            </mask>
            <path fill="#010202" d="M5.368 1.916c.363 0 .687.039.993.116v3.573c-.306.062-.695.12-1.07.12-1.68 0-2.558-.72-2.558-1.846 0-1.166.955-1.963 2.635-1.963M.728 9.962h1.107c.21 0 .325-.039.478-.214l2.206-2.396c.242.026.49.045.754.045.445 0 .79-.046 1.088-.107v2.09c0 .31.23.582.516.582h.992c.249 0 .497-.272.497-.583v-8.3c0-.252-.095-.504-.363-.601C7.278.225 6.227.166 5.368.166 2.408.166.823 1.876.823 3.84c0 1.195.62 2.276 1.77 2.925L.403 9.068a.625.625 0 0 0-.191.408c0 .292.23.486.516.486" mask="url(#b)"/>
        </g>
        <path fill="#010202" d="M10.73 15.524c.267 0 .42-.291.515-.544l2.327-6.055 2.333 6.055c.114.272.21.544.802.544h.802c.305 0 .668-.252.515-.66L14.721 6.39c-.096-.233-.306-.486-.63-.486h-1.032c-.286 0-.534.253-.63.486l-3.265 8.474c-.153.408.21.66.535.66h1.03z"/>
        <g transform="translate(.59 5.856)">
            <mask id="d" fill="#fff">
                <use xlink:href="#c"/>
            </mask>
            <path fill="#010202" d="M1.509 9.669c.305 0 .534-.273.534-.545v-3.46h.88l2.825 3.558c.363.466.477.447.955.447h.744c.363 0 .554-.214.554-.447a.726.726 0 0 0-.172-.467l-3.395-4.25L7.638.883A.674.674 0 0 0 7.83.437c0-.292-.267-.39-.496-.39H6.225c-.172 0-.286.06-.42.195L2.708 3.78h-.665V.534c0-.253-.229-.486-.534-.486H.515C.248.048 0 .28 0 .534v8.59c0 .272.248.545.515.545h.994z" mask="url(#d)"/>
        </g>
        <path fill="#010202" d="M49.17 7.789v7.172c0 .291.23.563.496.563h1.012c.325 0 .535-.272.535-.563V7.789h2.368a.518.518 0 0 0 .535-.505v-.895c0-.252-.23-.485-.535-.485h-6.779a.498.498 0 0 0-.516.485v.895c0 .272.21.505.497.505h2.387zM69.736 7.711c1.528 0 2.712 1.322 2.712 3.032s-1.184 3.032-2.712 3.032c-1.49 0-2.692-1.322-2.692-3.032s1.203-3.032 2.692-3.032m0 8.047c2.807 0 4.755-2.527 4.755-5.015 0-2.76-2.158-5.014-4.755-5.014-2.75 0-4.735 2.468-4.735 5.014 0 2.76 2.196 5.015 4.735 5.015M20.927 12.55c0-1.165 1.127-1.534 2.272-1.534.615 0 1.1.036 1.547.117v2.613a9.11 9.11 0 0 1-1.585.166c-1.146 0-2.234-.312-2.234-1.361m2.234-3.13c-2.062 0-4.22.778-4.22 3.15 0 2.545 2.387 3.187 4.22 3.187 1.07 0 2.177-.214 2.98-.448.267-.077.515-.213.515-.563v-5.48c-.077-2.333-1.642-3.558-3.724-3.558-1.108 0-2.081.272-3.113 1.011-.248.175-.229.505-.095.72l.458.757c.134.233.44.253.688.078.802-.564 1.394-.758 2.062-.758.726 0 1.26.33 1.566.816.153.273.248.661.248.933v.285a9.84 9.84 0 0 0-1.585-.13M29.826 19.548c-.153.408.19.641.477.641h1.05c.268 0 .42-.253.516-.525l4.87-13.138c.152-.408-.115-.622-.497-.622H35.23c-.306 0-.44.253-.516.486l-2.325 6.527-2.315-6.527c-.076-.233-.23-.486-.515-.486H28.47c-.363 0-.668.214-.515.622l3.366 9.18-1.495 3.842zM59.29 7.692c1.223 0 2.712 1.03 2.712 3.013 0 1.807-1.298 2.993-2.711 2.993-1.566 0-2.693-1.439-2.693-2.955 0-1.574 1.012-3.051 2.693-3.051zm-3.169 12.517c.305 0 .61-.234.61-.545v-4.956c.746.758 1.853.991 2.56.991 2.769 0 4.755-2.293 4.755-4.994 0-2.974-2.158-4.976-4.755-4.976-2.865 0-4.602 2.274-4.602 5.014v8.921c0 .311.305.545.592.545h.84zM41.99 15.777c1.375 0 2.253-.31 3.17-.991.286-.214.44-.408.19-.836l-.4-.7c-.23-.408-.516-.33-.783-.175-.669.39-1.184.72-2.177.72-1.26 0-2.54-1.108-2.54-3.032 0-1.905 1.127-3.032 2.54-3.032.955 0 1.375.233 2.158.738.229.156.534.156.745-.174l.439-.74c.248-.408.019-.68-.23-.854-.782-.564-1.737-.953-3.131-.953-2.693 0-4.602 2.41-4.602 5.015 0 2.779 2.138 5.014 4.621 5.014M79.99 7.808c1.51 0 2.617 1.36 2.617 2.974 0 1.652-1.146 2.935-2.616 2.935-1.528 0-2.52-1.477-2.54-2.954 0-1.652 1.165-2.955 2.54-2.955m3.552-3.09c.592 0 1.222.525 1.222 1.322 0 .796-.63 1.322-1.222 1.322-.573 0-1.242-.526-1.242-1.322 0-.797.669-1.322 1.242-1.322m3.59 3.09c1.375 0 2.54 1.303 2.54 2.955 0 1.477-.994 2.954-2.54 2.954-1.47 0-2.616-1.283-2.616-2.935 0-1.613 1.107-2.974 2.616-2.974m-7.161 7.853c.916 0 1.948-.331 2.635-.972v6.822H81.27v-.914c0-.156-.114-.31-.286-.31h-.802a.404.404 0 0 0-.401.388v1.866c0 .194.114.428.362.428h2.464v1.03h-2.425a.404.404 0 0 0-.401.388v1.886c0 .174.114.427.362.427h.803c.229 0 .324-.253.324-.427v-.836h1.337v.7c0 .29.23.524.516.524H83.963a.523.523 0 0 0 .535-.525V14.65c.706.68 1.737 1.01 2.654 1.01 2.826 0 4.526-2.37 4.526-4.897 0-2.333-1.796-4.82-4.488-4.82-.191 0-.42.02-.592.077h-.038c.057-1.671-1.26-3.207-3.017-3.207S80.468 4.35 80.526 6.02a1.99 1.99 0 0 0-.593-.077c-2.692 0-4.487 2.487-4.487 4.82 0 2.526 1.7 4.898 4.526 4.898M97.368 7.711c1.528 0 2.712 1.322 2.712 3.032s-1.184 3.032-2.712 3.032c-1.49 0-2.692-1.322-2.692-3.032s1.203-3.032 2.692-3.032m0 8.047c2.807 0 4.755-2.527 4.755-5.015 0-2.76-2.158-5.014-4.755-5.014-2.75 0-4.736 2.468-4.736 5.014 0 2.76 2.196 5.015 4.736 5.015M108.062 7.672c1.566 0 2.712 1.341 2.712 2.955 0 1.71-1.07 3.07-2.636 3.07-1.661 0-2.73-1.535-2.73-3.07 0-1.614 1.164-2.955 2.654-2.955m-2.94 6.88a4.584 4.584 0 0 0 2.94 1.09c2.769 0 4.698-2.41 4.698-5.015 0-2.644-1.986-4.82-4.545-4.82-.707 0-1.356.155-1.948.466-.401.214-.783.505-1.089.855.02-.447.077-.855.192-1.224.228-.758.687-1.322 1.508-1.71.496-.234 1.07-.448 1.661-.642l2.35-.758c.476-.155.706-.505.438-.99l-.305-.526c-.306-.544-.611-.466-1.089-.311l-2.31.778c-.592.194-1.146.446-1.68.719-1.586.835-2.254 2.293-2.483 3.906a18.004 18.004 0 0 0-.153 3.188c.057 1.982.325 3.731 1.814 4.995"/>
    </g>
</svg>
