<svg xmlns="http://www.w3.org/2000/svg" xmlns:xlink="http://www.w3.org/1999/xlink" width="155" height="100" viewBox="0 0 155 100">
    <defs>
        <path id="a" d="M.16.118h82.139V34.72H.16z"/>
        <path id="c" d="M.051.038h49.964v81.501H.051z"/>
        <path id="e" d="M.104.154h27.233v49.842H.104z"/>
        <path id="g" d="M.14.065h42.272v19.524H.139z"/>
        <path id="i" d="M.13.079h31.82v28.08H.13z"/>
        <path id="k" d="M.084.047h68.57v44.984H.084z"/>
        <path id="m" d="M.18.082h21.242v15.85H.18z"/>
        <path id="o" d="M.164.161h87.349v36.817H.164z"/>
        <path id="q" d="M.012.135h64.275v34.422H.012z"/>
        <path id="s" d="M.028.147h36.254V68.47H.028z"/>
        <path id="u" d="M.004.116h34.617v18.383H.004z"/>
        <path id="w" d="M.002.02h83.993v54.859H.002z"/>
        <path id="y" d="M.185.146h67.339v33.719H.185z"/>
        <path id="A" d="M.058 31.522c0 17.327 13.89 31.373 31.023 31.373S62.103 48.85 62.103 31.522 48.213.148 31.081.148C13.947.148.058 14.195.058 31.522"/>
        <path id="C" d="M.167 31.522c0 17.327 13.889 31.373 31.022 31.373 17.134 0 31.023-14.046 31.023-31.373S48.322.148 31.189.148.167 14.195.167 31.522"/>
        <path id="E" d="M.183 26.414c0 14.492 11.617 26.242 25.949 26.242 14.331 0 25.949-11.75 25.949-26.242C52.08 11.92 40.463.17 26.13.17 11.802.171.184 11.921.184 26.414"/>
        <path id="G" d="M.074 25.5c0 13.992 11.216 25.334 25.05 25.334 13.836 0 25.051-11.342 25.051-25.334C50.175 11.508 38.96.166 25.125.166S.074 11.508.074 25.5"/>
        <path id="I" d="M.155 18.176c0 10.01 8.024 18.127 17.924 18.127 9.899 0 17.923-8.116 17.923-18.127C36.002 8.166 27.978.05 18.08.05 8.179.05.155 8.165.155 18.176"/>
        <path id="K" d="M.016 18.176c0 10.01 8.025 18.127 17.924 18.127 9.9 0 17.924-8.116 17.924-18.127C35.864 8.166 27.839.05 17.94.05 8.04.05.016 8.165.016 18.176"/>
        <path id="M" d="M.016 13.186c0 7.198 5.77 13.034 12.887 13.034 7.118 0 12.888-5.836 12.888-13.034S20.021.152 12.903.152C5.786.152.016 5.988.016 13.186"/>
        <path id="O" d="M.052 12.729c0 6.949 5.57 12.582 12.44 12.582 6.872 0 12.443-5.633 12.443-12.582 0-6.95-5.57-12.583-12.442-12.583C5.622.146.052 5.78.052 12.73"/>
        <path id="Q" d="M.147 5.987c0 3.219 2.58 5.827 5.764 5.827 3.183 0 5.763-2.608 5.763-5.827 0-3.22-2.58-5.829-5.763-5.829S.147 2.768.147 5.987"/>
        <path id="S" d="M.022 5.987c0 3.219 2.58 5.827 5.764 5.827 3.182 0 5.762-2.608 5.762-5.827 0-3.22-2.58-5.829-5.762-5.829C2.602.158.022 2.768.022 5.987"/>
    </defs>
    <g fill="none" fill-rule="evenodd">
        <g transform="translate(9.625 57.008)">
            <mask id="b" fill="#fff">
                <use xlink:href="#a"/>
            </mask>
            <path fill="#606163" d="M.663 4.585c2.628 8.735 8.18 16.481 15.65 21.827 7.039 5.097 15.73 7.905 24.474 7.905h.002c.487 0 .974-.009 1.461-.026 9.235-.257 18.245-3.645 25.373-9.54 7.109-5.82 12.144-13.909 14.193-22.797L75.818.6c-1.752 7.572-6.048 14.465-12.111 19.427-6.087 5.029-13.777 7.92-21.653 8.142a35.2 35.2 0 0 1-1.245.022c-7.46.001-14.88-2.395-20.896-6.745-6.373-4.558-11.11-11.16-13.355-18.604L.663 4.585zM40.789 34.72h-.002c-8.829 0-17.605-2.834-24.711-7.981C8.479 21.302 2.846 13.406.217 4.506L.16 4.313l6.672-1.972.057.194C9.085 9.972 13.794 16.573 20.15 21.12c6.278 4.54 14.108 6.931 21.892 6.646 7.787-.219 15.39-3.078 21.407-8.05 6.048-4.95 10.316-11.84 12.018-19.4l.045-.198L82.3 1.65l-.043.196C80.216 10.9 75.11 19.144 67.88 25.061c-7.196 5.952-16.294 9.374-25.617 9.633-.49.017-.982.026-1.474.026z" mask="url(#b)"/>
        </g>
        <path fill="#606163" d="M7.926 74.689c5.28 9.3 13.605 16.71 23.463 20.875 5.986 2.548 12.637 3.895 19.234 3.895 4.182 0 8.334-.527 12.344-1.566 10.423-2.67 19.807-8.84 26.422-17.374a48.542 48.542 0 0 0 10.27-29.633l-6.15-.01c-.029 9.356-3.214 18.543-8.98 25.89-5.788 7.467-13.996 12.865-23.11 15.199a43.048 43.048 0 0 1-10.795 1.369c-5.782 0-11.6-1.177-16.824-3.404a42.927 42.927 0 0 1-20.513-18.242l-5.361 3zm42.698 25.173c-6.652 0-13.358-1.358-19.394-3.927C21.23 91.708 12.791 84.17 7.473 74.71l-.099-.176 6.068-3.395.098.176A42.52 42.52 0 0 0 33.96 89.56c5.174 2.205 10.937 3.37 16.665 3.37 3.629 0 7.226-.456 10.695-1.355 9.026-2.312 17.156-7.659 22.89-15.057 5.753-7.33 8.912-16.508 8.896-25.844v-.202l6.96.011v.202a48.968 48.968 0 0 1-10.355 30.08c-6.67 8.604-16.133 14.826-26.642 17.518a49.643 49.643 0 0 1-12.444 1.579z"/>
        <g transform="translate(3.963 4.94)">
            <mask id="d" fill="#fff">
                <use xlink:href="#c"/>
            </mask>
            <path fill="#606163" d="M45.097.44c-8.23 0-16.543 2.342-23.409 6.595C13.307 12.16 6.792 20.01 3.341 29.144c-3.483 9.126-3.825 19.308-.962 28.67 2.81 9.277 8.723 17.495 16.662 23.164l3.57-4.989C15.77 71.1 10.68 64.021 8.262 56.034c-2.474-8.076-2.18-16.856.829-24.72 2.972-7.876 8.592-14.647 15.824-19.065 6.003-3.717 12.981-5.682 20.175-5.682 1.28 0 2.571.065 3.838.193l.64-6.092a43.997 43.997 0 0 0-4.472-.227zm-25.96 81.1l-.166-.117C10.876 75.7 4.846 67.357 1.992 57.932c-2.89-9.447-2.544-19.722.97-28.93 3.482-9.217 10.056-17.14 18.513-22.31C28.403 2.402 36.793.038 45.097.038c1.577 0 3.164.084 4.717.25l.201.022-.725 6.893-.202-.021a37.913 37.913 0 0 0-3.997-.212c-7.119 0-14.022 1.944-19.963 5.622-7.156 4.372-12.716 11.071-15.658 18.864-2.977 7.782-3.267 16.47-.82 24.462 2.411 7.965 7.511 15.018 14.359 19.86l.166.117-4.039 5.644z" mask="url(#d)"/>
        </g>
        <g transform="translate(13.588 15.654)">
            <mask id="f" fill="#fff">
                <use xlink:href="#e"/>
            </mask>
            <path fill="#606163" d="M24.795.666C15.399 3.946 7.452 11.333 3.513 20.464c-4.012 9.082-4.005 19.907.01 29l5.624-2.478c-3.333-7.555-3.335-16.541.005-24.08 3.27-7.59 9.865-13.728 17.668-16.458L24.795.666zM3.317 49.996l-.082-.184C-.907 40.58-.941 29.548 3.14 20.303 7.151 11.01 15.268 3.501 24.853.22l.19-.065 2.294 6.544-.193.066c-7.78 2.658-14.367 8.753-17.62 16.302-3.323 7.5-3.295 16.45.074 23.94l.084.186-6.365 2.804z" mask="url(#f)"/>
        </g>
        <g transform="translate(26.61 77.684)">
            <mask id="h" fill="#fff">
                <use xlink:href="#g"/>
            </mask>
            <path fill="#606163" d="M.686 13.348A52.361 52.361 0 0 0 21 19.052c1.244.09 2.51.134 3.762.134 5.881 0 11.644-.962 17.133-2.861l-4.778-13.57c-3.924 1.36-8.07 2.049-12.327 2.049-6.123 0-12.137-1.45-17.404-4.194L.686 13.348zm24.078 6.241h-.001c-1.262 0-2.538-.045-3.79-.135-7.174-.501-14.316-2.521-20.655-5.842l-.179-.094L7.216.065l.18.095C12.648 2.934 18.663 4.4 24.791 4.4c4.28 0 8.445-.704 12.383-2.093l.191-.067 5.047 14.332-.19.067a52.662 52.662 0 0 1-17.458 2.95z" mask="url(#h)"/>
        </g>
        <g transform="translate(56.051 65.09)">
            <mask id="j" fill="#fff">
                <use xlink:href="#i"/>
            </mask>
            <path fill="#606163" d="M.607 13.597l2.91 14.086a43.463 43.463 0 0 0 15.955-6.932 43.71 43.71 0 0 0 11.92-12.619L19.074.632A29.213 29.213 0 0 1 11.149 9 28.962 28.962 0 0 1 .607 13.597zM3.202 28.16L.13 13.284l.198-.04A28.53 28.53 0 0 0 10.916 8.67 28.786 28.786 0 0 0 18.834.25L18.94.08l13.01 7.92-.106.172a44.097 44.097 0 0 1-12.138 12.91A43.866 43.866 0 0 1 3.4 28.118l-.199.04z" mask="url(#j)"/>
        </g>
        <g transform="translate(12.078 42.91)">
            <mask id="l" fill="#fff">
                <use xlink:href="#k"/>
            </mask>
            <path fill="#606163" d="M.995.512c-1.361 8.222.041 16.734 3.958 23.99a38.128 38.128 0 0 0 17.945 16.764c4.85 2.2 10.288 3.362 15.726 3.362 2.966 0 5.914-.341 8.765-1.013 8.068-1.872 15.41-6.445 20.696-12.89l-4.538-3.666c-4.478 5.45-10.685 9.313-17.501 10.892-2.41.57-4.907.857-7.422.857-4.618 0-9.223-.983-13.316-2.842A32.286 32.286 0 0 1 10.11 21.764C6.801 15.641 5.613 8.444 6.757 1.48L.995.512zm37.629 44.52c-5.495 0-10.991-1.175-15.893-3.398-7.72-3.467-14.16-9.484-18.135-16.943C.606 17.3-.803 8.617.63.245L.664.047l6.56 1.103-.034.2c-1.186 6.936-.021 14.12 3.277 20.223a31.865 31.865 0 0 0 15.009 14.025c4.041 1.836 8.587 2.807 13.148 2.807 2.484 0 4.95-.284 7.33-.847 6.793-1.573 12.975-5.447 17.407-10.91l.127-.156 5.166 4.175-.127.157C63.176 37.42 55.702 42.1 47.481 44.007c-2.88.68-5.86 1.025-8.857 1.025z" mask="url(#l)"/>
        </g>
        <g transform="translate(6.417 27.872)">
            <mask id="n" fill="#fff">
                <use xlink:href="#m"/>
            </mask>
            <path fill="#606163" d="M.678 10.538l17.82 4.9a26.31 26.31 0 0 1 2.372-5.682L4.812.632a44.623 44.623 0 0 0-4.134 9.906zm18.103 5.395L.18 10.82l.054-.195A45.044 45.044 0 0 1 4.56.257l.101-.175 16.76 9.523-.1.175a25.887 25.887 0 0 0-2.486 5.958l-.054.195z" mask="url(#n)"/>
        </g>
        <g transform="translate(7.172 5.504)">
            <mask id="p" fill="#fff">
                <use xlink:href="#o"/>
            </mask>
            <path fill="#606163" d="M43.354 6.69c.486 0 .978.01 1.462.029 8.47.264 16.73 3.4 23.256 8.83 6.504 5.36 11.1 12.792 12.956 20.947l6.002-1.334c-2.15-9.474-7.48-18.105-15.027-24.323C64.44 4.54 54.861.903 45.033.598a42.276 42.276 0 0 0-1.7-.034c-9.258 0-18.468 2.959-25.933 8.33C9.43 14.561 3.494 22.79.668 32.084l5.89 1.761c2.438-8.003 7.556-15.09 14.427-19.973C27.428 9.24 35.372 6.69 43.354 6.69zM80.72 36.978l-.044-.197c-1.807-8.146-6.375-15.576-12.864-20.922-6.458-5.373-14.63-8.476-23.011-8.737-8.371-.328-16.818 2.216-23.582 7.077C14.367 19.07 9.276 26.157 6.887 34.154l-.058.193-6.665-1.993.058-.193C3.05 22.703 9.067 14.323 17.164 8.567 24.696 3.147 33.99.161 43.334.161c.57 0 1.146.011 1.713.034C54.963.502 64.629 4.172 72.26 10.53c7.669 6.316 13.07 15.103 15.208 24.741l.044.196-6.792 1.511z" mask="url(#p)"/>
        </g>
        <g transform="translate(20.571 15.654)">
            <mask id="r" fill="#fff">
                <use xlink:href="#q"/>
            </mask>
            <path fill="#606163" d="M58.386 34.144l5.497.009c-.012-7.378-2.503-14.627-7.027-20.435-4.56-5.92-11.03-10.207-18.221-12.072a33.987 33.987 0 0 0-8.64-1.108c-4.541 0-9.103.914-13.192 2.644A33.912 33.912 0 0 0 .563 17.513l4.783 2.698A28.403 28.403 0 0 1 18.942 8.225c3.41-1.448 7.233-2.213 11.053-2.213 2.466 0 4.902.312 7.241.928 6.02 1.56 11.441 5.153 15.265 10.118a28.102 28.102 0 0 1 5.885 17.086zm5.9.413l-6.305-.01v-.203a27.694 27.694 0 0 0-5.8-17.04c-3.77-4.895-9.114-8.437-15.048-9.974a28.045 28.045 0 0 0-7.138-.915c-3.766 0-7.533.755-10.896 2.18a28.006 28.006 0 0 0-13.5 11.99l-.1.175-5.487-3.095.1-.175A34.319 34.319 0 0 1 16.644 2.81C20.783 1.06 25.4.135 29.995.135c2.97 0 5.912.377 8.742 1.122 7.277 1.887 13.825 6.225 18.439 12.215 4.62 5.93 7.145 13.347 7.112 20.883l-.001.202z" mask="url(#r)"/>
        </g>
        <g transform="translate(0 29.752)">
            <mask id="t" fill="#fff">
                <use xlink:href="#s"/>
            </mask>
            <path fill="#606163" d="M4.659.68c-5.572 12.5-5.64 27.417-.175 39.947 5.39 12.578 16.31 22.78 29.237 27.33l2.045-5.778C24.43 58.187 14.857 49.24 10.132 38.203c-4.799-10.985-4.742-24.064.142-35.028L4.66.68zm29.31 67.79l-.19-.067C20.662 63.851 9.572 53.527 4.111 40.786-1.424 28.094-1.327 12.97 4.372.331l.082-.184 6.356 2.824-.084.184c-4.921 10.9-5.005 23.942-.223 34.889 4.71 10.995 14.274 19.9 25.588 23.822l.191.067-2.313 6.537z" mask="url(#t)"/>
        </g>
        <g transform="translate(30.574 7.571)">
            <mask id="v" fill="#fff">
                <use xlink:href="#u"/>
            </mask>
            <path fill="#606163" d="M.55 5.195l6.66 12.76a27.848 27.848 0 0 1 10.865-2.99c.65-.045 1.31-.067 1.96-.067 3.183 0 6.292.518 9.247 1.54l4.823-13.556C29.63 1.314 24.907.52 20.06.52 13.213.519 6.472 2.135.55 5.195zM7.037 18.5L.004 5.024l.179-.093C6.205 1.78 13.079.116 20.06.116c4.962 0 9.797.825 14.37 2.453l.19.068-5.092 14.315-.19-.068a27.794 27.794 0 0 0-9.302-1.583c-.643 0-1.293.022-1.934.066-3.838.257-7.5 1.28-10.885 3.039l-.18.093z" mask="url(#v)"/>
        </g>
        <g transform="translate(2.076 1.932)">
            <mask id="x" fill="#fff">
                <use xlink:href="#w"/>
            </mask>
            <path fill="#606163" d="M47.171.422c-6.602 0-13.223 1.406-19.147 4.065C18.646 8.665 10.81 15.94 5.957 24.97 1.115 33.877-.639 44.327 1.011 54.415l6.067-.999c-1.425-8.765.098-17.83 4.296-25.55 4.214-7.845 11.022-14.164 19.17-17.791 5.131-2.308 10.88-3.527 16.626-3.527 3.203 0 6.387.373 9.463 1.11 8.59 2.02 16.398 6.92 22.006 13.807l4.787-3.844C76.973 9.684 67.974 4.034 58.065 1.7A46.878 46.878 0 0 0 47.17.422zM.678 54.88l-.034-.199c-1.72-10.238.04-20.858 4.957-29.903C10.494 15.67 18.399 8.333 27.858 4.12 33.833 1.437 40.512.02 47.171.02c3.715 0 7.412.434 10.987 1.29C68.22 3.677 77.35 9.437 83.87 17.526l.126.156-5.417 4.35-.128-.158C72.89 14.975 65.108 10.065 56.54 8.05a40.307 40.307 0 0 0-9.37-1.1c-5.689 0-11.38 1.209-16.46 3.492-8.067 3.591-14.807 9.847-18.979 17.616-4.189 7.7-5.687 16.753-4.221 25.49l.033.2-6.865 1.13z" mask="url(#x)"/>
        </g>
        <g transform="translate(29.819 .053)">
            <mask id="z" fill="#fff">
                <use xlink:href="#y"/>
            </mask>
            <path fill="#606163" d="M20.805 6.674c5.659 0 11.135 1.042 16.276 3.096 10.863 4.27 19.69 12.853 24.246 23.566l5.668-2.378C61.805 18.742 51.74 8.952 39.355 4.08 33.486 1.737 27.244.549 20.807.549 13.888.549 6.946 1.986.72 4.707l2.483 5.603c5.448-2.379 11.53-3.636 17.603-3.636zm40.306 27.19l-.078-.186c-4.492-10.7-13.276-19.277-24.102-23.533-5.094-2.036-10.52-3.068-16.126-3.068-6.087 0-12.18 1.274-17.624 3.683l-.186.082-2.81-6.34.185-.083C6.696 1.624 13.763.146 20.806.146c6.49 0 12.78 1.197 18.7 3.56 12.547 4.936 22.731 14.88 27.94 27.282l.078.185-6.413 2.692z" mask="url(#z)"/>
        </g>
        <g transform="translate(19.25 18.098)">
            <mask id="B" fill="#fff">
                <use xlink:href="#A"/>
            </mask>
            <path d="M.058 31.522c0 17.327 13.89 31.373 31.023 31.373S62.103 48.85 62.103 31.522 48.213.148 31.081.148C13.947.148.058 14.195.058 31.522" mask="url(#B)"/>
        </g>
        <path fill="#FFF" d="M52.365 18.246c17.133 0 31.022 14.047 31.022 31.374 0 17.327-13.889 31.373-31.022 31.373-17.134 0-31.023-14.046-31.023-31.373s13.89-31.374 31.023-31.374"/>
        <g transform="translate(21.515 18.098)">
            <mask id="D" fill="#fff">
                <use xlink:href="#C"/>
            </mask>
            <path d="M.167 31.522c0 17.327 13.889 31.373 31.022 31.373 17.134 0 31.023-14.046 31.023-31.373S48.322.148 31.189.148.167 14.195.167 31.522" mask="url(#D)"/>
        </g>
        <path fill="#FFF" d="M52.704 23.377c14.33 0 25.949 11.75 25.949 26.243 0 14.493-11.619 26.242-25.95 26.242-14.33 0-25.948-11.749-25.948-26.242 0-14.494 11.617-26.243 25.949-26.243"/>
        <g transform="translate(26.233 23.549)">
            <mask id="F" fill="#fff">
                <use xlink:href="#E"/>
            </mask>
            <path d="M.183 26.414c0 14.492 11.617 26.242 25.949 26.242 14.331 0 25.949-11.75 25.949-26.242C52.08 11.92 40.463.17 26.13.17 11.802.171.184 11.921.184 26.414" mask="url(#F)"/>
        </g>
        <path fill="#CECECD" d="M53.018 24.414c-13.835 0-25.051 11.343-25.051 25.334s11.216 25.334 25.05 25.334c13.835 0 25.051-11.343 25.051-25.334s-11.216-25.334-25.05-25.334"/>
        <g transform="translate(27.554 24.677)">
            <mask id="H" fill="#fff">
                <use xlink:href="#G"/>
            </mask>
            <path d="M.074 25.5c0 13.992 11.216 25.334 25.05 25.334 13.836 0 25.051-11.342 25.051-25.334C50.175 11.508 38.96.166 25.125.166S.074 11.508.074 25.5" mask="url(#H)"/>
        </g>
        <g>
            <path fill="#B43C38" d="M28.306 49.491a25.393 25.393 0 0 1 7.006-17.563 25.39 25.39 0 0 0-7.684 18.249c0 13.991 11.215 25.334 25.05 25.334 7.09 0 13.488-2.984 18.045-7.771-4.504 4.384-10.621 7.084-17.367 7.084-13.834 0-25.05-11.341-25.05-25.333"/>
            <path fill="#FFF" d="M36.014 31.5a25.393 25.393 0 0 0-7.684 18.248c0 13.991 11.215 25.334 25.05 25.334a24.69 24.69 0 0 0 12.052-3.128 25.195 25.195 0 0 0 3.252-2.33 24.73 24.73 0 0 1-14.625 4.772c-13.835 0-25.05-11.342-25.05-25.334 0-6.82 2.67-13.008 7.005-17.562"/>
        </g>
        <g transform="translate(34.914 31.444)">
            <mask id="J" fill="#fff">
                <use xlink:href="#I"/>
            </mask>
            <path d="M.155 18.176c0 10.01 8.024 18.127 17.924 18.127 9.899 0 17.923-8.116 17.923-18.127C36.002 8.166 27.978.05 18.08.05 8.179.05.155 8.165.155 18.176" mask="url(#J)"/>
        </g>
        <path fill="#FFF" d="M54.168 31.493c9.9 0 17.924 8.116 17.924 18.127 0 10.01-8.025 18.126-17.924 18.126-9.9 0-17.924-8.116-17.924-18.126 0-10.011 8.025-18.127 17.924-18.127"/>
        <g transform="translate(36.424 31.444)">
            <mask id="L" fill="#fff">
                <use xlink:href="#K"/>
            </mask>
            <path d="M.016 18.176c0 10.01 8.025 18.127 17.924 18.127 9.9 0 17.924-8.116 17.924-18.127C35.864 8.166 27.839.05 17.94.05 8.04.05.016 8.165.016 18.176" mask="url(#L)"/>
        </g>
        <path fill="#FFF" d="M54.592 36.5c7.117 0 12.887 5.836 12.887 13.034s-5.77 13.034-12.887 13.034c-7.119 0-12.888-5.836-12.888-13.034s5.77-13.033 12.888-13.033"/>
        <g transform="translate(41.52 36.519)">
            <mask id="N" fill="#fff">
                <use xlink:href="#M"/>
            </mask>
            <path d="M.016 13.186c0 7.198 5.77 13.034 12.887 13.034 7.118 0 12.888-5.836 12.888-13.034S20.021.152 12.903.152C5.786.152.016 5.988.016 13.186" mask="url(#N)"/>
        </g>
        <path fill="#CECECD" d="M54.747 37.016c-6.871 0-12.442 5.633-12.442 12.582 0 6.95 5.57 12.583 12.442 12.583S67.19 56.547 67.19 49.598s-5.57-12.582-12.442-12.582"/>
        <g transform="translate(42.086 37.083)">
            <mask id="P" fill="#fff">
                <use xlink:href="#O"/>
            </mask>
            <path d="M.052 12.729c0 6.949 5.57 12.582 12.44 12.582 6.872 0 12.443-5.633 12.443-12.582 0-6.95-5.57-12.583-12.442-12.583C5.622.146.052 5.78.052 12.73" mask="url(#P)"/>
        </g>
        <g>
            <path fill="#B43C38" d="M42.474 49.47c0-3.387 1.327-6.46 3.48-8.722a12.614 12.614 0 0 0-3.817 9.063c0 6.95 5.57 12.583 12.442 12.583 3.521 0 6.698-1.482 8.962-3.86a12.327 12.327 0 0 1-8.626 3.519c-6.87 0-12.44-5.633-12.44-12.582"/>
            <path fill="#FFF" d="M46.303 40.535a12.61 12.61 0 0 0-3.817 9.063c0 6.95 5.57 12.583 12.442 12.583 2.17 0 4.21-.565 5.985-1.554.57-.343 1.11-.73 1.616-1.157a12.282 12.282 0 0 1-7.264 2.37c-6.872 0-12.442-5.633-12.442-12.582 0-3.388 1.326-6.461 3.48-8.723"/>
        </g>
        <g transform="translate(49.257 44.038)">
            <mask id="R" fill="#fff">
                <use xlink:href="#Q"/>
            </mask>
            <path d="M.147 5.987c0 3.219 2.58 5.827 5.764 5.827 3.183 0 5.763-2.608 5.763-5.827 0-3.22-2.58-5.829-5.763-5.829S.147 2.768.147 5.987" mask="url(#R)"/>
        </g>
        <path fill="#FFF" d="M55.546 44.196c3.183 0 5.763 2.61 5.763 5.828 0 3.22-2.58 5.828-5.763 5.828s-5.763-2.609-5.763-5.828c0-3.219 2.58-5.828 5.763-5.828"/>
        <g transform="translate(49.824 44.038)">
            <mask id="T" fill="#fff">
                <use xlink:href="#S"/>
            </mask>
            <path d="M.022 5.987c0 3.219 2.58 5.827 5.764 5.827 3.182 0 5.762-2.608 5.762-5.827 0-3.22-2.58-5.829-5.762-5.829C2.602.158.022 2.768.022 5.987" mask="url(#T)"/>
        </g>
        <g>
            <path fill="#424242" d="M104.654 65.429h-.493v-6.391h1.673v3.113l3.336-3.14h.52v6.4h-1.671v-3.287zM112.727 60.495v4.916h-1.664v-6.373h3.986v1.457zM118.706 62.306c.439 0 .695-.464.695-.928 0-.455-.238-.902-.695-.902h-1.179v1.83h1.18zm-2.824 3.096v-6.374c.95 0 1.874-.008 2.824 0 1.536 0 2.322 1.194 2.295 2.395 0 1.166-.778 2.331-2.295 2.331h-1.151v1.648h-1.673zM124.832 63.954c.795 0 1.608-.591 1.608-1.73 0-1.138-.794-1.73-1.59-1.73-.832 0-1.627.565-1.627 1.73 0 1.139.786 1.73 1.609 1.73m-.01 1.576c-1.69 0-3.272-1.093-3.272-3.305 0-2.204 1.636-3.315 3.3-3.315 1.636 0 3.264 1.111 3.264 3.315 0 1.948-1.354 3.305-3.291 3.305M130.83 62.87v1.057h1.288c.32 0 .467-.237.494-.491.019-.292-.174-.565-.503-.565h-1.28zm0-2.412v1.065h1.032c.32 0 .485-.246.494-.5.01-.283-.155-.565-.494-.565h-1.032zm2.641 1.612c.521.263.795.782.795 1.366 0 1.092-.713 1.939-2.03 1.939h-3.08V59.01h2.825c1.188 0 2.02.774 2.02 1.958a1.5 1.5 0 0 1-.53 1.102zM138.253 63.954c.796 0 1.609-.591 1.609-1.73 0-1.138-.796-1.73-1.59-1.73-.833 0-1.628.565-1.628 1.73 0 1.139.786 1.73 1.61 1.73m-.01 1.576c-1.691 0-3.273-1.093-3.273-3.305 0-2.204 1.637-3.315 3.3-3.315 1.636 0 3.263 1.111 3.263 3.315 0 1.948-1.352 3.305-3.29 3.305M144.086 57.217c.027.974.576 1.484 1.518 1.484.969 0 1.499-.51 1.535-1.484-.3-.037-.594-.073-.905-.091-.054.364-.283.482-.649.482-.365 0-.575-.163-.594-.482l-.905.091zm-1.023 8.212h-.494v-6.391h1.673v3.113l3.336-3.14h.521v6.4h-1.672v-3.287l-3.364 3.305zM97.764 73.06v-6.373h1.671v4.871h1.847v-4.87h1.682v4.962h.65v2.13h-1.345v-.72zM108.733 68.135h-2.321v.91h2.138v1.458h-2.138v1.038h2.404v1.52h-4.077v-6.373h3.994zM113.624 73.06v-2.548h-1.983v2.549h-1.672v-6.374h1.672v2.305h1.983v-2.305h1.673v6.374zM116.158 68.145v-1.457h4.753v1.457h-1.563v4.916h-1.618v-4.916zM124.605 69.956c.439 0 .695-.464.695-.928 0-.455-.238-.901-.695-.901h-1.18v1.83h1.18zm-2.825 3.096V66.68c.951 0 1.874-.01 2.825 0 1.536 0 2.322 1.193 2.294 2.394 0 1.166-.777 2.331-2.294 2.331h-1.151v1.648h-1.674z"/>
            <path fill="#424242" d="M136.02 49.796l2.737-4.793 3.41 4.793h-6.146zm13.418-10.748h-7.122l4.681-8.02-80.776.004-11.857 19.32 4.196 5.642h11.32l3.339 4.461h10.85L81.21 56l66.596.004 6.113-9.497-4.48-7.458z"/>
            <path stroke="#424242" stroke-width=".566" d="M136.02 49.796l2.737-4.793 3.41 4.793h-6.146zm13.418-10.748h-7.122l4.681-8.02-80.776.004-11.857 19.32 4.196 5.642h11.32l3.339 4.461h10.85L81.21 56l66.596.004 6.113-9.497-4.48-7.458z"/>
            <path fill="#858789" d="M83.575 60.147H73.478l-3.339-4.46H58.82l-3.97-5.338 11.648-18.98 10.734-.005-10.25 17.53h1.1l10.25-17.53H89.3L77.286 50.35z"/>
            <path fill="#FFF" d="M68.669 50.349H64.79l2.191-1.454h.961l10.25-17.53H89.3l-2.58 1.628H78.6z"/>
            <path fill="#858789" d="M135.392 50.132l10.953-18.768h-9.191l-14.763 24.33h25.147l5.91-9.18-4.283-7.13h-7.496l-2.987 5.111 4.032 5.637zM98.487 55.691H81.786l-3.454-5.342 12.113-18.985h27.545l-9.395 7.513h-12.47v.968h11.96l-3.979 6.508H91.707v.933h11.973z"/>
            <path fill="#858789" d="M136.126 31.333h-17.141l-9.29 7.674-10.13 16.684h11.451l9.827-17.097h1.006l-9.835 17.097h9.333z"/>
            <path fill="#FFF" d="M111.331 39.038l7.347-6.062h14.873l2.575-1.643h-17.141l-9.29 7.674-10.13 16.684 2.653-1.607z"/>
            <path fill="#AAACAE" d="M74.724 32.992L64.79 50.35l2.185-1.454 10.25-17.53z"/>
            <path fill="#FFF" d="M117.99 31.364H90.445L78.332 50.35h1.618l2.415 3.735L92.84 36.252l17.624-.173 3.9-3.104z"/>
            <path fill="#FFF" d="M105.816 41.455l-11.301-.005 1.61-1.605h11.96zM101.41 48.876H90.09l1.617-1.583h11.978zM114.623 54.084l9.948-17.07-2.715 1.58-9.833 17.097zM137.781 32.971l6.017.003 2.547-1.613h-9.191l-14.763 24.33 2.457-1.633zM148.531 41l.634-1.62h-7.496l-2.575 1.622zM132.82 51.7h12.692l-2.798-1.568h-7.323zM74.724 32.992l2.502-1.628-10.733.004-11.648 18.98 1.287.024 10.765-17.38z"/>
            <path fill="#D2D4D5" d="M132.818 51.706l4.968-8.474h1.632l6.095 8.474h-12.695zm15.713-10.701L139.094 41l4.704-8.023-6.017-.002-12.933 21.086h22.132l4.851-7.52-3.3-5.537zM97.839 54.084H82.365l-2.415-3.735 11.09-17.374h23.324l-5.397 4.292-14.463-.006v4.194h11.312l-2.372 3.308H90.095v4.113h11.316zM133.551 32.976h-14.873l-7.347 6.062-9.113 15.046h8.125l10.19-17.07h4.03l-9.948 17.07h6.133z"/>
            <path fill="#D2D4D5" d="M80.597 58.627l-6.994.002-3.5-4.545H58.935l-2.81-3.735 10.777-17.357h7.827L64.797 50.35h3.558l9.932-17.357h8.432L75.32 50.35z"/>
        </g>
    </g>
</svg>
