<svg xmlns="http://www.w3.org/2000/svg" width="66" height="56" viewBox="0 0 66 56">
    <path fill="#8088A3" fill-rule="nonzero" d="M59.081 25.741h-.085c-1.282-4.804-4.186-9.192-8.272-12.49-4.2-3.399-9.524-5.507-15.09-6.009C33.94 2.925 29.768 0 25.17 0c-1.31.014-2.605.244-3.844.703a1.434 1.434 0 0 0-.854 1.835c.142.402.456.717.854.86 2.278.832 3.986 2.439 4.869 4.518a27.326 27.326 0 0 0-12.172 6.396c-3.46 3.198-5.88 7.113-7.019 11.43H6.92C3.075 25.755-.014 28.91 0 32.781c.014 3.844 3.104 6.956 6.919 6.97.285 0 .57-.014.84-.057 1.737 4.488 4.94 8.475 9.111 11.372C21.54 54.293 27.12 56 33 56c5.88 0 11.46-1.707 16.13-4.933 4.171-2.883 7.374-6.884 9.111-11.372.285.028.555.057.84.057 3.844-.014 6.933-3.17 6.919-7.041-.014-3.83-3.104-6.941-6.919-6.97zm0 11.143c-.441 0-.868-.072-1.281-.215a1.416 1.416 0 0 0-1.808.875c0 .014-.014.028-.014.028-1.41 4.374-4.414 8.332-8.443 11.114-4.2 2.897-9.225 4.432-14.52 4.432-5.297 0-10.322-1.535-14.522-4.432-4.043-2.796-7.033-6.74-8.442-11.114a1.412 1.412 0 0 0-1.794-.917c-.014 0-.028.014-.028.014a3.94 3.94 0 0 1-1.282.215c-2.263-.014-4.1-1.879-4.085-4.159.014-2.266 1.836-4.101 4.085-4.116.3 0 .584.03.883.1.769.173 1.523-.329 1.694-1.103v-.015c.869-4.216 3.104-8.073 6.45-11.157 3.373-3.097 7.644-5.177 12.342-6.023a1.44 1.44 0 0 0 1.153-1.663c0-.015-.014-.043-.014-.058a10.787 10.787 0 0 0-3.374-5.779c3.388.402 6.221 2.797 7.204 6.095.17.574.683.99 1.281 1.018 5.324.301 10.45 2.237 14.436 5.45 3.915 3.169 6.605 7.47 7.56 12.103a1.427 1.427 0 0 0 1.68 1.119h.013a4.5 4.5 0 0 1 .883-.1c2.264.013 4.1 1.878 4.086 4.158-.071 2.294-1.894 4.116-4.143 4.13zm-17.639.33c.014 4.69-3.758 8.504-8.428 8.518H33c-4.655.014-8.442-3.786-8.456-8.49v-.028h-2.848c0 6.281 5.054 11.386 11.304 11.372 6.236 0 11.29-5.091 11.29-11.372h-2.848zM23.32 23.762c-2.434-.014-4.413 1.98-4.413 4.432 0 2.452 1.979 4.43 4.399 4.43 2.434 0 4.413-1.993 4.413-4.43 0-2.453-1.979-4.432-4.399-4.432zm-.014 5.995a1.561 1.561 0 0 1-1.552-1.563c0-.86.698-1.564 1.552-1.564.854 0 1.552.703 1.552 1.564 0 .86-.684 1.563-1.552 1.563zm19.39-6.009c-2.434 0-4.4 1.993-4.4 4.431 0 2.438 1.966 4.446 4.4 4.446s4.399-1.994 4.399-4.431c0-2.453-1.979-4.446-4.399-4.446zm0 6.009a1.561 1.561 0 0 1-1.552-1.563c0-.86.698-1.564 1.552-1.564.854 0 1.552.703 1.552 1.564 0 .86-.698 1.563-1.552 1.563z"/>
</svg>
