<svg xmlns="http://www.w3.org/2000/svg" width="56" height="56" viewBox="0 0 56 56">
    <path fill="#8088A3" fill-rule="nonzero" d="M28 0C12.56 0 0 12.561 0 28s12.56 28 28 28 28-12.561 28-28S43.44 0 28 0zm0 53.2C14.105 53.2 2.8 41.895 2.8 28S14.105 2.8 28 2.8 53.2 14.105 53.2 28 41.895 53.2 28 53.2zm17.78-19.93a1.182 1.182 0 0 0-1.317.587c-.036.07-.948 1.703-3.63 1.703-1.474 0-2.442-.483-3.561-1.044-1.21-.605-2.58-1.29-4.605-1.29-2.275 0-3.758.854-4.667 2.066-.909-1.212-2.392-2.065-4.667-2.065-2.026 0-3.395.684-4.605 1.29-1.119.56-2.087 1.043-3.561 1.043-2.682 0-3.594-1.634-3.623-1.689a1.166 1.166 0 1 0-2.21.522c0 .105.145 10.5 12.833 10.5 2.64 0 4.656-1.135 5.833-2.653 1.178 1.518 3.193 2.653 5.833 2.653 12.688 0 12.834-10.395 12.834-10.5a1.16 1.16 0 0 0-.887-1.123zm-23.613 9.29c-6.203 0-8.741-2.836-9.78-5.167.752.299 1.67.5 2.78.5 2.025 0 3.395-.684 4.605-1.29 1.119-.56 2.087-1.043 3.561-1.043 2.894 0 3.5 1.904 3.5 3.5 0 1.683-1.784 3.5-4.666 3.5zm11.666 0c-2.882 0-4.666-1.817-4.666-3.5 0-1.596.606-3.5 3.5-3.5 1.474 0 2.442.483 3.561 1.044 1.21.605 2.58 1.29 4.605 1.29 1.124 0 2.049-.207 2.808-.512-1.023 2.334-3.553 5.178-9.808 5.178zM18.946 17.31a4.414 4.414 0 1 0-.014 8.829c2.446 0 4.433-1.986 4.433-4.415a4.42 4.42 0 0 0-4.419-4.414zm-.014 5.971c-.858 0-1.559-.7-1.559-1.557s.7-1.557 1.559-1.557c.858 0 1.559.7 1.559 1.557s-.687 1.557-1.56 1.557zm18.359-5.985a4.42 4.42 0 0 0-4.42 4.414c0 2.429 1.974 4.429 4.42 4.429a4.42 4.42 0 0 0 4.42-4.415 4.432 4.432 0 0 0-4.42-4.428zm0 5.985c-.858 0-1.559-.7-1.559-1.557s.7-1.557 1.559-1.557c.858 0 1.559.7 1.559 1.557s-.701 1.557-1.56 1.557z"/>
</svg>
