<svg xmlns="http://www.w3.org/2000/svg" width="356" height="324" viewBox="0 0 356 324">
    <defs>
        <filter id="a" width="133.6%" height="137.9%" x="-13.4%" y="-15.2%" filterUnits="objectBoundingBox">
            <feOffset dx="10" dy="10" in="SourceAlpha" result="shadowOffsetOuter1"/>
            <feGaussianBlur in="shadowOffsetOuter1" result="shadowBlurOuter1" stdDeviation="15"/>
            <feColorMatrix in="shadowBlurOuter1" result="shadowMatrixOuter1" values="0 0 0 0 0 0 0 0 0 0 0 0 0 0 0 0 0 0 0.124858469 0"/>
            <feMerge>
                <feMergeNode in="shadowMatrixOuter1"/>
                <feMergeNode in="SourceGraphic"/>
            </feMerge>
        </filter>
    </defs>
    <g fill="none" fill-rule="evenodd" filter="url(#a)" transform="translate(19 20)">
        <path fill="#FFF" d="M92.27 264l63.766-182.047L217.979 264H278v-8.102L183.334 0h-51.877L35 255.897V264z"/>
        <path fill="#F4811F" d="M189.633 99.268c-14.378 3.153-8.921 15.718-8.61 15.594 10.02-3.975 7.292-11.047 10.48-15.862l-1.87.268zm-17.239 14.03c-65.717 40.018-31.615 100.627 2.265 109.176 35.093 8.855 81.597-20.763 47.361-90.656-1.367-2.79-6.58 10.932-12.056 15.972-.742.682.731-9.714-11.05-36.262-.62-1.398-22.964 26.061-22.942 26.038 4.02-4.335-6.533-8.522-3.578-24.269zm38.1 11.743c8.808-6.33 3.944-12.25 1.982-16.243-7.496 3.967-2.35 16.507-1.982 16.243z"/>
        <path fill="#8DD7F7" d="M237.99 135.14c8.96-1.07 17.092 4.082 19.448 11.842 2.003-2.09 4.767-3.542 7.932-3.92 6.956-.832 13.21 3.833 13.968 10.42a11.44 11.44 0 0 1-.283 4.157c.569-.128 1.15-.23 1.744-.3 8.553-1.024 16.216 4.476 17.114 12.284.486 4.214-1.1 8.24-4.007 11.212a23.997 23.997 0 0 1 3.7 10.322c.826 7.177-1.599 14.019-6.14 19.143.053.294.098.591.133.893.827 7.188-4.15 13.691-11.118 14.525a12.35 12.35 0 0 1-7.844-1.682c-2.671 3.409-6.885 5.864-11.829 6.455-4.818.576-9.364-.733-12.714-3.286-2.438 3.48-6.695 6.056-11.76 6.662-8.486 1.015-16.025-3.884-16.837-10.942a10.97 10.97 0 0 1 .479-4.667c-1.361.506-2.805.861-4.313 1.041-10.004 1.198-19.025-5.739-20.148-15.492-.69-5.998 1.767-11.664 6.088-15.416-4.103-3.176-6.886-7.65-7.484-12.846-1.306-11.344 8.299-21.817 21.453-23.39a27.641 27.641 0 0 1 6.158-.052c.092-8.467 6.989-15.853 16.26-16.962z"/>
        <path fill="#EC1651" d="M47.244 157.69c2.211-14.029 6.314-21.957 18.307-25.613 13.238-4.036 27.372 3.621 31.55 17.092 7.569 24.403-8.845 56.117-25.26 87.831-31.55-17.091-63.101-34.184-70.67-58.587-4.177-13.47 3.176-27.677 16.414-31.714 11.992-3.655 19.88.618 29.66 10.992z"/>
        <path fill="#8DD7F7" d="M26.814 135.95c.346 1.884 1.214 3.487 2.331 4.553 1.011.964 2.215 1.468 3.366 1.276.688-.114 1.341.333 1.46 1l.01.044c.12.668-.342 1.305-1.03 1.421l-.025.004c-1.134.196-2.073 1.047-2.674 2.263-.664 1.345-.911 3.107-.584 4.97l.015.085c.117.668-.346 1.303-1.036 1.416-.687.114-1.34-.333-1.46-.999-.347-1.883-1.214-3.487-2.332-4.553-1.011-.964-2.215-1.467-3.366-1.276-.688.114-1.341-.333-1.46-.999l-.01-.044c-.12-.668.341-1.305 1.03-1.422l.025-.004c1.134-.196 2.073-1.047 2.673-2.262.664-1.344.912-3.104.586-4.965l-.016-.085h.003c-.08-.645.377-1.245 1.044-1.355.665-.11 1.298.304 1.447.933h.003z"/>
        <path fill="#FFCA05" d="M106.778 131.616l16.242 22.236 27.737-3.552c3.512-.444 6.73 1.959 7.188 5.367a6.068 6.068 0 0 1-1.208 4.511l-16.656 21.856 12.096 24.624c1.527 3.112.165 6.836-3.041 8.318a6.592 6.592 0 0 1-5.126.17l-26.213-8.605-20.26 18.743c-2.568 2.371-6.631 2.273-9.074-.22a6.105 6.105 0 0 1-1.756-4.658l.265-26.963-24.626-13.013c-3.11-1.643-4.257-5.422-2.564-8.44a6.353 6.353 0 0 1 3.724-2.964l-.004-.012 26.68-8.126 5.06-26.784c.639-3.382 3.981-5.62 7.465-5a6.422 6.422 0 0 1 4.071 2.512z"/>
        <path fill="#8DD7F7" d="M13.569 155.397c.655 1.133 1.595 1.981 2.58 2.435.892.411 1.807.488 2.531.132.433-.213.97-.06 1.2.341l.015.027c.231.402.067.903-.366 1.117l-.016.008c-.71.355-1.145 1.09-1.271 1.988-.14.994.093 2.17.73 3.293l.03.05c.229.404.062.904-.371 1.116-.433.213-.97.06-1.2-.342-.655-1.132-1.595-1.98-2.58-2.434-.892-.41-1.807-.488-2.531-.131-.433.212-.97.059-1.2-.342l-.015-.027c-.231-.403-.067-.903.366-1.118l.016-.007c.711-.355 1.145-1.09 1.272-1.988.139-.992-.093-2.168-.73-3.29l-.03-.051.002-.001c-.198-.396-.029-.871.391-1.077.419-.206.934-.07 1.176.302h.001z"/>
        <path fill="#FEFEFE" d="M79 209l.687-57.258.913-.173 26.59 30.988 12.394-38.377.951-.18L142 197.06l-12.064 2.286-9.085-23.547-9.32 29.067-.85.161-20.334-23.824-.021 25.65zM50.533 212L35 169.841 60.236 160l3.203 8.694-15.743 6.14 2.808 7.621 13.486-5.259 3.18 8.634-13.485 5.26 3.071 8.336 15.975-6.23L76 202.07zM167.588 175.367c-.368 4.47.613 8.335 2.947 11.57 2.333 3.236 5.388 5.019 9.164 5.338 3.801.322 7.116-.91 9.933-3.698 2.817-2.8 4.406-6.447 4.775-10.943.372-4.519-.595-8.407-2.917-11.641-2.321-3.235-5.388-5.019-9.188-5.34-3.777-.32-7.08.926-9.91 3.725-2.83 2.798-4.432 6.469-4.804 10.989zm-12.478-1.056c.314-3.817 1.253-7.324 2.829-10.534 1.565-3.222 3.721-6.029 6.46-8.445a24.47 24.47 0 0 1 8.78-5.064c3.255-1.08 6.62-1.466 10.074-1.174a25.286 25.286 0 0 1 9.765 2.864c3.057 1.612 5.705 3.8 7.947 6.54a25.464 25.464 0 0 1 4.894 9.258c1.005 3.429 1.343 7.08 1.026 10.934-.265 3.222-.957 6.214-2.074 8.974a25.95 25.95 0 0 1-4.609 7.443c-2.748 3.123-5.997 5.459-9.758 6.995a24.818 24.818 0 0 1-11.702 1.805 24.949 24.949 0 0 1-9.694-2.857c-3.032-1.611-5.656-3.797-7.874-6.535-2.307-2.83-3.975-5.96-4.993-9.377-1.031-3.406-1.384-7.022-1.07-10.827zM203.528 199.536c1.444 1.06 2.803 1.926 4.066 2.579 1.245.666 2.381 1.102 3.407 1.322 2.987.641 5.317.09 7.004-1.652 1.688-1.741 3.023-5.026 4.005-9.852L224.843 178 240 181.256l-3.578 17.599c-1.521 7.484-4.56 12.81-9.109 15.961-4.548 3.152-10.358 3.96-17.432 2.44a29.893 29.893 0 0 1-3.94-1.133 37.464 37.464 0 0 1-3.941-1.675l1.528-14.912zM246 212.778L259.423 164 271 167.222 257.577 216zM229.493 149L245 150.242 242.507 179 227 177.759z"/>
    </g>
</svg>
