<svg width="67" height="30" viewBox="0 0 67 30" fill="none" xmlns="http://www.w3.org/2000/svg">
<g clip-path="url(#clip0)">
<path d="M44.1177 4C38.7157 4 34.9211 6.91412 34.8876 11.081C34.8534 14.1679 37.6013 15.8892 39.668 16.9151C41.8002 17.9639 42.5124 18.638 42.5055 19.5763C42.4843 21.0145 40.7992 21.6698 39.2335 21.6698C37.0506 21.6698 35.8869 21.3463 34.0981 20.5481L33.3888 20.206L32.6249 25.0086C33.902 25.6062 36.2605 26.124 38.7123 26.1511C44.4448 26.1511 48.1746 23.2704 48.219 18.8225C48.2415 16.3742 46.783 14.5212 43.6293 12.9913C41.7255 11.9966 40.5484 11.3371 40.5659 10.3292C40.5674 9.43862 41.5537 8.48417 43.6948 8.48417C45.483 8.45363 46.769 8.87011 47.7816 9.30879L48.2686 9.55536L49.0115 4.90312C47.9325 4.47062 46.2297 4.00012 44.1174 4.00012L44.1177 4ZM27.1594 4.37429L23.7427 25.8338H29.2016L32.6202 4.37404H27.1601L27.1594 4.37429ZM19.162 4.39511L13.8166 19.0205L13.2467 16.0487C11.9155 12.4046 9.03374 8.58202 5.67773 7.03283L10.5675 25.8133L16.3479 25.8106L24.9438 4.39527H19.162V4.39511ZM58.7987 4.3965C57.4908 4.3965 56.5107 4.77479 55.9333 6.17765L47.827 25.8409H53.5624C53.5624 25.8409 54.5001 23.1941 54.7122 22.6147C55.3381 22.6147 60.9086 22.6269 61.7034 22.6269C61.8723 23.3752 62.3683 25.8406 62.3683 25.8406H67.4394L63.0176 4.39651H58.7989L58.7987 4.3965ZM59.1846 10.182L59.5485 12.032C59.5485 12.032 60.5978 17.1522 60.8168 18.2246H56.2835C56.737 16.9932 58.4588 12.2263 58.4588 12.2263C58.4253 12.2846 58.9068 10.985 59.1845 10.1819L59.1846 10.182Z" fill="#fff"/>
<path d="M8.85872 4.38359H0.0513059L0 4.75287C6.84762 6.52989 11.3653 10.8937 13.2463 16.054L11.3323 6.19111C11.0033 4.83472 10.0449 4.43145 8.85872 4.38354" fill="#fff"/>
</g>
<defs>
<clipPath id="clip0">
<rect width="67" height="30" fill="#fff"/>
</clipPath>
</defs>
</svg>
