<svg width="123" height="30" viewBox="0 0 123 30" fill="none" xmlns="http://www.w3.org/2000/svg">
<path fill-rule="evenodd" clip-rule="evenodd" d="M3.23612 22.7542H0.439453V21.2839L5.80148 7.00019H9.35514L14.6961 21.0738V22.7542H11.6682L10.4486 19.4144H4.43469L3.23612 22.7542ZM9.52389 16.5576L7.46318 10.7601L5.40248 16.5576H9.52389ZM17.0647 22.7541V7H23.352C24.88 7 26.0926 7.3851 26.9897 8.1553C27.8869 8.9255 28.3355 9.94775 28.3355 11.2221C28.3355 11.9923 28.1463 12.668 27.7678 13.2491C27.3893 13.8303 26.8776 14.2469 26.2327 14.4989C27.0739 14.765 27.7327 15.2131 28.2093 15.8433C28.686 16.4734 28.9243 17.2086 28.9243 18.0488C28.9243 19.4772 28.4371 20.6185 27.4629 21.4727C26.4886 22.3269 25.1463 22.7541 23.4361 22.7541H17.0647ZM20.4081 13.3437H22.8052C23.4641 13.3437 23.9827 13.1861 24.3612 12.871C24.7397 12.556 24.929 12.1253 24.929 11.5792C24.929 11.0331 24.7503 10.5955 24.3928 10.2664C24.0353 9.93728 23.5342 9.77274 22.8893 9.77274H20.4081V13.3437ZM20.4081 19.9813H23.0786C23.8636 19.9813 24.4629 19.7783 24.8764 19.3722C25.29 18.9661 25.4967 18.4829 25.4967 17.9228C25.4967 17.3627 25.297 16.9005 24.8974 16.5364C24.4979 16.1723 23.8986 15.9903 23.0996 15.9903H20.4081V19.9813ZM31.8387 22.7541V7H35.3293V17.4607L41.8268 7H45.2964V22.7541H41.8268V12.3774L35.3293 22.7541H31.8387ZM50.4194 22.7541H47.6228V21.2837L52.9848 7H56.5385L61.8795 21.0736V22.7541H58.8515L57.6319 19.4142H51.618L50.4194 22.7541ZM56.7065 16.5576L54.6458 10.7601L52.5851 16.5576H56.7065ZM64.248 22.7541V7H77.201V22.7541H73.7104V9.96176H67.7386V22.7541H64.248ZM82.3237 22.7541H79.5271V21.2837L84.8891 7H88.4427L93.7838 21.0736V22.7541H90.7558L89.5362 19.4142H83.5223L82.3237 22.7541ZM88.6108 16.5576L86.5501 10.7601L84.4894 16.5576H88.6108ZM96.1516 22.7541V7H101.219C103.07 7 104.545 7.46912 105.646 8.40736C106.746 9.34561 107.296 10.6059 107.296 12.1883C107.296 12.8745 107.17 13.5467 106.918 14.2049C106.665 14.863 106.283 15.4407 105.772 15.9378C105.26 16.4349 104.626 16.8375 103.869 17.1456C103.112 17.4537 102.229 17.6077 101.219 17.6077H99.6422V22.7541H96.1516ZM99.5794 14.7089H101.199C101.998 14.7089 102.632 14.4778 103.102 14.0157C103.571 13.5536 103.806 12.9514 103.806 12.2092C103.806 11.5511 103.578 11.0014 103.123 10.5603C102.667 10.1192 102.026 9.89865 101.199 9.89865H99.5794V14.7089ZM113.491 15.9063V22.7541H110.001V7H113.491V13.7637L119.19 7H121.944V8.57541L116.793 14.5619L122.533 21.1156V22.7541H119.463L113.491 15.9063Z" fill="#fff"/>
</svg>
