<svg width="160" height="30" viewBox="0 0 160 30" fill="none" xmlns="http://www.w3.org/2000/svg">
<g clip-path="url(#clip0)">
<path d="M34.1123 6.50602C34.1568 6.10252 34.046 5.69722 33.802 5.37108H37.4961C38.8978 5.37108 41.2924 5.77952 41.2924 8.31687C41.2924 9.46988 40.5988 10.3952 39.3103 10.8723L40.9091 13.4386C41.1919 13.9136 41.5396 14.3478 41.9421 14.7289H39.4344L37.3099 11.1506H36.1199V13.594C36.0764 13.9979 36.1885 14.4033 36.4338 14.7289H33.802C34.046 14.4028 34.1568 13.9975 34.1123 13.594V6.50602ZM36.1236 6.50602V10.0807H37.2187C38.5948 10.0807 39.2738 9.40843 39.2738 8.32771C39.2738 6.73012 38.2553 6.52048 37.2187 6.52048L36.1236 6.50602ZM50.0238 13.6048C49.9803 14.0088 50.0924 14.4141 50.3377 14.7398H48.1257V14.1398C47.4079 14.6353 46.5513 14.8957 45.6763 14.8843C43.6066 14.8843 42.8145 13.7747 42.8145 11.8952V7.79638C42.8581 7.39242 42.7459 6.98707 42.5006 6.66144H45.0558C44.8105 6.98707 44.6984 7.39242 44.7419 7.79638V11.8663C44.7419 13.2289 45.1982 13.7892 46.3151 13.7892C46.6485 13.7855 46.9779 13.7166 47.2843 13.5863C47.5906 13.4561 47.8679 13.267 48.1001 13.0301V7.79638C48.1447 7.39288 48.0339 6.98759 47.7899 6.66144H50.3451C50.0997 6.98707 49.9876 7.39242 50.0311 7.79638L50.0238 13.6048ZM57.0835 8.29879C56.4898 7.79511 55.7371 7.51258 54.9553 7.5C54.0793 7.5 53.6267 7.89397 53.6267 8.41084C53.6267 8.81927 53.8238 9.1012 54.5027 9.39397L56.4009 10.2361C57.4375 10.6988 57.8318 11.3458 57.8318 12.2711C57.8318 13.547 56.7987 14.8952 54.448 14.8952C53.2995 14.933 52.178 14.5465 51.3014 13.8108L51.9548 12.6614C52.2551 13.0267 52.6297 13.3251 53.0542 13.5375C53.4788 13.7499 53.9437 13.8713 54.4188 13.894C55.4956 13.894 55.919 13.3482 55.919 12.7879C55.9312 12.5529 55.8623 12.3208 55.7237 12.1297C55.585 11.9386 55.3849 11.7998 55.1561 11.7361L53.1923 10.8434C52.2724 10.4349 51.7322 9.86024 51.7322 8.89156C51.7322 7.61566 52.8674 6.52048 54.8093 6.52048C55.9555 6.52048 56.5213 6.77349 57.0324 6.77349C57.2932 6.77525 57.5483 6.69696 57.7624 6.5494L57.0835 8.29879ZM64.081 8.29879C63.4917 7.78462 62.7382 7.49279 61.9529 7.4747C61.0769 7.4747 60.6206 7.86867 60.6206 8.38554C60.6206 8.79397 60.8213 9.0759 61.5003 9.36867L63.3984 10.2108C64.4351 10.6735 64.8293 11.3205 64.8293 12.2458C64.8293 13.5217 63.7963 14.8699 61.4455 14.8699C60.2971 14.9077 59.1756 14.5212 58.299 13.7855L58.9488 12.6361C59.2498 13.0014 59.625 13.3 60.0501 13.5123C60.4753 13.7247 60.9407 13.8461 61.4163 13.8687C62.5114 13.8687 62.9166 13.3229 62.9166 12.7626C62.9288 12.5276 62.8599 12.2955 62.7213 12.1044C62.5826 11.9133 62.3825 11.7745 62.1537 11.7108L60.1862 10.8434C59.2663 10.4349 58.7261 9.86024 58.7261 8.89156C58.7261 7.61566 59.8613 6.52048 61.7996 6.52048C62.9495 6.52048 63.5152 6.77349 64.0263 6.77349C64.2872 6.77525 64.5422 6.69696 64.7563 6.5494L64.081 8.29879ZM68.2643 13.6048C68.2197 14.0083 68.3305 14.4136 68.5745 14.7398H66.0193C66.2634 14.4136 66.3742 14.0083 66.3296 13.6048V7.82168C66.3742 7.41818 66.2634 7.01289 66.0193 6.68675H68.5745C68.3305 7.01289 68.2197 7.41818 68.2643 7.82168V13.6048ZM75.2509 13.0012H71.7065L71.524 13.4639C71.283 14.0819 71.2392 14.306 71.451 14.7398H69.4835C69.8179 14.3791 70.0815 13.9599 70.261 13.5036L72.9038 7.44578C72.7525 7.15235 72.5512 6.88699 72.3088 6.66144H74.6486L77.5944 13.4783C77.7602 13.9428 78.0283 14.3651 78.3792 14.7145H75.5028C75.7291 14.2373 75.6451 13.9916 75.4188 13.4386L75.2509 13.0012ZM72.1189 12.0036H74.853L73.5207 8.60964L72.1189 12.0036ZM84.9497 7.79638C84.9932 7.39242 84.8811 6.98707 84.6357 6.66144H87.1909C86.9469 6.98759 86.8361 7.39288 86.8807 7.79638V13.5795C86.8361 13.983 86.9469 14.3883 87.1909 14.7145H84.6357C84.8811 14.3888 84.9932 13.9835 84.9497 13.5795V13.5072L81.533 9.56747V13.5795C81.4895 13.9835 81.6016 14.3888 81.8469 14.7145H79.2917C79.5371 14.3888 79.6492 13.9835 79.6057 13.5795V7.79638C79.6492 7.39242 79.5371 6.98707 79.2917 6.66144H81.8469C81.6016 6.98707 81.4895 7.39242 81.533 7.79638V7.86867L84.9497 11.8229V7.79638ZM95.123 14.8699C93.8264 14.881 92.5762 14.3924 91.637 13.5072L92.4181 12.2602C92.7269 12.7114 93.1402 13.0829 93.6234 13.3438C94.1066 13.6047 94.6458 13.7475 95.196 13.7602C96.229 13.7602 96.9226 13.312 96.9226 12.4265C96.9226 11.7398 96.5137 11.3747 95.8056 11.0819L93.9184 10.294C92.7576 9.80241 92.221 9.01807 92.221 8.02048C92.221 6.5494 93.4804 5.28795 95.5063 5.28795C96.7401 5.28795 97.3314 5.49759 98.087 5.49759C98.4403 5.50286 98.788 5.41021 99.0908 5.23012L98.0907 7.32289C97.4291 6.69444 96.5542 6.33349 95.6377 6.31084C94.7032 6.31084 94.152 6.81687 94.152 7.4747C94.152 8.13253 94.6886 8.3747 95.1996 8.59879L97.1124 9.4265C98.244 9.91807 98.8244 10.7458 98.8244 11.8663C98.8207 13.8434 97.2 14.8699 95.1303 14.8699H95.123ZM100.879 7.71325C100.245 7.66567 99.611 7.80261 99.0543 8.10723L99.7041 6.66144H107.059L106.406 8.10723C106.262 7.96219 106.087 7.85138 105.893 7.78314C105.7 7.7149 105.493 7.691 105.289 7.71325H104.004V13.5795C103.96 13.983 104.07 14.3883 104.314 14.7145H101.759C102.005 14.3888 102.117 13.9835 102.073 13.5795V7.71325H100.879ZM111.797 12.9759H108.253L108.071 13.4386C107.83 14.0566 107.786 14.2807 107.998 14.7145H106.03C106.364 14.3538 106.628 13.9346 106.808 13.4783L109.443 7.44578C109.292 7.15235 109.091 6.88699 108.848 6.66144H111.188L114.152 13.4783C114.324 13.9448 114.6 14.3672 114.959 14.7145H112.082C112.312 14.2373 112.225 13.9916 111.998 13.4386L111.797 12.9759ZM108.676 11.9783H111.411L110.078 8.58434L108.676 11.9783ZM121.303 7.79638C121.346 7.39242 121.234 6.98707 120.989 6.66144H123.544C123.3 6.98759 123.189 7.39288 123.234 7.79638V13.5795C123.189 13.983 123.3 14.3883 123.544 14.7145H120.989C121.234 14.3888 121.346 13.9835 121.303 13.5795V13.5072L117.886 9.56747V13.5795C117.843 13.9835 117.955 14.3888 118.2 14.7145H115.645C115.889 14.3883 116 13.983 115.955 13.5795V7.79638C116 7.39288 115.889 6.98759 115.645 6.66144H118.2C117.955 6.98707 117.843 7.39242 117.886 7.79638V7.86867L121.303 11.8229V7.79638ZM125.212 14.7145C125.458 14.3888 125.57 13.9835 125.526 13.5795V7.79638C125.57 7.39242 125.458 6.98707 125.212 6.66144H128.344C131.206 6.66144 133.006 7.99518 133.006 10.6048C133.006 13.0301 130.98 14.7145 128.344 14.7145H125.212ZM127.453 7.69879V13.6771H128.184C129.786 13.6771 131.045 12.7373 131.045 10.6048C131.045 8.47229 129.728 7.71325 128.184 7.71325L127.453 7.69879ZM138.609 12.9759H135.068L134.885 13.4386C134.645 14.0566 134.601 14.2807 134.812 14.7145H132.845C133.179 14.3538 133.443 13.9346 133.622 13.4783L136.258 7.44578C136.114 7.15425 135.922 6.88902 135.689 6.66144H138.028L140.974 13.4783C141.145 13.9455 141.421 14.3682 141.781 14.7145H138.904C139.131 14.2373 139.047 13.9916 138.82 13.4386L138.609 12.9759ZM135.48 11.9783H138.244L136.911 8.58434L135.48 11.9783ZM144.902 13.5795C144.858 13.9835 144.97 14.3888 145.216 14.7145H142.661C142.905 14.3883 143.015 13.983 142.971 13.5795V7.79638C143.015 7.39288 142.905 6.98759 142.661 6.66144H145.822C147.081 6.66144 149.22 6.92891 149.22 9.09036C149.22 10.3373 148.384 10.9554 147.534 11.3458L148.895 13.4928C149.173 13.9894 149.572 14.4093 150.056 14.7145H147.563L145.665 11.6133H144.898L144.902 13.5795ZM144.902 7.63012V10.659H145.497C146.701 10.659 147.322 10.0699 147.322 9.09036C147.322 7.77108 146.387 7.64458 145.497 7.64458L144.902 7.63012ZM33.9334 26.841C34.1774 26.5148 34.2882 26.1095 34.2437 25.706V19.9229C34.2912 19.5241 34.1871 19.1221 33.9517 18.7952H37.4961C39.5767 18.7952 40.1863 19.9879 40.1863 20.8157C40.1861 21.1563 40.0939 21.4908 39.9194 21.7844C39.7448 22.078 39.4942 22.32 39.1935 22.4855C39.6124 22.6116 39.9762 22.8739 40.2259 23.2301C40.4757 23.5863 40.5967 24.0154 40.5696 24.4482C40.5696 25.8108 39.5475 26.8482 37.3245 26.8482L33.9334 26.841ZM36.0871 22.1711H36.9923C38.0874 22.1711 38.3977 21.4699 38.3977 20.8373C38.3977 20.2048 38.0838 19.6879 37.0361 19.6879H36.0871V22.1711ZM37.1311 25.9157C38.1385 25.9157 38.7043 25.5542 38.7043 24.4699C38.7043 23.5012 38.04 23.0675 37.0325 23.0675H36.098V25.9157H37.1311ZM46.6984 25.1024H43.154L42.9715 25.5651C42.7306 26.1831 42.6868 26.4072 42.8985 26.841H40.931C41.2644 26.4809 41.528 26.0631 41.7085 25.6084L44.344 19.5759C44.1953 19.2839 43.9964 19.0197 43.7563 18.7952H46.0961L49.0419 25.6157C49.2151 26.0807 49.4907 26.5017 49.8486 26.8482H46.9868C47.2168 26.3711 47.1292 26.1253 46.9028 25.5723L46.6984 25.1024ZM43.5665 24.1048H46.3005L44.9682 20.7108L43.5665 24.1048ZM56.4045 19.9265C56.453 19.5265 56.3489 19.123 56.1125 18.7952H58.6677C58.4231 19.1224 58.3123 19.5291 58.3574 19.9337V25.7169C58.3128 26.1204 58.4236 26.5257 58.6677 26.8518H56.1125C56.3565 26.5257 56.4673 26.1204 56.4228 25.7169V25.6446L52.9952 21.6867V25.6988C52.9516 26.1028 53.0637 26.5081 53.3091 26.8337H50.7539C50.9992 26.5081 51.1113 26.1028 51.0678 25.6988V19.9157C51.1115 19.5105 50.9995 19.104 50.7539 18.7771H53.3091C53.0635 19.104 52.9514 19.5105 52.9952 19.9157V19.9843L56.4118 23.9422L56.4045 19.9265ZM62.61 22.7458L65.417 19.8542C65.8989 19.3626 65.9682 19.1675 65.9536 18.7699H68.4504C67.9324 19.118 67.4517 19.5176 67.0159 19.9626L64.5957 22.3626L67.2312 25.547C67.606 26.0728 68.0949 26.5087 68.6621 26.8229H65.4937C65.5056 26.645 65.4793 26.4667 65.4163 26.2997C65.3534 26.1327 65.2554 25.9808 65.1287 25.8542L62.6209 22.8253V25.6879C62.5774 26.0919 62.6895 26.4973 62.9349 26.8229H60.3797C60.6237 26.4967 60.7345 26.0914 60.6899 25.6879V19.9048C60.7351 19.5001 60.6243 19.0935 60.3797 18.7663H62.9349C62.6893 19.0932 62.5772 19.4997 62.6209 19.9048L62.61 22.7458ZM150.91 14.7145C151.154 14.3883 151.265 13.983 151.22 13.5795V7.79638C151.265 7.39288 151.154 6.98759 150.91 6.66144H154.038C156.9 6.66144 158.7 7.99518 158.7 10.6048C158.7 13.0301 156.674 14.7145 154.038 14.7145H150.91ZM153.148 7.69879V13.6771H153.9C155.499 13.6771 156.762 12.7373 156.762 10.6048C156.762 8.47229 155.444 7.71325 153.9 7.71325L153.148 7.69879ZM14.6819 28.4385C11.9982 28.4385 9.37479 27.6505 7.14346 26.1741C4.91212 24.6977 3.17307 22.5992 2.14624 20.1441C1.11941 17.689 0.850931 14.9875 1.37475 12.3813C1.89858 9.77503 3.19117 7.38116 5.08907 5.5024C6.98696 3.62363 9.4049 2.34436 12.0371 1.82638C14.6693 1.3084 17.3975 1.57497 19.8767 2.59239C22.3558 3.6098 24.4746 5.33235 25.9651 7.54219C27.4555 9.75203 28.2507 12.3499 28.2499 15.0072C28.2461 18.5689 26.8152 21.9835 24.2714 24.5017C21.7277 27.0198 18.2788 28.4357 14.6819 28.4385ZM14.6819 0C11.6857 0 8.7569 0.879734 6.26572 2.52796C3.77454 4.17618 1.8329 6.51886 0.686332 9.25975C-0.460233 12.0006 -0.760227 15.0166 -0.175713 17.9263C0.408801 20.8361 1.85157 23.5088 3.97015 25.6066C6.08872 27.7044 8.78795 29.133 11.7265 29.7118C14.6651 30.2906 17.7109 29.9935 20.479 28.8582C23.247 27.7229 25.6129 25.8003 27.2775 23.3335C28.942 20.8668 29.8305 17.9667 29.8305 15C29.8305 11.0218 28.2345 7.20644 25.3936 4.3934C22.5526 1.58035 18.6995 0 14.6819 0ZM16.507 25.9952C17.1789 25.8822 17.8397 25.7117 18.4818 25.4855C18.5304 25.4709 18.5742 25.4438 18.6088 25.407C18.6434 25.3701 18.6676 25.3249 18.6789 25.2759C19.095 24.1157 19.263 21.6181 18.0292 20.2771C18.7081 21.7699 18.427 24.2638 16.496 25.9952H16.507ZM25.943 14.9711C25.942 14.9443 25.9327 14.9185 25.9164 14.8972C25.9 14.8758 25.8775 14.86 25.8517 14.8518C25.2295 14.5904 24.5875 14.3777 23.9317 14.2157C24.0726 14.1458 24.1978 14.0483 24.2995 13.9289C24.4011 13.8096 24.4772 13.6711 24.523 13.5217C23.8534 13.8568 23.1078 14.0149 22.3584 13.9807C23.6326 14.4804 24.8266 15.161 25.9028 16.0012C25.9342 15.6588 25.9439 15.3147 25.932 14.9711H25.943ZM19.4856 15.9578C21.4604 16.8145 23.3476 18.8205 24.3076 20.7542C24.65 20.1864 24.9419 19.5901 25.18 18.9723C25.1958 18.9289 25.1972 18.8818 25.1841 18.8376C25.171 18.7934 25.144 18.7545 25.107 18.7265C23.5062 17.3384 21.5695 16.3845 19.4856 15.9578ZM19.7995 19.0193C20.2514 19.1655 20.7385 19.1655 21.1903 19.0193C19.3323 18.5458 18.2956 15.9651 14.0869 15.5964C13.8788 15.5964 13.459 15.6325 13.7218 15.2349C13.9847 14.8373 15.6309 13.7349 15.6309 13.7349C15.3134 13.7349 13.9007 13.8578 13.4736 13.9157C13.0465 13.9735 12.948 13.8361 12.9334 13.5542C12.9334 13.5542 12.0792 14.3458 12.4844 14.7506C12.5562 14.7889 12.6371 14.8074 12.7187 14.8043C12.8002 14.8011 12.8794 14.7763 12.948 14.7325C13.1925 14.6301 13.4453 14.5478 13.7036 14.4867C13.7328 14.4867 13.762 14.4867 13.7401 14.5337C13.5854 14.7634 13.4499 15.0052 13.3349 15.2566C13.2546 15.4988 13.2363 15.6181 13.616 15.7373C13.9956 15.8566 15.9339 16.4602 17.1239 17.2554C18.3139 18.0506 21.1136 20.212 20.9603 24.2385C21.5219 23.859 22.0473 23.4296 22.5299 22.9554C22.5626 22.9244 22.5857 22.8848 22.5966 22.8414C22.6076 22.7979 22.606 22.7522 22.592 22.7096C22.1941 21.5169 21.0698 19.7964 19.7995 19.0193ZM24.4609 9.91807C24.2383 9.73012 23.0483 8.98915 22.749 8.83373C22.4991 8.72029 22.2877 8.53784 22.1401 8.3083C21.9924 8.07876 21.9149 7.81189 21.9167 7.53976C21.9642 6.73373 21.475 5.73253 20.0076 4.44578C19.9928 4.56581 19.9928 4.68719 20.0076 4.80723C19.582 4.40847 19.05 4.1388 18.4745 4.03012C18.5385 3.78349 18.5897 3.53376 18.6278 3.28193C18.6339 3.21847 18.6229 3.15456 18.596 3.09666C18.5691 3.03875 18.5272 2.98893 18.4746 2.95223C18.422 2.91553 18.3605 2.89326 18.2963 2.88769C18.2322 2.88211 18.1677 2.89343 18.1095 2.92048C16.3537 3.7012 13.3641 3.67952 10.2395 6.65422C10.641 5.65684 11.3038 4.78349 12.1595 4.1241C11.3706 4.29841 10.6041 4.56031 9.87444 4.90482C9.67443 5.02374 9.50756 5.19022 9.38896 5.38916C8.6589 6.30361 7.62952 8.36747 7.18054 11.0494C6.93726 9.59736 6.94343 8.11506 7.19879 6.66506C6.58123 7.20775 6.02329 7.81352 5.53426 8.47229C5.36563 8.69142 5.27455 8.95943 5.27509 9.23494C5.25319 9.77711 5.43206 12.9614 6.6038 15.4301C5.43571 14.4651 4.43188 12.4301 4.0486 11.3132C3.72117 12.2292 3.52101 13.1849 3.45361 14.1542C3.43612 14.5667 3.5653 14.9721 3.81863 15.3C5.06924 17.37 6.82691 19.0943 8.92902 20.3132C7.63682 20.194 5.00497 18.6542 3.71278 17.6747C3.93962 18.5677 4.27677 19.4296 4.7166 20.241C5.0288 20.723 5.48034 21.1009 6.01245 21.3253C7.56382 22.1205 9.48386 22.847 12.6742 22.8072C11.006 23.5626 9.05313 23.4723 6.95057 23.1289C7.74873 23.8796 8.66004 24.5028 9.65178 24.9759C12.6304 26.2446 16.3245 24.3578 15.5579 20.8193C15.4279 21.1092 15.2374 21.3685 14.999 21.5803C14.7606 21.7921 14.4796 21.9516 14.1745 22.0482C15.39 20.8735 15.2695 18.9687 13.1743 18.759C12.3068 18.7244 11.4381 18.7341 10.5716 18.7879C10.3183 18.8207 10.0608 18.7947 9.81942 18.7119C9.57804 18.6291 9.35943 18.4918 9.18089 18.3108C9.57728 18.2928 9.97156 18.2433 10.3599 18.1626C10.8491 18.0578 11.8383 17.6747 12.4771 17.7108C12.4223 17.6169 12.1851 17.2301 11.2031 17.5952C11.0331 17.6556 10.848 17.6609 10.6748 17.6102C10.5015 17.5595 10.349 17.4555 10.2395 17.3132C11.2214 17.6024 11.5536 16.5217 12.4661 17.1072C12.6523 17.2229 12.9772 17.259 12.8312 16.9916C12.7571 16.8425 12.6405 16.7181 12.4959 16.634C12.3512 16.5498 12.1847 16.5095 12.0172 16.5181C10.9221 16.4783 10.1008 16.4169 9.38531 16.753C9.01878 16.9268 8.6834 17.1588 8.39243 17.4398C8.41433 16.9735 8.46544 15.7048 9.12249 15.1337C9.85254 14.5012 11.4295 14.2229 12.0646 14.1036C12.0211 14.0088 12.0004 13.9052 12.0042 13.8011C12.008 13.6969 12.0362 13.5951 12.0865 13.5036C12.3676 13.1422 13.2619 12.5241 18.5767 12.5241C18.423 12.6507 18.2802 12.7898 18.1496 12.9398C19.2736 13.0095 20.3808 13.2446 21.4349 13.6373C21.5152 13.6699 21.8437 13.7675 22.1978 13.153C22.3 12.9831 22.1978 12.947 21.8948 12.7916C21.9234 12.6998 21.9417 12.6053 21.9496 12.5096C21.9496 12.347 21.8364 12.4084 21.7926 12.441C21.6137 12.5675 21.1939 12.5711 21.1647 12.4084C21.0784 12.2055 20.9368 12.0304 20.7556 11.9027C20.5744 11.775 20.3609 11.6998 20.139 11.6855C20.3207 11.5314 20.5385 11.4248 20.7726 11.3756C21.0066 11.3263 21.2494 11.336 21.4787 11.4036C21.4787 11.4036 21.5298 11.6169 21.6904 11.5663C21.851 11.5157 21.9861 11.3458 22.0883 11.5157C22.1367 11.6028 22.1498 11.7049 22.1248 11.8012C22.1248 11.8916 22.1795 11.9928 22.3328 11.8518C22.4204 11.7723 22.5226 11.6639 22.6212 11.559C22.859 11.632 23.1135 11.632 23.3513 11.559C23.5567 11.4714 23.7381 11.3365 23.8803 11.1655C24.0226 10.9945 24.1215 10.7924 24.1689 10.5759C24.3806 10.4096 24.6398 10.0699 24.4609 9.91807ZM14.4008 9.7012C14.6636 9.6 14.8315 9.54217 15.1016 9.45903C15.3061 9.39397 15.4886 9.41566 15.3316 9.63976C14.7914 10.4096 14.7439 11.9169 15.547 12.2096C15.058 12.2233 14.5704 12.2668 14.0869 12.3398C14.0483 11.6427 14.1123 10.9439 14.2767 10.2651C13.9959 10.3568 13.7216 10.4667 13.4554 10.594C13.3568 9.18072 14.6125 6.82409 16.2807 6.11928C15.237 7.04868 14.5691 8.32132 14.4008 9.7012ZM17.8393 3.91807C17.6422 4.15301 17.2261 4.70964 17.332 5.0494C17.0528 5.11942 16.7831 5.22258 16.5289 5.35663C16.361 5.44699 16.277 5.32771 16.3281 5.21928C16.5844 4.67085 16.9983 4.20943 17.5181 3.89277C17.843 3.67952 17.8977 3.83132 17.8393 3.9V3.91807ZM21.2341 8.01687C21.2085 8.19759 21.1793 8.30602 20.9421 8.22289C20.8435 8.19036 20.6537 8.13614 20.5771 8.11807C20.5004 8.1 20.3836 8.06385 20.4347 8.1759C20.5632 8.44126 20.6186 8.73553 20.5953 9.02891C20.3115 8.50446 19.9414 8.03051 19.5002 7.6265C19.8962 7.56017 20.3027 7.59247 20.6829 7.72048C20.8691 7.78193 21.0479 7.81807 21.1465 7.03373C21.251 7.34431 21.281 7.67474 21.2341 7.99879V8.01687Z" fill="#fff"/>
</g>
<defs>
<clipPath id="clip0">
<rect width="160" height="30" fill="#fff"/>
</clipPath>
</defs>
</svg>
