<svg xmlns="http://www.w3.org/2000/svg" width="160" height="47" viewBox="0 0 160 47">
    <g fill="none" fill-rule="evenodd">
        <path fill="#1D71B8" d="M11.783 11.653L3.118.489H.268V24.4h6.311v-9.708l4.033 4.993h2.343l4.034-4.993V24.4h6.31V.49h-2.848zM74.55 18.19h.007v-7.545H62.938v5.713h5.81v.064a6.24 6.24 0 0 1-4.955 2.443 6.269 6.269 0 0 1-6.265-6.272 6.267 6.267 0 0 1 6.265-6.272c2.496 0 4.062 1.338 4.957 2.518l5.163-2.85C71.768 2.54 68.003.49 63.752.49c-8.8 0-12.433 6.851-12.433 12.12 0 6.831 5.476 12.184 12.464 12.184 4.417 0 8.286-2.188 10.347-5.855l.42-.747zM123.295 6.321c4.09 0 5.698 3.599 5.908 4.196l4.856-3.43-.43-.75c-2.1-3.662-5.981-5.848-10.377-5.848-8.8 0-12.432 6.851-12.432 12.12 0 6.831 5.477 12.184 12.466 12.184 4.416 0 8.284-2.188 10.346-5.855l.421-.747-4.873-3.46a6.262 6.262 0 0 1-5.885 4.134 6.269 6.269 0 0 1-6.265-6.272 6.267 6.267 0 0 1 6.265-6.272M102.44 24.4h6.312V10.43l-6.312 1.814zM37.835.49c-6.99 0-12.466 5.351-12.466 12.184 0 5.271 3.632 12.119 12.434 12.119 4.254 0 8.016-2.052 10.16-5.5l-5.162-2.85c-.896 1.18-2.46 2.518-4.959 2.518-2.372 0-4.4-1.098-5.351-3.176l-.004.002c-.666-1.25-.848-3.068-.57-4.483.19-.983.555-1.86.924-2.381 1.102-1.55 2.954-2.508 5.001-2.508 2.021 0 3.812.96 4.956 2.445v.063h-8.185l-1.273 5.714h15.268s.642-.871.642-3.805c0-1.617-.554-3.59-1.069-4.487C46.01 2.55 42.251.489 37.835.489"/>
        <path fill="#E83273" d="M95.634 3.569L98.518.478h-8.89z"/>
        <path fill="#1D71B8" d="M102.444 6.933l6.308 2.487V.478h-6.308zM86.203 14.277l5.466-6.446L88.001.478l-2.189.011-12.101 23.912h6.596l2.049-4.028h8.956l2.064 4.028h6.598L94.92 14.277zM147.706.49c-6.993 0-12.467 5.351-12.467 12.184 0 5.271 3.633 12.119 12.433 12.119 4.254 0 8.017-2.052 10.16-5.5l-5.162-2.85c-.894 1.18-2.46 2.518-4.956 2.518-2.374 0-4.402-1.098-5.354-3.176l-.002.002c-.668-1.25-.848-3.068-.573-4.483.191-.983.556-1.86.924-2.381 1.105-1.55 2.957-2.508 5.005-2.508a6.24 6.24 0 0 1 4.952 2.445v.063h-8.183l-1.274 5.714h15.268s.642-.871.642-3.805c0-1.617-.554-3.59-1.067-4.487-2.174-3.795-5.93-5.856-10.346-5.856"/>
        <path fill="#E83273" d="M48.153 42.849h.794c.931 0 1.455-.523 1.455-1.456 0-.832-.484-1.383-1.775-1.383h-.474v2.839zm-1.662-5.986l-.177-1.317h5.138v1.267h-3.299v1.957h.78c2.21 0 3.157 1.137 3.157 2.66 0 1.522-.947 2.66-3.157 2.66h-2.442v-7.227zM57.097 43.017c1.354 0 2.248-1.356 2.248-3.184 0-1.831-.894-3.187-2.248-3.187s-2.262 1.356-2.262 3.187c0 1.828.908 3.184 2.262 3.184m4.014-3.263c0 2.559-1.79 4.503-4.116 4.503-2.502 0-3.92-1.905-3.92-4.35 0-2.546 1.76-4.488 4.086-4.488 2.633 0 3.95 1.802 3.95 4.335M65.211 38.206c-.168 3.39-.293 6.051-2.44 6.051-.245 0-.626-.037-.87-.14l-.152-1.37c.203.104.409.13.575.13.945 0 1.099-1.664 1.24-4.684l.062-1.33-.18-1.317h5.79v7.434c.038.318.116.803.154 1.113h-1.815v-7.217h-2.3l-.064 1.33zM73.452 42.849h.792c.936 0 1.458-.523 1.458-1.456 0-.832-.487-1.383-1.778-1.383h-.472v2.839zm-1.661-5.986l-.18-1.317h1.852v3.224h.768c2.212 0 3.157 1.137 3.157 2.66 0 1.522-.945 2.66-3.157 2.66h-2.44v-7.227zM87.558 35.546h1.84v8.545H79.022v-7.228l-.177-1.317h1.837v7.214h2.697v-5.897l-.18-1.317h1.841v7.214h2.695v-5.897zM91.787 36.863l-.178-1.317h4.894v1.267h-3.054v2.264h2.696l-.32 1.267H93.45v2.482h3.218l-.318 1.265h-4.562zM97.842 45.166c.474-.422.754-.87.754-1.242 0-.358-.127-.472-.37-.587v-.09c0-.37.346-.869.859-.869.471 0 .905.319.905.984 0 .614-.461 1.613-1.637 2.431l-.51-.627zM105.038 38.397v-1.534l-.18-1.317h1.839v2.851c0 1.089.511 1.537 1.46 1.537.803 0 1.76-.383 1.76-.383v-2.688c-.05-.384-.126-.96-.179-1.317h1.841v7.228l.178 1.317h-1.84v-3.198a7.118 7.118 0 0 1-2.185.344c-1.57 0-2.694-.867-2.694-2.84M114.149 36.863l-.18-1.317h4.891v1.267h-3.052v2.264h2.697l-.318 1.267h-2.379v2.482h3.221l-.322 1.265h-4.558zM122.567 39.628l-.42-.831v4.196l.14 1.1h-1.61v-7.23l-.18-1.317h1.316l3.563 5.079 3.262-5.08h1.111v7.448l.14 1.1h-1.801V38.81l-.373.818-2.477 3.67zM138.014 38.206c-.164 3.39-.291 6.051-2.44 6.051-.243 0-.625-.037-.87-.14l-.151-1.37c.204.104.41.13.574.13.945 0 1.1-1.664 1.239-4.684l.064-1.33-.178-1.317h5.788v7.434c.037.318.116.803.153 1.113h-1.813v-7.217h-2.302l-.064 1.33zM148.211 34.791c-.397 0-.715-.347-.715-.781 0-.435.318-.79.715-.79.383 0 .715.355.715.79 0 .434-.332.781-.715.781zm-2.352 0c-.382 0-.715-.347-.715-.781 0-.435.333-.79.715-.79.383 0 .715.355.715.79 0 .434-.332.781-.715.781zm-1.15 2.072l-.177-1.317h4.892v1.267h-3.054v2.264h2.696l-.32 1.267h-2.376v2.48h3.22l-.32 1.269h-4.56v-7.23zM152.861 42.76h2.99v-5.884h-2.21v.845c0 1.894-.153 3.543-.78 5.04zm-2.657 0h.868c.768-1.483.908-3.107.908-5.04l.013-.857-.178-1.317h5.698v7.214h.958l.026 3.418h-1.635l-.013-2.087h-5.021l-.013 2.087h-1.637l.026-3.418z"/>
    </g>
</svg>
