<svg xmlns="http://www.w3.org/2000/svg" xmlns:xlink="http://www.w3.org/1999/xlink" width="160" height="35" viewBox="0 0 160 35">
    <defs>
        <path id="a" d="M.012.148h9.144V10.88H.012z"/>
    </defs>
    <g fill="none" fill-rule="evenodd">
        <path fill="#1A1919" d="M13.424 27.895c2.236-.135 5.635-1.497 8.121-2.653 2.486-1.156 5.389-3.187 6.614-5.07 1.225-1.882 1.074-3.957.501-4.869-.313-.499-.77-.616-1.318-.672-.546-.056-2.303-.093-3.39-.287-.478-.085-1.606-.437-2.446-.838-.84-.401-1.398-.686-2.301-.818-.838-.123-1.674-.292-2.651.35-.583.382-1.067 1.416-1.66 2.075-.517.573-1.135 1.297-1.526 1.698-.391.4-.905.997-1.42 1.713-.447.623-1.173 1.848-1.81 2.85-.638 1.004-.808 1.772-.866 2.731-.058.96.112 1.954.807 2.584.696.63 1.648 1.308 3.345 1.206M26.1 12.376c1.128-.05 2.045-1.244 2.204-2.705.16-1.461-.434-3.581-2.187-3.653-.767-.031-1.379.06-1.782.473-.5.512-.753 1.134-.84 2.22-.116 1.447.358 3.762 2.605 3.665M24.964 5.795c.39-.174.54-.564.351-1.118-.147-.43-.834-.424-1.137-.465-.303-.042-.353-.183-.424-.358-.216.305-.316.475-.305.711.02.409.336.744.618.987.23.197.552.397.897.243M20.155 11.13c1.362-.248 2.064-1.386 2.362-2.805.37-1.763-.24-3.74-1.152-5.023-.818-1.15-1.956-1.402-3.042-1.273-1.087.128-1.891.58-2.304 1.246-.413.666-.258 1.951.258 3.48.522 1.548 2.013 4.716 3.878 4.375M14.7 2.609c.424.117 1.03-.158 1.102-.616.054-.343-.087-.76-.594-1.046-.507-.286-1-.216-1.217-.875-.493.444-.482 1.11-.391 1.434.137.492.478.93 1.1 1.103M14.606 12.364c.712-.29 1.015-.848 1.097-1.493.094-.752.052-2.106-.508-3.417-.606-1.419-1.461-2.584-2.447-2.976-1.053-.419-2.352.086-2.982 1.118-.63 1.03-.752 2.043-.35 3.16.39 1.088 1.202 2.303 2.322 3.2.913.73 2.238.666 2.868.408M7.67 16.6c1.038.457 2.31.095 3.064-.675.865-.884 1.013-2.022.542-3.197-.47-1.175-1.63-3.126-3.173-3.228-1.189-.078-2.33.583-2.653 1.665-.323 1.082.124 2.33.587 3.347.464 1.017.861 1.748 1.633 2.088"/>
        <g transform="translate(0 12.341)">
            <mask id="b" fill="#fff">
                <use xlink:href="#a"/>
            </mask>
            <path fill="#1A1919" d="M7.703 10.558c1.41-.863 1.536-1.74 1.42-2.599-.116-.86-.695-1.776-1.376-2.435-.681-.659-1.492-1.476-2.637-1.39-1.145.086-1.71.86-1.927 1.662-.217.802.048 1.733.367 2.55.318.817.88 1.647 2.11 2.307.884.472 1.74.091 2.043-.095M1.474 4.564c.464.184 1 .086 1.115-.444.116-.53-.29-1.418-.637-2.034C1.604 1.47 1.286.855.88.453.46.037.126.066.083.424.039.782-.041 1.444.025 2.057c.13 1.218.87 2.278 1.449 2.507" mask="url(#b)"/>
        </g>
        <path fill="#1A1919" d="M3.125 8.926c.638 0 .768-.83.797-1.59.029-.76-.616-1.698-.521-2.736-.522.243-.571.73-.818 1.318-.246.587-.472.931-.515 1.475-.044.545.231 1.533 1.057 1.533M7.66 4.385c.78.467 1.506-.115 1.593-.544.087-.43.015-.946-.42-1.49-.434-.545-1.304-.73-1.622-1.089-.32-.358-.377-.501-.377-.745-.594.573-.691 1.619-.401 2.278.29.659.8 1.335 1.227 1.59M53.604 4.404l-.01 15.53-3.267-.002.009-12.858-6.123-.004-.01 12.858-3.267-.002.01-15.53 12.658.008M60.999 14.955c-1.147.192-2.078.491-2.08 1.731 0 1.072.821 1.391 1.428 1.392 1.34.002 2.727-.875 2.727-2.265l.001-1.476c-.302.235-.822.427-2.076.618zM56.24 12.15c.349-3.53 2.815-4.02 5.195-4.018 1.645.001 4.63.494 4.629 3.34l-.005 6.225c0 1.348.303 1.648.67 1.776v.471l-3.29-.003c-.172-.556-.215-.726-.28-1.369-.693.706-1.689 1.669-3.766 1.668-1.752-.002-3.526-.988-3.525-3.363.002-2.652 2.513-3.742 5.435-3.976 1.297-.105 1.774-.447 1.775-1.004 0-1.283-1.233-1.348-2.012-1.348-1.536-.001-1.796.94-1.883 1.603l-2.943-.002zM71.732 12.738l4.35.003.002-4.3 3.05.002-.007 11.51-3.05-.003.003-4.792-4.35-.003-.002 4.792-3.051-.002.007-11.51 3.051.002-.003 4.301M89.238 10.867l-3.094-.003v1.413c-.003 3.08-.436 4.386-1.042 5.262l4.132.003.004-6.675zm3.053-2.415l-.006 9.092h1.406l-.004 5.52-2.834-.001.002-3.103-7.227-.005-.002 3.103-2.834-.002.004-5.52 1.276.002c.78-.964 1.236-3.208 1.238-5.97l.002-3.122 8.979.006zM100.1 14.982c-1.148.192-2.079.491-2.08 1.731 0 1.071.822 1.392 1.427 1.393 1.342 0 2.727-.876 2.728-2.267v-1.475c-.302.234-.821.427-2.076.618zm-4.76-2.805c.35-3.531 2.815-4.02 5.196-4.018 1.645.001 4.63.494 4.629 3.34l-.005 6.225c-.002 1.347.301 1.647.67 1.776v.47l-3.29-.002c-.172-.556-.215-.726-.28-1.369-.694.706-1.689 1.669-3.766 1.667-1.753 0-3.527-.988-3.524-3.363.001-2.653 2.513-3.742 5.434-3.975 1.297-.105 1.774-.448 1.774-1.004 0-1.283-1.232-1.349-2.011-1.35-1.536 0-1.797.941-1.884 1.604h-2.942zM120.661 4.45l-.01 15.53-3.267-.002.01-12.858-6.125-.004-.008 12.858-3.267-.003.01-15.53 12.657.009M128.056 15.001c-1.147.192-2.078.49-2.078 1.73-.002 1.072.82 1.393 1.426 1.393 1.342 0 2.727-.875 2.728-2.265l.001-1.476c-.304.234-.823.427-2.077.618zm-4.759-2.805c.349-3.531 2.816-4.02 5.195-4.018 1.645.001 4.63.494 4.63 3.34l-.006 6.225c0 1.348.303 1.648.67 1.776v.47l-3.289-.002c-.172-.556-.216-.726-.28-1.369-.694.706-1.69 1.669-3.766 1.667-1.753 0-3.526-.987-3.525-3.363.002-2.652 2.513-3.742 5.434-3.975 1.297-.105 1.774-.447 1.775-1.004 0-1.283-1.232-1.349-2.012-1.349-1.536 0-1.796.94-1.884 1.604l-2.942-.002zM138.68 14.324c0 1.369.56 3.488 2.53 3.49 1.946 0 2.705-1.604 2.706-3.316.002-1.839-.517-3.701-2.615-3.703-1.947-.001-2.62 1.71-2.62 3.529zm.003-4.172h.043c.563-.898 1.409-1.966 3.463-1.965 2.575.002 4.867 1.993 4.865 5.971-.003 3.145-1.476 6.14-4.938 6.138-2.142-.002-2.898-1.157-3.266-1.779l-.064-.021-.004 6.12-3.051-.003.01-16.132 2.943.003-.001 1.668zM152.162 12.857l3.855-4.362 3.742.003-4.092 4.446 4.193 7.063-3.657-.002-2.765-4.943-1.278 1.303-.002 3.637-3.051-.002.007-11.51 3.051.003-.003 4.364M46.017 30.878c-.048.523-.462 1.998-2.358 1.998-1.943 0-2.386-1.475-2.386-2.55 0-1.656.722-2.835 2.473-2.835.818 0 2.155.37 2.28 1.96H44.65c-.057-.334-.26-.828-.904-.828-.856 0-1.078.847-1.078 1.484 0 .552.02 1.665 1.049 1.665.693 0 .933-.657.933-.894h1.367M50.211 29.67c-.077-.819-.616-1.076-1.048-1.076-.645 0-.992.41-1.068 1.075h2.116zm1.338 1.57c-.356 1.226-1.386 1.636-2.271 1.636-1.453 0-2.579-.695-2.579-2.798 0-.618.222-2.587 2.483-2.587 1.453 0 2.425.79 2.425 2.55v.504h-3.512c0 .39.086 1.256 1.183 1.256.385 0 .77-.2.876-.562h1.395zM53.646 32.742V28.7h-1.54v-1.075h4.436v1.075h-1.54v4.043h-1.356M58.735 31.82h.924c.49 0 .77-.229.77-.619 0-.447-.28-.742-.77-.742h-.924v1.36zm0-2.284h.962c1.26 0 2.088.628 2.088 1.694 0 1.027-.914 1.512-2.078 1.512h-2.329v-5.118h1.357v1.912zM66.759 31.82h1c.5 0 .809-.153.809-.657 0-.447-.327-.656-.828-.656h-.981v1.313zm0-2.122h.885c.452 0 .77-.18.77-.58 0-.419-.308-.571-.76-.571h-.895v1.15zm-1.357-2.074h2.338c1.155 0 2.002.466 2.002 1.322 0 .59-.424.97-.963 1.104.53.124 1.117.457 1.117 1.294 0 .951-.722 1.398-1.896 1.398h-2.598v-5.118zM74.08 29.67c-.076-.819-.615-1.076-1.048-1.076-.645 0-.991.41-1.068 1.075h2.117zm1.338 1.57c-.356 1.226-1.386 1.636-2.27 1.636-1.454 0-2.58-.695-2.58-2.798 0-.618.222-2.587 2.483-2.587 1.453 0 2.425.79 2.425 2.55v.504h-3.512c0 .39.086 1.256 1.183 1.256.385 0 .77-.2.876-.562h1.395zM77.698 30.221c0 .61.25 1.55 1.126 1.55.865 0 1.202-.713 1.202-1.474 0-.818-.23-1.646-1.164-1.646-.866 0-1.164.761-1.164 1.57zm0-1.855h.019c.25-.4.625-.875 1.54-.875 1.144 0 2.165.884 2.165 2.654 0 1.399-.655 2.73-2.194 2.73-.953 0-1.29-.513-1.453-.79l-.03-.009v2.722H76.39v-7.174h1.309v.742zM85.606 29.67c-.077-.819-.616-1.076-1.049-1.076-.644 0-.99.41-1.068 1.075h2.117zm1.338 1.57c-.356 1.226-1.386 1.636-2.271 1.636-1.453 0-2.579-.695-2.579-2.798 0-.618.221-2.587 2.483-2.587 1.452 0 2.424.79 2.424 2.55v.504H83.49c0 .39.087 1.256 1.184 1.256.385 0 .77-.2.875-.562h1.396zM89.271 31.82h1.001c.5 0 .809-.153.809-.657 0-.447-.328-.656-.828-.656h-.982v1.313zm0-2.122h.886c.452 0 .77-.18.77-.58 0-.419-.308-.571-.76-.571h-.896v1.15zm-1.356-2.074h2.338c1.154 0 2.001.466 2.001 1.322 0 .59-.423.97-.962 1.104.53.124 1.116.457 1.116 1.294 0 .951-.721 1.398-1.895 1.398h-2.598v-5.118zM94.476 30.174c0 .656.202 1.57 1.251 1.57s1.242-.904 1.242-1.56c0-.657-.193-1.561-1.242-1.561s-1.25.894-1.25 1.55zm3.888 0c0 1.845-1.251 2.702-2.637 2.702-1.385 0-2.646-.847-2.646-2.693s1.26-2.692 2.646-2.692 2.637.837 2.637 2.683zM100.634 27.624v1.493c0 .6.471.695.885.695.414 0 .799-.029.972-.076v-2.112h1.357v5.118h-1.357v-1.96a6.69 6.69 0 0 1-1.463.162c-1.02 0-1.751-.485-1.751-1.788v-1.532h1.357M106.358 29.536h1.934v-1.912h1.357v5.118h-1.357v-2.13h-1.934v2.13h-1.357v-5.118h1.357v1.912M116.124 32.742h1.357v-5.118h-1.357v5.118zm-3.965-.922h.924c.49 0 .77-.229.77-.619 0-.447-.28-.742-.77-.742h-.924v1.36zm0-2.284h.963c1.26 0 2.088.628 2.088 1.694 0 1.027-.915 1.512-2.079 1.512h-2.328v-5.118h1.356v1.912zM119.923 27.624l.876 1.493.856-1.493h1.608l-1.704 2.512 1.761 2.606h-1.684l-.895-1.54-.894 1.54H118.2l1.761-2.606-1.694-2.512h1.655M131.392 27.624v5.118h-1.357V28.7h-1.934v4.043h-1.357v-5.118h4.648M134.586 30.526c-.51.085-.924.218-.924.77 0 .476.366.619.635.619.597 0 1.213-.39 1.213-1.009v-.656c-.135.105-.366.19-.924.276zm-2.117-1.247c.154-1.57 1.25-1.788 2.31-1.788.73 0 2.058.218 2.058 1.484v2.769c0 .599.135.732.299.79v.208h-1.463a2.357 2.357 0 0 1-.125-.608c-.308.313-.75.742-1.674.742-.78 0-1.569-.438-1.569-1.494 0-1.18 1.117-1.665 2.416-1.77.577-.047.789-.2.789-.447 0-.57-.549-.6-.895-.6-.684 0-.799.42-.838.714h-1.308zM139.31 30.221c0 .61.25 1.55 1.125 1.55.866 0 1.203-.713 1.203-1.474 0-.818-.23-1.646-1.164-1.646-.866 0-1.165.761-1.165 1.57zm0-1.855h.019c.25-.4.625-.875 1.54-.875 1.144 0 2.164.884 2.164 2.654 0 1.399-.654 2.73-2.194 2.73-.952 0-1.289-.513-1.453-.79l-.028-.009v2.722H138v-7.174h1.308v.742zM145.303 29.565l1.713-1.941h1.665l-1.819 1.979 1.867 3.14h-1.626l-1.232-2.198-.568.58v1.617h-1.357v-5.118h1.357v1.94M150.508 30.174c0 .656.202 1.57 1.251 1.57S153 30.84 153 30.184c0-.657-.192-1.561-1.241-1.561-1.049 0-1.25.894-1.25 1.55zm3.887 0c0 1.845-1.25 2.702-2.636 2.702-1.385 0-2.646-.847-2.646-2.693s1.26-2.692 2.646-2.692 2.636.837 2.636 2.683zM156.665 31.82h1.001c.5 0 .808-.153.808-.657 0-.447-.327-.656-.827-.656h-.982v1.313zm0-2.122h.886c.452 0 .77-.18.77-.58 0-.419-.309-.571-.76-.571h-.896v1.15zm-1.356-2.074h2.338c1.155 0 2.001.466 2.001 1.322 0 .59-.423.97-.962 1.104.53.124 1.116.457 1.116 1.294 0 .951-.721 1.398-1.895 1.398h-2.598v-5.118z"/>
    </g>
</svg>
