<svg xmlns="http://www.w3.org/2000/svg" width="40" height="40" fill="none" viewBox="0 0 40 40">
    <path fill="#656C81" fill-rule="evenodd" d="M22.274 37.646c-5.44-2.627-10.208-6.34-14.168-11.057-3.262-3.903-5.458-7.559-6.914-11.496-.948-2.544-1.315-4.65-1.156-6.63.133-1.584.773-2.951 1.905-4.078l3.111-3.1C5.942.439 6.958 0 8.014 0c1.065 0 2.072.44 2.929 1.276.566.523 1.14 1.103 1.689 1.666l.023.024c.275.282.542.556.825.838l2.48 2.47c.907.896 1.38 1.932 1.38 2.984 0 1.053-.482 2.089-1.38 2.984-.258.257-.516.514-.766.77a49.912 49.912 0 0 1-2.221 2.164c.557 1.285 1.356 2.545 2.546 4.045 2.354 2.876 4.817 5.114 7.53 6.83.274.174.582.331.915.497.266.133.549.273.823.43l2.979-2.966c.873-.87 1.897-1.335 2.962-1.335 1.064 0 2.08.464 2.928 1.343l5 4.981c1.79 1.782 1.79 4.12.017 5.96a38.558 38.558 0 0 1-1.291 1.274c-.532.514-1.038 1.003-1.488 1.544a.178.178 0 0 1-.033.041C34.505 39.287 32.84 40 30.769 40c-.184 0-.36-.008-.543-.016h-.023c-3.086-.2-5.857-1.36-7.928-2.338zM3.389 5.818a4.377 4.377 0 0 0-1.322 2.819c-.134 1.665.19 3.497 1.048 5.777 1.381 3.713 3.47 7.177 6.573 10.899 3.768 4.492 8.311 8.031 13.486 10.526 1.905.904 4.443 1.965 7.172 2.139.141.008.291.016.432.016 1.473 0 2.613-.48 3.57-1.508.519-.62 1.09-1.172 1.643-1.706l.096-.093c.39-.373.757-.73 1.106-1.102 1.015-1.053 1.023-2.13.025-3.125L32.2 25.47c-.324-.348-.84-.737-1.473-.737-.515 0-1.04.257-1.522.737l-3.112 3.1c-.141.141-.574.564-1.24.564-.266 0-.532-.067-.806-.207L24 28.902a.948.948 0 0 0-.046-.025 10.303 10.303 0 0 0-.915-.497c-.06-.031-.12-.062-.182-.092a9.6 9.6 0 0 1-.916-.505c-2.896-1.832-5.525-4.21-8.02-7.277-1.39-1.741-2.28-3.2-2.92-4.733a.566.566 0 0 0-.026-.066c-.166-.498-.274-1.152.416-1.84l.042-.042c.738-.651 1.413-1.331 2.122-2.045a279.562 279.562 0 0 1 .948-.955c.516-.514.782-1.036.782-1.55s-.266-1.036-.782-1.55l-2.48-2.47-.432-.44-.433-.439-.224-.226c-.482-.489-.94-.953-1.423-1.398-.474-.481-.99-.721-1.498-.721-.516 0-1.048.24-1.53.704L3.387 5.818z" clip-rule="evenodd"/>
</svg>
