<svg xmlns="http://www.w3.org/2000/svg" width="80" height="80" viewBox="0 0 80 80">
    <g fill="none" fill-rule="nonzero">
        <circle cx="40.001" cy="40.001" r="38.571" fill="#FFF"/>
        <path fill="#EEEFF0" d="M19.735 60.265C5.86 46.389 4.767 24.573 16.455 9.445c-1.295 1-2.54 2.094-3.728 3.282-15.063 15.062-15.063 39.484 0 54.546 15.062 15.063 39.484 15.063 54.546 0a38.96 38.96 0 0 0 3.281-3.728c-15.127 11.688-36.943 10.595-50.819-3.28z"/>
        <path fill="#FFF" d="M58.325 33.643v6.68c-10.12 10.12-26.528 10.12-36.65 0v-6.68c10.122 10.122 26.53 10.122 36.65 0z"/>
        <path fill="#A8F0DE" d="M44.663 52.632a7.813 7.813 0 0 1 6.88 4.104A18.238 18.238 0 0 1 40 60.828c-4.375 0-8.391-1.532-11.542-4.092a7.81 7.81 0 0 1 6.877-4.104c1.748 0 3.363.574 4.665 1.544a7.772 7.772 0 0 1 4.662-1.544z"/>
        <path fill="#EEEFF0" d="M58.325 40.324v2.18c0 5.061-2.052 9.642-5.368 12.957-.448.45-.92.875-1.415 1.275a7.813 7.813 0 0 0-6.879-4.104c-1.748 0-3.36.574-4.663 1.544a7.78 7.78 0 0 0-4.664-1.544 7.81 7.81 0 0 0-6.877 4.104 18.276 18.276 0 0 1-6.784-14.232v-2.18c10.122 10.12 26.53 10.12 36.65 0z"/>
        <path fill="#3D4252" d="M26.829 28.806a1.43 1.43 0 0 0 2.86 0c0-4.993-4.063-9.055-9.056-9.055-4.993 0-9.055 4.062-9.055 9.055a1.43 1.43 0 0 0 2.859 0 6.203 6.203 0 0 1 6.196-6.196 6.203 6.203 0 0 1 6.196 6.196zM59.367 19.75c-4.993 0-9.055 4.063-9.055 9.056a1.43 1.43 0 0 0 2.86 0 6.203 6.203 0 0 1 6.196-6.196 6.203 6.203 0 0 1 6.196 6.196 1.43 1.43 0 0 0 2.859 0c0-4.993-4.062-9.055-9.056-9.055zM58.871 32.322a1.43 1.43 0 0 0-1.558.31A24.322 24.322 0 0 1 40 39.804c-6.54 0-12.69-2.547-17.314-7.172a1.43 1.43 0 0 0-2.44 1.01v8.862a19.669 19.669 0 0 0 7.311 15.341 19.79 19.79 0 0 0 12.444 4.413 19.787 19.787 0 0 0 13.966-5.786 19.616 19.616 0 0 0 5.787-13.968v-8.861c0-.578-.348-1.1-.883-1.321zm-18.87 10.342c6.205 0 12.095-2.054 16.894-5.84v2.897c-9.436 9.002-24.353 9.002-33.79 0v-2.897c4.799 3.786 10.69 5.84 16.895 5.84zM30.397 56.4a6.376 6.376 0 0 1 4.938-2.34c1.386 0 2.704.436 3.81 1.261a1.43 1.43 0 0 0 1.709 0 6.326 6.326 0 0 1 3.808-1.26 6.38 6.38 0 0 1 4.94 2.34A16.933 16.933 0 0 1 40 59.399a16.93 16.93 0 0 1-9.602-2.998zm21.546-1.949l-.134.13a9.237 9.237 0 0 0-7.147-3.38c-1.66 0-3.253.434-4.662 1.26a9.167 9.167 0 0 0-4.665-1.26 9.232 9.232 0 0 0-7.146 3.382 16.797 16.797 0 0 1-5.054-11.06c4.932 3.87 10.898 5.807 16.864 5.807 5.966 0 11.93-1.936 16.861-5.804a16.764 16.764 0 0 1-4.917 10.925z"/>
        <path fill="#3D4252" d="M40 0C17.944 0 0 17.944 0 40s17.944 40 40 40 40-17.944 40-40S62.056 0 40 0zm0 77.14C19.52 77.14 2.86 60.48 2.86 40S19.52 2.86 40 2.86 77.14 19.52 77.14 40 60.48 77.14 40 77.14z"/>
    </g>
</svg>
