<svg xmlns="http://www.w3.org/2000/svg" width="80" height="80" viewBox="0 0 80 80">
    <g fill="none" fill-rule="nonzero">
        <circle cx="40.001" cy="40.001" r="38.571" fill="#FFF" fill-opacity=".09"/>
        <path fill="#EEEFF0" d="M19.735 60.265C5.86 46.389 4.767 24.573 16.455 9.445c-1.295 1-2.54 2.094-3.728 3.282-15.063 15.062-15.063 39.484 0 54.546 15.062 15.063 39.484 15.063 54.546 0a38.96 38.96 0 0 0 3.281-3.728c-15.127 11.688-36.943 10.595-50.819-3.28z"/>
        <g fill="#A8F0DE">
            <path d="M55.245 21.524a5.966 5.966 0 0 0-8.437 8.437l8.437 8.437 8.437-8.437a5.966 5.966 0 0 0-8.437-8.437zM24.755 21.524a5.966 5.966 0 0 0-8.437 8.437l8.437 8.437 8.437-8.437a5.966 5.966 0 0 0-8.437-8.437z"/>
        </g>
        <path fill="#FFF" d="M20.557 44.008h38.886c0 2.183-.36 4.282-1.024 6.241H21.581a19.426 19.426 0 0 1-1.024-6.24z"/>
        <path fill="#484C5B" fill-opacity=".09" d="M21.58 50.25h36.84a19.475 19.475 0 0 1-7.035 9.518 7.807 7.807 0 0 0-6.722-3.83c-1.748 0-3.361.575-4.663 1.545a7.778 7.778 0 0 0-4.664-1.544 7.804 7.804 0 0 0-6.721 3.83 19.476 19.476 0 0 1-7.034-9.52z"/>
        <path fill="#A8F0DE" d="M44.663 55.939a7.807 7.807 0 0 1 6.722 3.83A19.345 19.345 0 0 1 40 63.45c-4.25 0-8.185-1.365-11.385-3.683a7.804 7.804 0 0 1 6.72-3.83c1.749 0 3.363.575 4.665 1.545a7.774 7.774 0 0 1 4.663-1.544z"/>
        <path fill="#3D4252" d="M40 80C17.944 80 0 62.056 0 40S17.944 0 40 0s40 17.944 40 40-17.944 40-40 40zm0-77.14C19.52 2.86 2.86 19.52 2.86 40S19.52 77.14 40 77.14 77.14 60.48 77.14 40 60.48 2.86 40 2.86z"/>
        <path fill="#3D4252" d="M55.245 39.828c-.366 0-.732-.14-1.01-.42l-8.438-8.436a7.347 7.347 0 0 1-2.166-5.23c0-1.975.77-3.832 2.166-5.23a7.347 7.347 0 0 1 5.23-2.165c1.53 0 2.99.461 4.218 1.318a7.341 7.341 0 0 1 4.22-1.318c1.975 0 3.832.769 5.229 2.166 2.883 2.883 2.883 7.575 0 10.459l-8.438 8.437c-.28.28-.645.419-1.01.419zm-4.219-18.622c-1.211 0-2.35.472-3.207 1.328a4.506 4.506 0 0 0-1.329 3.208c0 1.212.472 2.351 1.329 3.208l7.426 7.426 7.427-7.426a4.542 4.542 0 0 0 0-6.416 4.507 4.507 0 0 0-3.208-1.328c-1.212 0-2.351.472-3.208 1.328a1.43 1.43 0 0 1-2.021 0 4.508 4.508 0 0 0-3.209-1.328zM24.755 39.828c-.366 0-.732-.14-1.01-.42l-8.438-8.436c-2.884-2.884-2.884-7.576 0-10.46a7.347 7.347 0 0 1 5.23-2.165c1.53 0 2.989.461 4.218 1.318a7.341 7.341 0 0 1 4.219-1.318c1.975 0 3.832.769 5.23 2.166 2.883 2.883 2.883 7.575 0 10.459l-8.438 8.437c-.28.28-.645.419-1.011.419zm-4.219-18.622c-1.212 0-2.35.472-3.208 1.328a4.542 4.542 0 0 0 0 6.416l7.427 7.426 7.426-7.426a4.542 4.542 0 0 0 0-6.416 4.507 4.507 0 0 0-3.208-1.328c-1.211 0-2.35.472-3.207 1.328a1.43 1.43 0 0 1-2.022 0 4.506 4.506 0 0 0-3.208-1.328zM40 64.88a20.71 20.71 0 0 1-12.224-3.954 20.774 20.774 0 0 1-7.55-10.218 20.852 20.852 0 0 1-1.098-6.7c0-.79.64-1.43 1.43-1.43h38.885c.79 0 1.43.64 1.43 1.43 0 2.29-.37 4.545-1.1 6.7a20.777 20.777 0 0 1-7.55 10.219A20.71 20.71 0 0 1 40 64.88zM22.043 45.439c.116 1.485.415 2.944.892 4.353a17.932 17.932 0 0 0 6.517 8.819A17.869 17.869 0 0 0 40 62.021c3.819 0 7.466-1.18 10.547-3.41a17.932 17.932 0 0 0 6.518-8.82c.477-1.41.775-2.868.892-4.353H22.043z"/>
        <path fill="#3D4252" d="M21.582 48.82H58.42v2.859H21.582zM50.28 60.714a6.419 6.419 0 0 0-5.617-3.345 6.325 6.325 0 0 0-3.809 1.26 1.43 1.43 0 0 1-1.708 0 6.329 6.329 0 0 0-3.81-1.26 6.411 6.411 0 0 0-5.615 3.344l-2.526-1.34c.06-.115.126-.227.19-.336a9.282 9.282 0 0 1 7.95-4.528c1.661 0 3.255.434 4.665 1.26a9.16 9.16 0 0 1 4.663-1.26 9.29 9.29 0 0 1 8.142 4.863l-2.526 1.342z"/>
    </g>
</svg>
