<svg xmlns="http://www.w3.org/2000/svg" width="80" height="80" viewBox="0 0 80 80">
    <g fill="none" fill-rule="nonzero">
        <circle cx="39.923" cy="39.923" r="38.496" fill="#FFF"/>
        <g fill="#EEEFF0">
            <path d="M19.697 60.147C5.849 46.3 4.757 24.525 16.422 9.427a38.876 38.876 0 0 0-3.72 3.275c-15.034 15.033-15.034 39.407 0 54.44 15.033 15.033 39.407 15.033 54.44 0a38.883 38.883 0 0 0 3.275-3.72c-15.098 11.664-36.872 10.573-50.72-3.275z"/>
            <path d="M39.922 62.508a25.33 25.33 0 0 1-6.838-.94 1.427 1.427 0 0 1 .77-2.749 22.472 22.472 0 0 0 12.136 0 1.427 1.427 0 0 1 .77 2.748c-2.236.627-4.538.94-6.838.94z"/>
        </g>
        <path fill="#3D4252" d="M39.922 0C17.91 0 0 17.909 0 39.922c0 22.013 17.909 39.922 39.922 39.922 22.013 0 39.922-17.909 39.922-39.922C79.844 17.91 61.935 0 39.922 0zm0 76.99c-20.44 0-37.068-16.628-37.068-37.068 0-20.44 16.629-37.068 37.068-37.068 20.44 0 37.069 16.628 37.069 37.068 0 20.44-16.63 37.068-37.069 37.068z"/>
        <path fill="#3D4252" d="M59.275 46.117c-10.672 10.671-28.036 10.67-38.706 0a1.427 1.427 0 0 0-2.018 2.017c5.893 5.893 13.63 8.838 21.371 8.838 7.739 0 15.48-2.946 21.371-8.838a1.427 1.427 0 1 0-2.018-2.017zM22.88 36.175c2.912 0 5.28-2.368 5.28-5.279 0-2.91-2.368-5.279-5.28-5.279a5.285 5.285 0 0 0-5.278 5.28c0 2.91 2.368 5.278 5.279 5.278zM56.963 25.617a5.285 5.285 0 0 0-5.28 5.28c0 2.91 2.37 5.278 5.28 5.278s5.279-2.368 5.279-5.279c0-2.91-2.368-5.279-5.279-5.279z"/>
        <g fill="#FFF" transform="translate(22.768 28.694)">
            <circle cx="1.555" cy="1.483" r="1.427"/>
            <circle cx="35.608" cy="1.483" r="1.427"/>
        </g>
    </g>
</svg>
