<svg xmlns="http://www.w3.org/2000/svg" xmlns:xlink="http://www.w3.org/1999/xlink" width="376" height="120" viewBox="0 0 376 120">
    <defs>
        <path id="a" d="M1.01 1.515h10.024v22.698H1.01z"/>
        <path id="c" d="M.09.128h375.631v99.84H.091z"/>
    </defs>
    <g fill="none" fill-rule="evenodd">
        <path fill="#5A488B" d="M84.299 104.312c.119-.407.285-.772.494-1.09.21-.32.448-.604.712-.854a5.5 5.5 0 0 1 .8-.63c.27-.17.521-.31.758-.415.234-.105.425-.175.57-.209a3.773 3.773 0 0 1 2.455.123c.176.063.351.143.526.239.175.097.341.191.5.282.105.05.155.096.152.137-.002.043-.041.105-.12.192-.199.205-.395.405-.588.606-.193.2-.39.4-.59.603a.387.387 0 0 1-.43.11 1.86 1.86 0 0 0-.8-.081c-.163.018-.362.08-.598.185a2.462 2.462 0 0 0-1.207 1.19c-.143.297-.203.648-.18 1.05.026.486.152.868.376 1.146.225.275.483.478.774.61.29.131.577.204.867.22.286.017.513.005.676-.03.289-.062.54-.18.76-.354.218-.173.411-.384.58-.632l.115-.15a.189.189 0 0 1 .08-.067c.025-.01.058-.004.095.014.039.023.09.055.156.097.189.108.373.211.55.313.179.099.363.21.553.328.133.085.21.155.23.214.022.06.004.16-.052.298-.12.32-.28.605-.486.855a4 4 0 0 1-.716.675 6.95 6.95 0 0 1-.986.598c-.341.17-.717.277-1.125.32-.837.045-1.54-.036-2.111-.24-.574-.208-1.049-.48-1.423-.818a3.713 3.713 0 0 1-.86-1.117 6.602 6.602 0 0 1-.447-1.139 6.665 6.665 0 0 1-.199-1.242 3.98 3.98 0 0 1 .139-1.337M95.27 109.642l-.735.041c-.199.021-.317.014-.35-.021-.035-.035-.057-.157-.068-.368-.013-.23-.024-.457-.031-.688-.01-.226-.02-.457-.032-.688l-.172-3.119c-.056-.997-.107-2.03-.157-3.103a1.035 1.035 0 0 0-.013-.118.64.64 0 0 1-.014-.102 7.903 7.903 0 0 1-.009-.324c0-.079.02-.14.057-.182a.324.324 0 0 1 .174-.093c.075-.016.187-.028.333-.038l.517-.028c.273-.014.596-.032.97-.049a223.522 223.522 0 0 0 2.422-.115c.386-.023.728-.04 1.022-.058.296-.017.498-.03.606-.044.192-.012.314.01.367.067.054.056.084.167.093.332.014.239.024.465.032.68.008.217.021.438.042.666.012.202-.078.308-.268.32-.11.005-.216.007-.323.002a3.767 3.767 0 0 0-.32.005l-2.007.112-1.102.06c-.137.008-.225.033-.258.07-.033.04-.042.128-.026.265.018.182.038.348.056.494.015.144.033.31.054.492.019.2.126.296.317.285.062-.003.151-.007.264-.015.115-.006.232-.013.356-.018l.353-.021c.114-.006.203-.01.267-.015.208-.028.309.057.301.26l.05.906c.006.1-.063.163-.206.192a4.24 4.24 0 0 0-.267.02c-.114.011-.23.025-.353.04a12.9 12.9 0 0 1-.62.064c-.1.012-.17.043-.213.087-.045.044-.063.115-.057.217l.059 1.07c-.008.195.093.286.303.274.1-.004.194-.012.285-.023.092-.01.185-.016.286-.022.364-.011.726-.026 1.086-.047.36-.02.72-.035 1.084-.048.145-.007.287-.016.423-.03.135-.012.277-.021.423-.03.127-.006.216.006.269.038.053.036.084.109.1.229.031.239.061.47.088.697.026.231.046.464.06.702.008.193-.013.316-.07.375-.056.058-.178.088-.371.09l-.566.032-.86.048c-.323.017-.666.037-1.03.058-.364.02-.711.035-1.044.05-.33.014-.638.03-.92.046-.282.015-.5.021-.656.021M101.769 100.694c-.006-.11.006-.186.036-.222.03-.038.104-.064.222-.082.135-.015.32-.03.55-.044.232-.012.465-.021.697-.026.232-.003.437-.01.615-.018.177-.01.288-.021.333-.035.16-.044.28.004.35.147.285.517.55.974.795 1.375.246.398.48.775.704 1.124l.667 1.033c.218.336.443.694.674 1.075.081.135.164.25.252.347.069.097.137.094.205-.013l1.266-2.343c.067-.122.162-.312.29-.568a49.516 49.516 0 0 0 .742-1.551l.208-.46c.127-.338.368-.502.724-.497.274.004.549.001.82-.01.275-.01.548-.02.82-.024a.82.82 0 0 1 .261.025.43.43 0 0 1 .183.08c.048.038.074.105.08.196.021.377.045.747.075 1.12.029.372.06.742.088 1.118.053.601.098 1.207.134 1.812.04.604.083 1.207.136 1.81.03.386.058.755.089 1.112l.087 1.124c.02.166-.007.281-.075.35-.07.068-.183.101-.338.101l-1.434.04a2.423 2.423 0 0 1-.26 0c-.064-.006-.11-.021-.14-.047a.198.198 0 0 1-.054-.122 3.133 3.133 0 0 1-.021-.246c-.033-.623-.07-1.226-.106-1.806-.036-.582-.072-1.19-.107-1.823l-.007-.129a.605.605 0 0 0-.022-.129 1.762 1.762 0 0 1-.027-.149c-.007-.054-.03-.082-.066-.08-.029-.008-.07.03-.124.11-.054.081-.092.133-.11.151-.348.598-.704 1.21-1.067 1.83a20.807 20.807 0 0 0-.97 1.867.569.569 0 0 0-.045.091.408.408 0 0 1-.043.095c-.08.151-.144.268-.185.353a.394.394 0 0 1-.14.178.476.476 0 0 1-.214.07c-.092.01-.23.018-.41.029-.272.006-.542.021-.804.044-.236.041-.397-.055-.481-.287l-.088-.202c-.027-.062-.054-.126-.086-.189-.113-.226-.223-.43-.333-.616a9.039 9.039 0 0 1-.336-.617c-.082-.16-.165-.317-.252-.472a15.825 15.825 0 0 1-.428-.831 3.653 3.653 0 0 0-.19-.356 5.36 5.36 0 0 0-.206-.348c-.084-.132-.144-.195-.182-.194-.01 0-.012.068-.01.2.004.133.011.307.024.523l.039.734c.016.275.033.55.054.825l.057.786c.017.253.032.471.043.655l.007.152a.834.834 0 0 1-.003.163c-.018.194-.122.29-.314.28-.292.008-.58.023-.865.048a9.677 9.677 0 0 1-.869.035c-.163 0-.265-.019-.31-.058-.044-.04-.073-.137-.09-.29a20.562 20.562 0 0 1-.055-.73c-.012-.217-.03-.46-.053-.727a77.427 77.427 0 0 1-.145-2.127 7.095 7.095 0 0 1-.013-.35 8.198 8.198 0 0 0-.012-.338l-.041-.749-.042-.768a343.6 343.6 0 0 1-.05-.887 45.894 45.894 0 0 0-.054-.88c-.02-.282-.037-.537-.05-.768M116.727 108.442l-.736.041c-.2.021-.317.014-.352-.021-.033-.034-.055-.157-.067-.366-.014-.231-.023-.459-.03-.69-.01-.226-.02-.456-.034-.687l-.17-3.118c-.056-.998-.107-2.032-.157-3.105a1.035 1.035 0 0 0-.014-.118.62.62 0 0 1-.013-.1 6.164 6.164 0 0 1-.01-.326c0-.079.019-.14.057-.182a.323.323 0 0 1 .173-.091c.075-.018.187-.03.333-.038l.52-.03.967-.049c.374-.017.774-.033 1.2-.053.43-.018.836-.04 1.224-.062l1.022-.057c.296-.018.498-.03.606-.045.192-.01.314.01.365.067.054.056.086.167.095.33.012.24.023.467.03.684.008.215.023.438.043.664.012.202-.077.308-.267.32-.11.005-.218.007-.322.002a3.83 3.83 0 0 0-.322.005l-2.006.112-1.104.06c-.136.01-.223.033-.256.07-.035.042-.044.128-.027.265.02.182.037.346.056.494l.054.492c.02.2.125.298.316.285.062-.003.153-.007.266-.015.113-.006.232-.012.354-.02a91.428 91.428 0 0 0 .622-.033c.208-.03.309.056.301.258l.05.907c.006.1-.063.164-.208.192-.065.003-.152.009-.267.02-.113.011-.23.025-.353.04a8.425 8.425 0 0 1-.618.064c-.1.014-.17.043-.214.087-.044.045-.064.117-.058.218l.06 1.071c-.008.193.094.284.302.274.101-.006.195-.012.287-.025.09-.009.185-.016.285-.022.365-.011.727-.026 1.086-.047.358-.02.72-.037 1.085-.046.145-.01.285-.018.423-.03.135-.014.277-.023.422-.03.126-.008.217.004.268.037.051.035.086.11.101.23.032.238.062.469.088.695.027.231.045.464.058.702.011.193-.012.316-.069.374-.056.059-.178.09-.37.09-.128.008-.316.02-.566.034-.25.012-.537.03-.858.047l-1.032.058c-.363.02-.71.037-1.043.05-.332.015-.64.03-.92.046a11.2 11.2 0 0 1-.656.021M127.29 98.054a1 1 0 0 1-.4-.06 1.016 1.016 0 0 1-.337-.196 1.004 1.004 0 0 1-.237-.282.668.668 0 0 1-.086-.34.928.928 0 0 1 .305-.685c.199-.192.445-.29.736-.298.59-.021.918.29.981.939a.567.567 0 0 1-.058.328 1.068 1.068 0 0 1-.53.504 1.07 1.07 0 0 1-.374.09zm-4.052 1.452c-.009-.146.014-.254.065-.32.051-.066.146-.095.284-.084.32 0 .625-.015.92-.05a5.13 5.13 0 0 1 .92-.025c.203.008.301.107.292.301.004.082.015.245.027.488l.047.844c.016.322.038.658.063 1.009a89.124 89.124 0 0 0 .128 1.709c.018.193.034.288.043.288.1-.007.165-.038.2-.095.118-.161.23-.325.335-.486.105-.164.213-.324.323-.488.191-.304.383-.614.57-.928.188-.315.378-.623.571-.927l.498-.788c.164-.255.329-.523.496-.798.042-.066.078-.118.107-.158a.358.358 0 0 1 .12-.095.484.484 0 0 1 .174-.05c.068-.008.166-.017.293-.025l1.064-.059c.145-.007.255-.01.328-.01a.32.32 0 0 1 .165.036c.04.026.06.073.07.143.009.067.02.16.037.28.02.227.046.561.076 1.002.029.44.057.926.086 1.463.03.536.06 1.09.093 1.661.03.573.058 1.1.079 1.582.022.481.043.891.06 1.228.02.34.032.546.035.619.006.11.015.203.024.282.007.078.004.172-.006.283-.012.118-.04.199-.083.238-.042.038-.13.058-.256.056a5.44 5.44 0 0 0-.718.032c-.24.028-.478.04-.715.034a1.752 1.752 0 0 0-.296.015c-.111.015-.182.01-.21-.014-.03-.027-.043-.114-.041-.26 0-.145-.006-.27-.022-.37-.022-.404-.039-.764-.052-1.086a34.59 34.59 0 0 0-.067-1.086 33.262 33.262 0 0 0-.098-1.275c-.004-.065-.024-.11-.063-.135-.036-.015-.077 0-.12.049a1.667 1.667 0 0 0-.127.173c-.338.497-.67.99-1 1.48-.329.495-.66.988-.998 1.483-.118.19-.237.366-.36.53-.125.165-.245.34-.361.532a.452.452 0 0 1-.385.227c-.32-.002-.636.01-.948.039-.314.026-.63.04-.95.038-.073.005-.121-.01-.147-.047a.385.385 0 0 1-.054-.147c-.005-.064-.008-.127-.01-.186a1.619 1.619 0 0 0-.025-.184 261.805 261.805 0 0 0-.24-3.846c-.008 0-.018-.095-.03-.288l-.039-.722c-.015-.288-.033-.603-.053-.948-.018-.344-.036-.666-.054-.975-.015-.307-.03-.57-.042-.79l-.023-.4zM140.769 105.79a30.047 30.047 0 0 1 .09 1.14c.006.098-.01.166-.05.201-.04.034-.117.05-.238.049a34.7 34.7 0 0 0-.791.024c-.264.008-.528.02-.79.035-.156.01-.25.002-.283-.026-.033-.024-.06-.115-.078-.269-.04-.43-.086-.869-.133-1.318-.048-.448-.092-.886-.134-1.314-.001-.046-.005-.096-.008-.149a1.063 1.063 0 0 0-.024-.167c-.006-.11-.078-.169-.214-.18a12.83 12.83 0 0 0-1.086.054 11.53 11.53 0 0 1-1.07.052c-.183.001-.26.094-.231.276.033.448.053.883.059 1.305.004.424.03.876.074 1.36.012.065.022.125.03.185.007.06.009.121.004.186.006.128-.052.195-.18.202-.091.005-.18.01-.266.01-.087 0-.176-.003-.268-.007a5.414 5.414 0 0 0-.736.034c-.245.027-.49.04-.738.035-.164-.01-.271-.035-.318-.073-.048-.038-.075-.134-.084-.289-.027-.513-.06-.993-.094-1.438-.033-.44-.059-.92-.078-1.434-.038-.814-.07-1.625-.101-2.427-.029-.802-.06-1.61-.085-2.428l-.024-.427c-.01-.173.073-.264.244-.275.129-.006.258-.016.39-.028.13-.013.265-.017.404-.016.18-.001.356-.004.523-.007.17-.006.347-.005.53.003.182.007.293.027.339.056.042.032.066.137.076.32a53.131 53.131 0 0 1 .13 2.337c.01.164.018.294.029.39.009.097.034.167.078.21.044.044.112.068.204.073.092.003.218.001.381-.01.291-.016.576-.037.854-.068.276-.027.555-.056.835-.08.181-.01.269-.094.26-.25a.459.459 0 0 1-.015-.138 1.034 1.034 0 0 0 0-.136c-.046-.492-.083-.942-.115-1.345-.03-.404-.07-.85-.116-1.345-.026-.143.025-.22.154-.228l1.677-.094c.1-.007.171-.007.218.001.137.012.228.036.272.076.042.036.072.13.09.278a45.858 45.858 0 0 1 .195 3.027l.03 1.067.062 1.12c.018.306.037.631.06.976.024.342.044.636.056.884M149.322 98.131c-.007-.129.005-.22.033-.272.029-.051.107-.077.237-.076.28-.013.564-.03.845-.047.282-.015.564-.02.847-.018.154 0 .249.02.284.06.034.04.057.14.064.308.04.382.071.744.094 1.083.024.338.045.7.066 1.084l.147 2.666c.05.889.09 1.777.122 2.667.013.275.027.476.039.597.01.125-.008.205-.054.25-.049.045-.14.066-.272.065a9.565 9.565 0 0 0-.608.018c-.17.02-.34.029-.503.029-.166 0-.333.006-.505.015-.166.01-.276-.008-.332-.049-.057-.044-.09-.15-.101-.325l-.113-2.069c-.04-.69-.082-1.385-.128-2.08-.013-.561-.03-1.041-.047-1.444l-.056-1.28c-.02-.45-.04-.842-.059-1.182zm-4.42 6.422c.003.073.02.134.051.184.03.047.08.069.154.066.09-.005.202-.013.334-.026a2.306 2.306 0 0 0 .742-.193.706.706 0 0 0 .425-.473 1.403 1.403 0 0 0 .037-.701 1.121 1.121 0 0 0-.113-.313.678.678 0 0 0-.267-.24 1.845 1.845 0 0 0-.413-.169 2.41 2.41 0 0 0-.455-.085 1.796 1.796 0 0 0-.397.002c-.126.025-.193.094-.194.205l.096 1.743zm-2.637-1.452a300.649 300.649 0 0 0-.115-2.655c-.02-.465-.04-.878-.06-1.235-.018-.358-.03-.577-.036-.66-.018-.165-.01-.265.024-.304.033-.038.137-.067.31-.085.046-.004.15-.01.314-.017.163-.01.345-.018.546-.026.2-.005.397-.014.585-.02.192-.006.338-.01.439-.016.146.001.234.009.26.025.03.019.057.1.082.243.036.315.054.623.059.928.003.31.023.619.057.929.006.118.017.212.03.28a.273.273 0 0 0 .064.148c.027.03.075.052.14.06a2.23 2.23 0 0 0 .555.032c.084-.004.175 0 .265.013.554.062 1.04.222 1.465.483.425.261.775.647 1.048 1.154.185.337.309.685.374 1.04.065.356.054.728-.035 1.12a3.2 3.2 0 0 1-.434 1.05 1.987 1.987 0 0 1-.863.744 3.811 3.811 0 0 1-1.096.342l-1.133.167c-.045.003-.154.01-.327.027-.173.014-.372.026-.6.038-.226.014-.456.03-.68.047-.23.017-.41.035-.546.052-.208.02-.34.006-.392-.042-.051-.048-.085-.175-.097-.386a281.71 281.71 0 0 0-.105-1.793c-.036-.59-.07-1.15-.098-1.683z"/>
        <g transform="translate(149.292 95.696)">
            <mask id="b" fill="#fff">
                <use xlink:href="#a"/>
            </mask>
            <path fill="#5A488B" d="M5.518 10.618l-.738.04c-.199.02-.315.014-.35-.022-.034-.033-.057-.155-.069-.366-.012-.23-.021-.46-.03-.69-.008-.226-.02-.457-.032-.686l-.172-3.119c-.054-.998-.107-2.032-.158-3.106a.795.795 0 0 0-.01-.116.535.535 0 0 1-.014-.101 4.849 4.849 0 0 1-.01-.324c0-.079.019-.14.057-.184a.318.318 0 0 1 .173-.092c.075-.017.187-.03.333-.037.073-.004.245-.013.52-.03.27-.015.593-.03.966-.047l1.202-.053c.426-.019.835-.043 1.221-.063.388-.023.727-.042 1.024-.057.296-.017.498-.032.606-.048.19-.009.312.011.365.069.054.056.085.168.095.332l.03.681c.008.216.021.437.043.667.012.202-.077.307-.269.317-.11.008-.215.01-.321.005a3.785 3.785 0 0 0-.321.004l-2.006.111-1.105.063c-.136.007-.222.028-.257.07-.033.037-.042.127-.025.262.02.184.037.348.054.494.018.146.035.31.054.492.021.202.125.296.317.286l.267-.014.354-.021.355-.02c.114-.005.2-.01.265-.014.208-.03.31.058.303.257l.05.907c.006.102-.063.165-.21.191-.063.005-.15.01-.265.021l-.353.041a8.426 8.426 0 0 1-.618.063c-.101.015-.172.044-.216.088-.042.044-.062.117-.056.217l.06 1.072c-.01.193.093.285.302.272.1-.006.193-.012.285-.024.09-.008.187-.015.287-.02.363-.012.727-.029 1.086-.047.357-.021.72-.036 1.085-.048.144-.008.284-.017.421-.03.137-.011.278-.022.422-.031.128-.008.219.006.27.04.051.033.086.109.1.229.033.237.06.47.087.697.027.23.045.462.059.7.012.193-.012.316-.068.374-.056.06-.18.09-.37.093-.127.006-.317.015-.568.03l-.858.047-1.03.06c-.363.019-.712.036-1.043.05-.334.015-.64.03-.923.045-.28.017-.5.023-.653.023M8.816 20.626l.059 1.57c.004.238.02.454.043.65.024.196.049.414.071.651.006.138-.004.228-.034.27-.03.043-.108.074-.234.089l-.891.106c-.295.033-.593.065-.892.091-.172.018-.264-.082-.276-.302a59.55 59.55 0 0 1-.046-.97c-.011-.295-.028-.619-.047-.965l-.088-1.712c-.025-.565-.06-1.13-.1-1.698a7.236 7.236 0 0 0-.043-.535c-.015-.108-.047-.182-.095-.223-.047-.038-.125-.052-.234-.041-.108.01-.264.018-.464.02-.264.005-.53.015-.792.02-.264.011-.53.03-.79.054-.173.01-.279.036-.318.079-.04.045-.054.144-.047.3l.133 2.405c.04.529.075 1.06.11 1.592.033.53.07 1.06.108 1.592a.356.356 0 0 1-.009.112 3.61 3.61 0 0 1-.012.275c-.006.064-.025.111-.058.14a.274.274 0 0 1-.148.058 4.36 4.36 0 0 1-.273.02l-.765.022c-.255.01-.511.01-.766-.004-.202-.006-.327-.04-.375-.096-.049-.056-.079-.185-.09-.387l-.34-6.184-.101-1.826c-.006-.13.003-.202.029-.223.027-.019.107-.028.244-.028a23.87 23.87 0 0 0 1.29-.051c.423-.028.851-.055 1.288-.08a29.207 29.207 0 0 0 1.759-.124c.571-.06 1.149-.092 1.733-.097.144-.01.286-.015.422-.018.137 0 .277-.008.424-.015.135-.008.221 0 .254.025.034.026.053.108.062.246l.07 1.276c.01.193.027.423.045.687.018.267.037.524.056.77.018.246.046.54.083.877.01.533.027 1.061.045 1.582" mask="url(#b)"/>
        </g>
        <path fill="#5A488B" d="M164.607 112.61c-.02-.024-.043.006-.077.094a1.334 1.334 0 0 1-.072.177l-.308 1.134a69.9 69.9 0 0 1-.264.91c-.092.31-.18.617-.262.925-.04.13-.042.214-.008.248.034.035.12.048.255.04.219-.002.44-.01.656-.022l.655-.037c.172-.018.27-.045.297-.078.026-.034.009-.14-.045-.321a37.71 37.71 0 0 0-.294-1.101l-.308-1.1a1.948 1.948 0 0 1-.06-.243 3.628 3.628 0 0 0-.064-.286c-.022-.09-.043-.17-.062-.238-.015-.068-.03-.102-.039-.102zm-1.114 4.832a1.678 1.678 0 0 0-.226.024.334.334 0 0 0-.12.055.28.28 0 0 0-.075.123c-.018.056-.04.13-.063.225a7.656 7.656 0 0 1-.124.495 9.48 9.48 0 0 0-.122.495c-.047.318-.219.482-.52.5-.326.035-.65.062-.973.08-.324.019-.648.042-.974.069-.146.009-.2-.062-.163-.211.181-.672.36-1.345.54-2.02.175-.68.35-1.355.522-2.036.105-.41.202-.817.29-1.223.085-.405.183-.81.287-1.221.077-.281.154-.559.234-.84.08-.28.154-.565.22-.854.044-.185.12-.319.223-.4a.729.729 0 0 1 .404-.131 21.53 21.53 0 0 0 1.746-.077c.21-.016.418-.03.628-.042.118-.006.234-.017.347-.026.114-.01.23-.02.348-.027a1.84 1.84 0 0 1 .261 0 .323.323 0 0 1 .152.047.29.29 0 0 1 .097.125 2.4 2.4 0 0 1 .087.249l.664 2.108c.222.699.448 1.4.677 2.105.175.53.353 1.055.532 1.568.178.513.36 1.034.543 1.555.068.218.115.38.145.496.027.114.029.196 0 .253-.03.057-.092.09-.186.1-.096.011-.235.016-.417.017-.31.015-.615.03-.922.037-.304.009-.612.016-.921.024-.164 0-.264-.077-.302-.23a6.66 6.66 0 0 0-.09-.416l-.104-.413-.066-.203a3.585 3.585 0 0 1-.067-.204c-.054-.18-.17-.266-.342-.256a2.725 2.725 0 0 1-.347.025c-.116.003-.226.008-.335.012-.218.002-.407.007-.56.011-.156.005-.319.01-.49.012-.176.006-.32.012-.438.02zM172.959 111.957c-.083.01-.16.015-.231.018a.517.517 0 0 0-.195.075c-.048.035-.075.098-.08.19.015.267.029.54.038.826.012.284.021.559.027.825.008.136.085.21.23.22.33.02.65-.002.956-.06.306-.059.601-.174.883-.344a1.04 1.04 0 0 0 .362-.378.89.89 0 0 0 .115-.4.986.986 0 0 0-.303-.784.698.698 0 0 0-.406-.177 6.014 6.014 0 0 0-.344-.028c-.13-.007-.253-.01-.377-.015a6.078 6.078 0 0 0-.445.012c-.072.005-.149.012-.23.02zm-2.816.316c-.009-.328-.018-.62-.027-.875a48.23 48.23 0 0 1-.026-.857c-.006-.092-.007-.167-.006-.223.002-.055.014-.096.041-.125a.215.215 0 0 1 .113-.062c.048-.01.12-.024.21-.04.072-.01.143-.018.21-.018.069.003.14-.001.212-.006a4.69 4.69 0 0 0 .314-.022c.108-.011.214-.019.313-.023l.312-.026c.147-.012.3-.029.463-.053.163-.023.32-.041.47-.053a8.95 8.95 0 0 1 .32-.026c.182.009.361.015.534.018.174.005.347.01.522.018.412.023.789.119 1.131.283.341.164.674.361.997.59.047.036.086.07.122.104.033.035.076.074.122.118.228.19.401.382.518.573.116.19.188.389.217.599.03.21.028.431-.005.662-.032.23-.083.486-.148.767-.158.624-.405 1.115-.74 1.473-.336.36-.786.641-1.348.848a3.94 3.94 0 0 1-.952.232 8.814 8.814 0 0 1-.989.055c-.211-.006-.338.012-.382.056-.043.046-.061.173-.06.383.01.31.023.624.045.936.023.31.041.621.058.932.01.183-.006.298-.049.345-.043.05-.16.076-.352.076l-.759.015-.77.016c-.174.001-.272-.1-.293-.298-.021-.25-.04-.497-.054-.744-.014-.247-.026-.494-.041-.742l-.152-2.775-.044-.797a28.808 28.808 0 0 1-.047-1.334zM178.45 110.045c-.008-.139.005-.228.038-.272.034-.043.115-.063.243-.061.22-.012.422-.02.615-.021.192-.002.402-.003.628-.008.048.008.098.01.152.006l.163-.009c.18-.01.292 0 .33.029.038.03.068.138.088.32.033.292.061.584.081.877.021.293.045.586.068.88a.432.432 0 0 1 .009.157.472.472 0 0 0 .009.158c.012.044.024.094.035.143.013.05.028.097.051.143a.804.804 0 0 0 .118-.07.425.425 0 0 0 .09-.08c.39-.41.772-.828 1.15-1.257.378-.43.755-.853 1.133-1.27.095-.097.192-.179.288-.244a.573.573 0 0 1 .338-.094c.347-.01.69-.022 1.03-.037.34-.015.685-.027 1.03-.038.029 0 .06.01.1.037a.268.268 0 0 1 .072.065.16.16 0 0 1-.01.103.315.315 0 0 1-.049.093c-.326.368-.651.741-.979 1.122-.325.382-.651.755-.975 1.123a9.061 9.061 0 0 1-.371.387c-.125.12-.248.25-.368.385-.12.127-.183.212-.184.258-.003.045.047.141.146.282.2.301.404.599.617.895.212.298.42.594.63.895.285.398.588.825.907 1.28.316.456.618.88.903 1.28.078.106.1.206.065.3-.037.093-.118.152-.243.176a.733.733 0 0 1-.151.023l-.161.01c-.192.019-.385.034-.58.046-.197.01-.388.03-.578.06a.965.965 0 0 1-.545-.06 1.13 1.13 0 0 1-.422-.342c-.137-.174-.29-.384-.459-.622a16.76 16.76 0 0 0-.458-.622l-.618-.797a91.82 91.82 0 0 0-.619-.8c-.08-.105-.144-.16-.194-.162-.05-.001-.122.046-.217.145-.175.156-.249.363-.226.616.042.412.075.82.102 1.223.026.403.054.81.086 1.22.02.184.01.3-.027.354-.04.053-.143.083-.317.093-.273.016-.565.028-.88.036-.314.008-.61.01-.881.01-.211 0-.326-.109-.348-.326a21.77 21.77 0 0 1-.06-.867l-.078-1.422-.095-1.703c-.031-.6-.064-1.171-.093-1.71l-.08-1.443c-.024-.421-.04-.719-.048-.893M187.68 109.46c-.01-.167.006-.265.043-.3.04-.034.147-.047.32-.039.184.01.368.006.554-.01.187-.014.37-.022.553-.023.11-.006.222-.017.333-.032.113-.015.23-.017.349-.006.137.009.233.045.286.101.053.057.085.158.092.306.01.045.015.088.014.13-.002.04-.002.085 0 .131l.2 3.626c.005.065.008.126.01.187.004.059.013.121.023.185.005.065.029.102.076.118a.134.134 0 0 0 .119-.074.48.48 0 0 0 .09-.102.66.66 0 0 0 .062-.115c.428-.676.848-1.381 1.26-2.115.41-.736.826-1.437 1.245-2.105.1-.188.219-.325.359-.412.142-.085.336-.132.582-.136.237.015.481.01.73-.014a9.42 9.42 0 0 1 .731-.04c.219.007.362.038.43.1.066.062.101.203.104.422.035.937.08 1.895.139 2.88.059.984.104 1.944.139 2.878.01.36.028.694.055 1.01l.083 1.007c.003.066.01.122.015.167.006.046.008.1.002.163a.352.352 0 0 1-.068.206c-.045.05-.112.072-.204.058-.292.008-.588.012-.888.017-.301.003-.601.017-.902.042a3.981 3.981 0 0 1-.191.005.5.5 0 0 1-.18-.04.278.278 0 0 1-.107-.09.214.214 0 0 1-.054-.134 11.12 11.12 0 0 0-.062-1.099c-.04-.393-.06-.76-.06-1.1a31.72 31.72 0 0 0-.044-1.01c-.016-.334-.03-.67-.04-1.01a.342.342 0 0 0-.019-.082c-.01-.036-.034-.053-.07-.051-.028.001-.049.012-.06.03a.316.316 0 0 1-.046.058 33.89 33.89 0 0 0-2.31 3.74 11.4 11.4 0 0 0-.193.341c-.064.114-.128.228-.195.344a.537.537 0 0 1-.285.275c-.117.045-.246.08-.39.106a2.939 2.939 0 0 1-.322.024c-.104 0-.21.005-.32.01a4.53 4.53 0 0 0-.551.039c-.186.024-.37.032-.554.024-.21-.006-.337-.035-.381-.088-.044-.053-.067-.19-.071-.409 0-.341-.008-.677-.021-1.011-.014-.337-.03-.673-.048-1.012-.02-.35-.043-.694-.073-1.036l-.084-1.036a23.461 23.461 0 0 0-.026-.744l-.042-.755-.048-.873c-.015-.297-.032-.588-.049-.872-.015-.283-.03-.537-.04-.755M210.117 113.414l.059 1.569c.005.24.018.455.044.65.024.197.046.415.07.653.007.138-.004.228-.034.27-.029.043-.109.073-.235.089l-.89.104c-.294.034-.591.067-.891.092-.172.018-.264-.081-.276-.301-.02-.348-.036-.67-.045-.97a61.91 61.91 0 0 0-.049-.967 186.58 186.58 0 0 1-.087-1.712 65.263 65.263 0 0 0-.101-1.698 6.536 6.536 0 0 0-.042-.533c-.016-.11-.047-.184-.094-.224-.05-.039-.127-.053-.237-.04-.107.01-.264.016-.463.018-.264.006-.529.015-.793.022-.264.011-.526.03-.789.054-.173.009-.28.035-.318.079-.039.044-.054.142-.045.299l.133 2.404c.037.53.074 1.06.108 1.592.032.53.07 1.062.107 1.592a.357.357 0 0 1-.007.113 4.564 4.564 0 0 1-.012.275c-.006.063-.024.112-.06.14a.263.263 0 0 1-.147.057 4.03 4.03 0 0 1-.274.023c-.255.004-.508.013-.763.02-.257.01-.512.01-.768-.003-.2-.007-.326-.042-.375-.098-.047-.054-.077-.184-.088-.386l-.342-6.183-.1-1.826c-.007-.13.002-.204.029-.225.026-.018.107-.027.243-.026.437-.007.87-.024 1.29-.051.423-.03.853-.057 1.29-.08a29.14 29.14 0 0 0 1.757-.125 18.2 18.2 0 0 1 1.732-.098c.147-.009.287-.013.424-.016.137-.003.28-.008.424-.017.136-.008.22.001.253.027.035.025.055.108.062.246l.071 1.276c.01.193.026.423.045.687.018.266.038.522.056.768.018.248.045.541.081.877.012.533.028 1.062.047 1.583M214.6 109.628c-.08.01-.158.016-.23.02a.48.48 0 0 0-.195.073c-.048.035-.074.099-.078.19.015.267.028.542.039.826.009.284.018.56.024.825.008.137.085.211.232.22.33.02.647-.001.953-.059.307-.058.602-.175.886-.345.158-.102.279-.228.362-.378a.916.916 0 0 0 .116-.4.972.972 0 0 0-.305-.782.69.69 0 0 0-.407-.179 5.7 5.7 0 0 0-.344-.029c-.127-.006-.252-.009-.377-.014a6.955 6.955 0 0 0-.676.032zm-2.813.316c-.01-.33-.019-.62-.03-.873l-.025-.858a3.23 3.23 0 0 1-.006-.222.199.199 0 0 1 .04-.126.226.226 0 0 1 .116-.062c.048-.013.119-.026.208-.04a1.47 1.47 0 0 1 .212-.018c.07.003.139-.002.211-.006.101-.005.205-.01.313-.023.11-.01.214-.017.313-.023.064-.004.17-.014.314-.026.145-.012.3-.029.463-.053a7.04 7.04 0 0 1 .469-.053 8.95 8.95 0 0 1 .321-.026c.182.01.36.015.532.02.174.003.349.01.522.017.412.022.789.118 1.131.28.34.168.674.364.997.593.048.033.089.07.122.105.033.033.075.073.124.115.227.19.4.382.517.573.115.19.187.39.217.6.03.211.029.431-.006.664-.032.23-.081.486-.148.764-.157.626-.404 1.116-.739 1.476-.336.357-.787.64-1.35.846-.311.119-.63.196-.95.233a9.569 9.569 0 0 1-.99.056c-.211-.01-.338.01-.38.055-.044.045-.063.171-.06.382.007.31.022.623.043.935.023.311.043.622.058.934.01.182-.006.298-.049.346-.042.047-.16.075-.351.075l-.759.016-.772.014c-.173 0-.271-.099-.29-.3a17.572 17.572 0 0 1-.055-.742l-.04-.741-.153-2.776-.045-.797a39.99 39.99 0 0 1-.045-1.334zM220.088 107.648c-.009-.166.006-.265.044-.301.04-.032.146-.044.321-.038.182.009.366.006.552-.01.187-.016.37-.024.553-.024.11-.006.222-.016.335-.031.112-.016.23-.019.349-.007.135.011.232.045.285.1.052.057.084.16.093.308a.562.562 0 0 1 .012.13 1.84 1.84 0 0 0 0 .13l.2 3.627c.005.063.008.126.011.185.003.06.012.121.026.185.003.066.025.104.072.119a.135.135 0 0 0 .12-.073.693.693 0 0 0 .15-.216c.43-.677.85-1.382 1.26-2.117.413-.736.827-1.437 1.246-2.103.1-.188.22-.326.362-.414.14-.084.334-.13.58-.137.238.015.482.01.73-.01.251-.025.494-.039.73-.043.22.006.363.04.43.1.068.062.103.202.106.422.033.936.078 1.896.137 2.879.06.986.106 1.946.139 2.881.01.357.03.693.056 1.01.027.315.053.65.083 1.008.003.065.009.12.015.164a.658.658 0 0 1 .003.165.366.366 0 0 1-.07.205c-.045.052-.11.07-.203.06-.291.007-.588.01-.888.015-.3.001-.602.016-.902.042-.063.003-.125.006-.19.005a.484.484 0 0 1-.181-.04.298.298 0 0 1-.107-.09.253.253 0 0 1-.056-.135c0-.338-.02-.706-.06-1.1-.04-.391-.06-.759-.06-1.097-.01-.34-.025-.676-.043-1.01a44.113 44.113 0 0 1-.042-1.01.558.558 0 0 0-.017-.083c-.012-.038-.036-.053-.07-.051-.03.001-.05.012-.06.03a.412.412 0 0 1-.048.058c-.405.563-.81 1.174-1.21 1.824-.403.653-.77 1.291-1.1 1.915-.068.114-.131.23-.193.342-.063.116-.128.228-.194.342-.074.141-.17.235-.285.276a2.059 2.059 0 0 1-.71.131c-.106 0-.212.005-.323.012-.181 0-.365.012-.55.037-.186.024-.37.032-.554.024-.21-.006-.338-.036-.382-.09-.042-.051-.066-.188-.07-.407 0-.341-.008-.679-.022-1.011-.012-.336-.03-.673-.048-1.01-.02-.35-.042-.695-.072-1.038-.026-.345-.056-.688-.083-1.037-.006-.274-.015-.52-.027-.742-.013-.22-.028-.47-.041-.755a369.017 369.017 0 0 1-.139-2.501M230.323 107.143c-.01-.136.006-.228.038-.27.034-.043.117-.064.244-.06.219-.015.422-.02.615-.024l.629-.006a.793.793 0 0 0 .15.005l.164-.01c.182-.01.29 0 .328.031.04.029.068.137.088.32.035.29.062.584.083.877.02.293.044.585.068.878a.463.463 0 0 1 .009.157.52.52 0 0 0 .007.159l.036.143a.678.678 0 0 0 .05.141.64.64 0 0 0 .211-.149c.388-.408.77-.826 1.146-1.256.379-.431.756-.854 1.134-1.27.097-.099.192-.178.29-.243a.572.572 0 0 1 .336-.096c.347-.01.69-.02 1.03-.036.342-.015.686-.027 1.033-.038.026-.002.059.01.097.038a.226.226 0 0 1 .072.064c.01.027.008.062-.009.105a.307.307 0 0 1-.048.092c-.327.368-.653.741-.979 1.123-.324.381-.651.755-.977 1.122-.12.135-.244.265-.37.388-.125.12-.247.247-.368.382-.12.128-.182.215-.184.26-.003.046.047.14.145.281.2.3.406.6.619.896.21.297.422.594.628.895.288.398.588.823.907 1.279.316.456.618.881.906 1.28.077.105.1.206.065.3-.038.092-.12.152-.244.177a.907.907 0 0 1-.15.022l-.164.009c-.19.021-.383.036-.58.047a6.58 6.58 0 0 0-.577.06.95.95 0 0 1-.544-.06 1.143 1.143 0 0 1-.424-.34 17.511 17.511 0 0 1-.457-.623 17.209 17.209 0 0 0-.458-.621 85.45 85.45 0 0 1-.619-.8c-.206-.27-.413-.534-.618-.798-.078-.107-.145-.16-.194-.161-.052-.002-.122.044-.219.14a.707.707 0 0 0-.225.62c.041.41.076.82.101 1.222.027.402.056.81.09 1.221.017.184.01.3-.03.353-.039.053-.144.083-.316.094a28.025 28.025 0 0 1-1.763.042c-.21.003-.326-.106-.347-.325a16.65 16.65 0 0 1-.06-.864l-.078-1.422a1785.171 1785.171 0 0 1-.189-3.413l-.08-1.445c-.022-.419-.04-.717-.048-.893M248.381 110.957c.018.432.045.866.077 1.307.032.383.059.73.086 1.042.027.31.059.658.098 1.042.018.153-.036.235-.164.243-.32.009-.638.018-.956.032-.319.013-.638.024-.956.033-.09.005-.147-.013-.168-.059a.493.493 0 0 1-.038-.176l-.042-.752c-.01-.213-.028-.466-.054-.76l-.202-2.924a8.685 8.685 0 0 1-.038-.688 10.12 10.12 0 0 0-.039-.699 1.373 1.373 0 0 0-.027-.24c-.012-.06-.033-.101-.068-.129a.288.288 0 0 0-.14-.047 5.296 5.296 0 0 0-.252-.012l-.11.006c-.09.005-.162.01-.211.018a.296.296 0 0 0-.121.043.203.203 0 0 0-.077.108c-.02.05-.04.118-.063.202-.088.39-.174.782-.257 1.172-.084.39-.178.777-.286 1.16-.113.42-.235.838-.368 1.254-.133.416-.287.823-.466 1.217-.098.219-.23.42-.398.609a35.49 35.49 0 0 1-.51.56 1.26 1.26 0 0 1-.514.351c-.196.07-.404.117-.621.137-.299.038-.591.03-.878-.018a7.167 7.167 0 0 1-.844-.2c-.13-.04-.213-.087-.246-.145-.036-.058-.05-.155-.04-.295.041-.268.077-.542.112-.818.036-.278.079-.553.127-.82.027-.195.135-.271.33-.227.045.017.087.03.125.043.038.01.08.025.125.04.288.086.558.081.813-.012.255-.09.459-.265.608-.524.066-.112.125-.23.18-.352.052-.122.093-.25.123-.378.103-.429.202-.857.297-1.28.095-.423.183-.848.26-1.275.08-.39.143-.784.194-1.18.051-.4.107-.793.167-1.182.02-.158.047-.258.086-.302.038-.045.136-.078.29-.105a.825.825 0 0 0 .107-.012.207.207 0 0 1 .096 0c.154-.01.35-.02.587-.038.237-.019.493-.035.77-.05l.853-.05.83-.045c.264-.015.501-.027.71-.04l.479-.027c.163 0 .262.019.297.05.033.037.054.14.065.315.022.431.045.857.063 1.277.018.423.035.851.05 1.28l.016.296c.007.114.014.224.025.33.01.104.025.235.043.39.023.439.046.875.065 1.304M255.94 109.833a1.624 1.624 0 0 0 .25.957 2.168 2.168 0 0 0 1.158.887c.214.066.387.095.525.087.654-.036 1.147-.282 1.477-.738.332-.454.477-1.04.438-1.753a5.466 5.466 0 0 0-.053-.459 1.742 1.742 0 0 0-.72-1.13c-.218-.158-.52-.264-.906-.316-.56-.06-1.03.067-1.41.383-.378.316-.627.741-.742 1.282a.798.798 0 0 0-.025.187c0 .068 0 .136-.002.205-.001.068.002.152.006.243.003.056.005.11.003.165zM252.645 114c-.002.149-.02.24-.053.286-.035.042-.12.068-.255.076-.265.003-.534.015-.807.03-.271.015-.541.021-.806.018a1.585 1.585 0 0 1-.272 0c-.065-.004-.111-.023-.14-.053a.223.223 0 0 1-.056-.134 50.076 50.076 0 0 1-.148-2.41 45.407 45.407 0 0 0-.125-2.157 52.764 52.764 0 0 1-.07-.886 11.64 11.64 0 0 1-.026-.887 18.246 18.246 0 0 0-.109-1.95c-.015-.128-.012-.213.008-.25.02-.036.081-.057.18-.063.328-.018.641-.035.942-.047.301-.012.615-.026.94-.044.148.007.225.082.233.218.015.13.027.254.033.372.008.119.014.244.021.37.027.338.045.66.053.967.007.31.032.637.068.983.01.173.03.275.065.3.033.025.132.045.297.05.126.004.25 0 .368-.01.119-.012.238-.016.357-.015.154.002.255-.079.3-.237.04-.103.079-.208.112-.316.036-.108.074-.213.113-.314.27-.734.672-1.313 1.203-1.736a5.33 5.33 0 0 1 1.893-.947c.592-.17 1.152-.196 1.678-.074a3.965 3.965 0 0 1 1.504.723 4.8 4.8 0 0 1 .876.902c.252.334.445.719.577 1.151.101.326.186.652.26.979.072.326.1.665.083 1.014a6.493 6.493 0 0 1-.17 1.162 3.663 3.663 0 0 1-.46 1.079c-.16.249-.326.489-.506.717-.18.23-.392.431-.638.601a4.261 4.261 0 0 1-1.463.654c-.51.115-1.04.174-1.597.179a3.505 3.505 0 0 1-1.091-.187 5.59 5.59 0 0 1-1.01-.466 2.393 2.393 0 0 1-.758-.702 3.981 3.981 0 0 1-.467-.927 5.348 5.348 0 0 1-.19-.595 67.417 67.417 0 0 0-.166-.61c-.044-.153-.139-.232-.285-.233a2.67 2.67 0 0 0-.383.023.33.33 0 0 0-.207.1.368.368 0 0 0-.083.219c-.007.092-.007.22.002.384.004.102.015.275.035.522.018.248.034.51.05.79a76.971 76.971 0 0 0 .09 1.381zM270.67 109.753c.058.97.11 1.947.155 2.927.004.1.007.176.006.228l-.01.228c-.01.127-.035.21-.073.252-.04.036-.12.056-.249.053a6.373 6.373 0 0 0-.819.046 3.898 3.898 0 0 1-.82.02c-.24-.016-.365-.174-.382-.476l-.089-1.607a5.966 5.966 0 0 0-.036-.39l-.048-.405c-.018-.155-.1-.193-.24-.112a.994.994 0 0 0-.137.085.772.772 0 0 1-.14.082l-.554.254c-.184.083-.37.158-.556.223-.466.156-.905.18-1.317.074a3.985 3.985 0 0 1-1.199-.54 2.089 2.089 0 0 1-.57-.553 1.58 1.58 0 0 1-.282-.75c-.034-.309-.07-.619-.105-.923a29.16 29.16 0 0 1-.094-.94c-.012-.211-.02-.407-.031-.59-.01-.183-.018-.362-.023-.537-.004-.173-.012-.352-.017-.535a24.94 24.94 0 0 0-.025-.594c-.012-.202.075-.306.256-.317.045-.003.143-.01.293-.023.15-.012.316-.024.497-.035l.533-.03.408-.021c.11.003.198.006.261.013.065.005.11.02.14.047.028.025.046.069.055.128.007.06.015.14.02.24.011.386.019.728.022 1.025.003.3.009.635.021 1.012.01.155.021.307.04.453.016.145.046.296.093.45a.952.952 0 0 0 .315.513c.152.124.36.179.624.164a1.935 1.935 0 0 0 1.208-.467c.12-.108.211-.22.273-.338a.865.865 0 0 0 .079-.455c-.043-.436-.071-.864-.085-1.274-.013-.416-.032-.84-.056-1.28l-.007-.11c.001-.156.02-.258.059-.307.039-.045.135-.076.29-.085a30.6 30.6 0 0 0 .26-.013c.134-.01.288-.017.455-.026a194.746 194.746 0 0 0 .88-.05c.182-.019.297 0 .345.05.048.053.086.168.116.352.017.155.033.345.044.57l.036.638c.012.202.018.443.026.73.046.98.096 1.955.155 2.926M273.52 113.162l-.738.042c-.199.018-.315.012-.348-.023-.036-.033-.058-.155-.07-.366-.012-.23-.022-.459-.031-.69a26.418 26.418 0 0 0-.03-.686l-.172-3.118c-.055-.998-.109-2.033-.159-3.105a.776.776 0 0 0-.012-.117.539.539 0 0 1-.012-.104 4.82 4.82 0 0 1-.01-.323.27.27 0 0 1 .057-.184.32.32 0 0 1 .172-.09c.077-.018.188-.03.335-.039l.517-.027c.273-.017.596-.034.968-.049l1.202-.055c.427-.016.835-.04 1.221-.06l1.023-.06c.297-.015.496-.03.608-.045.19-.01.312.012.364.068.053.056.083.167.094.333.012.238.023.465.032.68.007.216.02.438.042.667.012.2-.08.307-.27.32a4.513 4.513 0 0 1-.32.002 3.781 3.781 0 0 0-.321.003l-2.006.113-1.105.062c-.137.006-.222.029-.256.07-.034.038-.044.126-.026.261.018.185.036.35.054.495l.055.492c.02.202.125.297.316.286.064-.003.151-.01.267-.014l.353-.02c.124-.007.241-.015.354-.02.115-.007.203-.011.267-.016.208-.029.308.06.302.258l.05.907c.004.1-.064.164-.208.193a8.083 8.083 0 0 0-.618.06c-.123.019-.243.03-.355.04-.113.012-.202.02-.265.023-.101.015-.172.044-.215.09-.042.042-.061.115-.055.215l.058 1.071c-.009.195.092.286.302.274.1-.005.196-.012.287-.023.09-.01.187-.015.286-.021.362-.013.725-.03 1.086-.049.357-.02.72-.035 1.084-.047.145-.008.287-.018.422-.029.136-.012.276-.023.423-.032.126-.007.217.006.27.04.05.033.084.11.099.23.033.236.062.468.087.696.026.228.046.462.06.7.011.193-.013.316-.069.376-.055.059-.179.088-.37.09l-.568.031-.86.047c-.322.02-.666.04-1.028.058-.363.021-.713.038-1.046.053-.33.012-.638.03-.92.044-.28.015-.5.022-.654.022M287.906 111.05c.021.237.04.425.051.568.014.143.024.333.038.571.006.1-.01.167-.05.2-.04.036-.118.053-.237.05-.265.004-.527.013-.793.022-.262.01-.526.023-.79.038-.155.01-.249 0-.282-.027-.033-.023-.06-.116-.077-.269-.042-.431-.087-.869-.133-1.317-.048-.448-.093-.885-.135-1.315l-.008-.15a1.02 1.02 0 0 0-.024-.165c-.006-.11-.077-.17-.214-.18-.364.001-.727.02-1.086.053-.357.035-.716.051-1.07.053-.183.001-.26.094-.231.275.033.45.052.884.058 1.306.006.422.03.875.076 1.361.012.062.02.125.028.184.008.06.01.121.005.185.008.128-.053.196-.181.202a3.98 3.98 0 0 1-.532.003 5.964 5.964 0 0 0-.738.034c-.246.027-.49.04-.737.036-.163-.01-.272-.035-.318-.073-.049-.04-.076-.135-.085-.291-.027-.512-.06-.992-.092-1.436-.034-.442-.06-.922-.08-1.434-.036-.816-.069-1.627-.1-2.427-.03-.802-.058-1.612-.085-2.429l-.024-.425c-.01-.174.072-.268.246-.277.128-.006.256-.017.387-.029s.265-.016.404-.015c.181-.001.356-.003.525-.009.169-.005.345-.005.528.006.182.008.294.026.34.056.041.03.068.137.079.32a53.376 53.376 0 0 1 .127 2.336c.009.165.018.296.028.39.01.097.035.167.08.211.043.043.11.068.204.071.09.005.217.002.38-.007.292-.017.574-.04.852-.069.277-.03.556-.056.838-.082.181-.009.267-.092.258-.249a.531.531 0 0 1-.013-.138c.003-.045.003-.09 0-.135a67.975 67.975 0 0 1-.115-1.346 85.53 85.53 0 0 0-.118-1.344c-.025-.145.026-.22.154-.228l1.677-.094a1.29 1.29 0 0 1 .22 0c.138.012.226.038.27.076.044.038.073.132.09.278a48.54 48.54 0 0 1 .195 3.027c.01.354.021.71.03 1.066a153.245 153.245 0 0 0 .122 2.096c.025.342.044.639.058.886M289.147 103.786c-.01-.167.007-.265.045-.3.04-.034.145-.046.32-.038.182.009.366.006.553-.011.186-.015.37-.023.552-.024a4.28 4.28 0 0 0 .335-.03c.112-.017.228-.019.348-.008.136.01.233.045.287.101.051.057.083.16.092.307a.562.562 0 0 1 .012.13 1.84 1.84 0 0 0 0 .13l.2 3.627c.005.064.008.126.011.186.003.059.012.121.026.185.003.065.025.103.072.118a.134.134 0 0 0 .12-.074.444.444 0 0 0 .09-.102.57.57 0 0 0 .063-.114c.428-.676.848-1.38 1.26-2.114.41-.737.824-1.439 1.243-2.105.1-.189.219-.327.36-.414.142-.083.335-.132.581-.136.237.015.483.01.732-.012.25-.023.493-.037.73-.041.22.006.361.04.43.1.067.062.103.202.103.422.035.936.08 1.896.14 2.88.058.983.105 1.944.138 2.879.01.358.03.694.056 1.01.027.316.052.651.083 1.007.004.065.009.12.016.165a.726.726 0 0 1 .003.164.37.37 0 0 1-.07.205c-.046.052-.112.072-.204.06a55.53 55.53 0 0 1-.888.015c-.3.003-.6.017-.902.044a3.965 3.965 0 0 1-.19.005.478.478 0 0 1-.181-.041.26.26 0 0 1-.107-.09.248.248 0 0 1-.056-.134c0-.34-.02-.708-.06-1.1-.04-.393-.06-.759-.06-1.098-.01-.34-.025-.676-.043-1.01a44.48 44.48 0 0 1-.042-1.01.414.414 0 0 0-.018-.082c-.01-.038-.035-.053-.07-.052-.028.002-.05.011-.06.03a.283.283 0 0 1-.045.057 33.577 33.577 0 0 0-2.312 3.741 9.779 9.779 0 0 0-.193.342c-.063.114-.127.228-.193.342-.075.141-.17.235-.287.276a2.028 2.028 0 0 1-.71.13c-.105 0-.212.005-.321.011a4.533 4.533 0 0 0-.552.038c-.185.025-.37.032-.553.025-.21-.006-.337-.038-.38-.09-.044-.053-.068-.188-.071-.407 0-.342-.008-.679-.021-1.013-.015-.336-.03-.673-.05-1.01-.02-.35-.042-.694-.071-1.036l-.083-1.038a22.74 22.74 0 0 0-.029-.742l-.04-.755-.05-.874c-.015-.298-.032-.588-.047-.872-.016-.284-.028-.536-.042-.755M303.413 101.693a1.071 1.071 0 0 1-.974-.54.646.646 0 0 1-.088-.338.937.937 0 0 1 .305-.686c.2-.192.444-.289.736-.297.59-.024.918.289.981.938a.552.552 0 0 1-.057.328 1.072 1.072 0 0 1-.903.595zm-4.054 1.452c-.009-.146.014-.253.065-.319.051-.067.146-.097.283-.085.32 0 .626-.016.922-.05.292-.038.602-.042.921-.026.2.008.299.108.29.301.004.082.015.246.027.49l.047.842c.016.322.037.656.063 1.009a84.154 84.154 0 0 0 .128 1.709c.018.194.033.288.042.288.1-.006.166-.038.201-.094.118-.164.23-.325.335-.487.105-.163.212-.324.322-.488.193-.302.383-.612.572-.928.187-.313.377-.623.57-.927.167-.267.335-.528.498-.787.164-.255.33-.522.496-.799.044-.066.078-.118.108-.156a.341.341 0 0 1 .118-.097.566.566 0 0 1 .175-.05c.068-.008.166-.017.292-.025l1.065-.059c.145-.008.255-.01.327-.01.074 0 .13.013.166.037.04.025.06.073.07.142.009.068.02.16.037.28.02.229.046.561.076 1.002.028.44.057.928.086 1.463l.093 1.663c.03.572.057 1.1.079 1.58.022.481.043.891.06 1.23.02.337.032.544.035.618.007.11.013.204.024.281.007.078.004.173-.006.284-.012.117-.04.2-.082.237-.043.04-.13.058-.258.056a5.206 5.206 0 0 0-.717.034 5.372 5.372 0 0 1-.715.032 1.577 1.577 0 0 0-.293.016c-.114.016-.185.011-.214-.015-.029-.026-.042-.114-.04-.26 0-.144-.007-.268-.022-.37-.022-.403-.039-.764-.053-1.086a34.24 34.24 0 0 0-.066-1.085 32.44 32.44 0 0 0-.1-1.274c-.002-.066-.022-.111-.061-.135-.036-.016-.077 0-.12.048a1.617 1.617 0 0 0-.128.172l-1 1.482c-.328.493-.66.985-.998 1.481a6.457 6.457 0 0 1-.36.53 7.382 7.382 0 0 0-.36.532.449.449 0 0 1-.385.226c-.318-.001-.636.013-.949.04-.313.027-.63.041-.948.04-.074.004-.122-.013-.148-.048a.422.422 0 0 1-.056-.147 51.617 51.617 0 0 0-.009-.185 1.619 1.619 0 0 0-.024-.184 256.906 256.906 0 0 0-.24-3.848c-.009 0-.018-.095-.03-.288l-.039-.72c-.015-.289-.033-.605-.053-.948a150.52 150.52 0 0 0-.054-.975c-.015-.307-.03-.57-.042-.792l-.023-.398z"/>
        <path fill="#F5BC45" d="M100.917 63.378l1.16-9.383c.117-.943 1.492-.882 1.527.067l.333 9.383a.769.769 0 0 1-.766.8h-1.494a.769.769 0 0 1-.76-.867zm8.528-34.21l-15.685.967a.765.765 0 0 0-.677.518L71.76 93.144a.77.77 0 0 0 .769 1.021l24.152-1.438a.77.77 0 0 0 .716-.676l1.591-13.068a.762.762 0 0 1 .754-.678c1.26.002 2.668.016 4 .032a.767.767 0 0 1 .753.745l.459 12.487c.015.432.38.764.808.741l11.18-.625a.772.772 0 0 0 .718-.866l-7.407-60.975a.769.769 0 0 0-.808-.676z"/>
        <path fill="#00B0D2" d="M159.335 45.684l-12.4-36.986a.768.768 0 0 0-.725-.524h-22.344c-.42 0-.76.337-.766.76l-1.184 75.895a.77.77 0 0 0 .807.784l19.104-1.015a.77.77 0 0 0 .724-.697l2.323-24.27c.078-.823 1.212-.963 1.485-.184l6.778 19.312a.768.768 0 0 0 .723.515h7.175a.765.765 0 0 0 .733-.55l5.91-19.716c.251-.837 1.471-.674 1.5.2l1.205 37.415a.77.77 0 0 0 .766.746h15.172a.77.77 0 0 0 .766-.748l2.282-71.48a.768.768 0 0 0-.766-.798h-19.895a.767.767 0 0 0-.724.518l-7.2 20.829c-.24.694-1.215.69-1.449-.006"/>
        <path fill="#9F3D86" d="M259.379 52.364c-1.478-.1-3.15-.22-4.581-.333a.782.782 0 0 1-.723-.785c.056-11.727-.14-24.984-.897-37.61a.79.79 0 0 0-.704-.74c-5.129-.566-15.968-1.08-19.046-1.218a.788.788 0 0 0-.819.802l1.013 71.93c.005.433.355.78.783.78l17.993.048a.785.785 0 0 0 .786-.741c.125-2.095.475-8.575.698-18.87.01-.43.358-.781.788-.781h4.76c.433 0 .784.353.784.791V95.64a.79.79 0 0 0 .788.793h5.81a.791.791 0 0 0 .787-.773l1.574-67.512a.788.788 0 0 0-.725-.808l-7.386-.578a.79.79 0 0 0-.848.79v24.022c0 .459-.383.82-.835.79"/>
        <g>
            <mask id="d" fill="#fff">
                <use xlink:href="#c"/>
            </mask>
            <path fill="#9F3D86" d="M303.978 27.548l-10.637 27.085c-.323.82-1.534.576-1.517-.305l.368-20.64a.787.787 0 0 0-.727-.803l-15.25-1.121a.79.79 0 0 0-.842.758l-2.236 56.992a.788.788 0 0 0 .784.823h16.39a.786.786 0 0 0 .72-.474l9.106-20.93c.341-.784 1.505-.538 1.505.318v19.876a.79.79 0 0 0 .805.792l12.457-.31a.787.787 0 0 0 .766-.803l-.898-60.978a.787.787 0 0 0-.785-.78h-9.279a.783.783 0 0 0-.73.5" mask="url(#d)"/>
            <path fill="#5A488B" d="M349.316 56.324c-5.98-4.095-5.254-18.963 1.02-20.397a.772.772 0 0 1 .938.81c-.432 6.228-.67 12.677-.78 18.95-.01.602-.683.977-1.178.637zM374.154 1.9a.78.78 0 0 0-.662-.727c-35.49-5.496-53.914 11.366-53.914 34.642 0 20.758 12.714 30.129 15.598 31.988.33.213.44.632.268.984L321.209 97.87a.77.77 0 0 0 .73 1.112l19.754-1.156a.767.767 0 0 0 .656-.459l6.86-15.58c.332-.752 1.443-.527 1.467.295.214 7.421.501 12.634.611 14.503a.759.759 0 0 0 .81.715l15.955-.95a.771.771 0 0 0 .72-.743l1.652-46.535a.772.772 0 0 1 .487-.69l4.323-1.705a.759.759 0 0 0 .487-.73c-.102-3.745-.739-26.504-1.567-44.047z" mask="url(#d)"/>
            <path fill="#00B0D2" d="M213.252 64.645c.163-3.35.314-6.623.44-9.52.043-.978 1.462-1.022 1.566-.048l1.016 9.526a.789.789 0 0 1-.78.874h-1.458a.79.79 0 0 1-.784-.832zm15.763 25.695l-8.912-59.225a.787.787 0 0 0-.776-.673h-16.098a.785.785 0 0 0-.772.656L192.27 90.383a.789.789 0 0 0 .77.928l18.115.055a.787.787 0 0 0 .788-.746c.115-2.25.477-9.286.881-17.346l.784-.755h2.804a.79.79 0 0 1 .782.707l1.852 17.383c.045.404.385.71.789.708l8.408-.067a.791.791 0 0 0 .772-.91z" mask="url(#d)"/>
            <path fill="#F5BC45" d="M93.53 11.236L.86 2.566a.79.79 0 0 0-.815 1.05l13.712 39.25a.787.787 0 0 0 .748.528l25.784-.22c.772-.006 1.09.997.457 1.44L22.314 57.56a.796.796 0 0 0-.125 1.19l37.83 40.968a.784.784 0 0 0 1.31-.26l14.735-39.21a.792.792 0 0 0-.646-1.067l-20.672-2.406c-.784-.091-.959-1.16-.247-1.501l28.076-13.455a.789.789 0 0 0 .395-.429l11.22-29.078a.793.793 0 0 0-.66-1.075" mask="url(#d)"/>
        </g>
    </g>
</svg>
